<?xml version="1.0" encoding="UTF-8" standalone="no"?>
<svg xmlns="http://www.w3.org/2000/svg" height="13px" width="127px" version="1.1" xmlns:xlink="http://www.w3.org/1999/xlink" viewBox="0 0 127 13"><!-- Generator: Sketch 40.2 (33826) - http://www.bohemiancoding.com/sketch -->
 <title>Group 4</title>
 <desc>Created with Sketch.</desc>
 <g id="Page-1" opacity=".4" fill-rule="evenodd" fill="none">
  <g id="Home-13" fill="#fff" transform="translate(-60 -700)">
   <g id="artwork" transform="translate(60 597)">
    <g id="dots-" transform="translate(0 103)">
     <g id="Group-4">
      <path id="Shape" d="m88.287 9.5145c-0.871 0-1.709-0.3345-2.317-0.9399-0.625-0.5894-0.97-1.4019-0.97-2.2462s0.345-1.6568 0.97-2.2462c1.216-1.1948 3.418-1.1948 4.635 0 0.624 0.5894 0.969 1.4019 0.969 2.2462s-0.345 1.6568-0.953 2.2462c-0.625 0.6054-1.479 0.9399-2.334 0.9399z"/>
      <path id="Shape" d="m119.8 12.657c-1.74 0-3.42-0.669-4.64-1.88-1.25-1.1788-1.94-2.8037-1.94-4.4924 0-1.6886 0.69-3.3135 1.94-4.4924 2.44-2.3896 6.84-2.3896 9.27 0 1.25 1.1789 1.94 2.8038 1.94 4.4924 0 1.6887-0.69 3.3136-1.9 4.4924-1.25 1.211-2.96 1.88-4.67 1.88z"/>
      <path id="Shape" d="m32.287 9.5145c-0.871 0-1.709-0.3345-2.317-0.9399-0.625-0.5894-0.97-1.4019-0.97-2.2462s0.345-1.6568 0.97-2.2462c1.216-1.1948 3.418-1.1948 4.635 0 0.624 0.5894 0.969 1.4019 0.969 2.2462s-0.345 1.6568-0.953 2.2462c-0.625 0.6054-1.479 0.9399-2.334 0.9399z"/>
      <path id="Shape" d="m60.287 9.5145c-0.871 0-1.709-0.3345-2.317-0.9399-0.625-0.5894-0.97-1.4019-0.97-2.2462s0.345-1.6568 0.97-2.2462c1.216-1.1948 3.418-1.1948 4.635 0 0.624 0.5894 0.969 1.4019 0.969 2.2462s-0.345 1.6568-0.953 2.2462c-0.625 0.6054-1.479 0.9399-2.334 0.9399z"/>
      <path id="Shape" d="m3.2871 9.5145c-0.8711 0-1.7093-0.3345-2.3174-0.9399-0.62455-0.5894-0.9697-1.4019-0.9697-2.2462s0.34515-1.6568 0.9697-2.2462c1.2162-1.1948 3.4186-1.1948 4.6348 0 0.6246 0.5894 0.9697 1.4019 0.9697 2.2462s-0.3451 1.6568-0.9532 2.2462c-0.6246 0.6054-1.4792 0.9399-2.3339 0.9399z"/>
     </g>
    </g>
   </g>
  </g>
 </g>
</svg>
