<?xml version="1.0" encoding="UTF-8" standalone="no"?>
<svg width="347px" height="244px" viewBox="0 0 347 244" version="1.1" xmlns="http://www.w3.org/2000/svg" xmlns:xlink="http://www.w3.org/1999/xlink">
    <!-- Generator: Sketch 40.2 (33826) - http://www.bohemiancoding.com/sketch -->
    <title>Laptop</title>
    <desc>Created with Sketch.</desc>
    <defs></defs>
    <g id="Page-1" stroke="none" stroke-width="1" fill="none" fill-rule="evenodd">
        <g id="Home-13" transform="translate(-199.000000, -597.000000)">
            <g id="artwork" transform="translate(60.000000, 597.000000)">
                <g id="devices" transform="translate(139.000000, 0.000000)">
                    <g id="Laptop" transform="translate(0.387387, 0.488035)">
                        <g id="svg8">
                            <g id="layer1" transform="translate(0.000000, 0.799676)">
                                <path d="M0,214.010745 C-3.61046796e-05,241.991045 7.22097966,241.991025 43.3258953,241.991025 L303.281267,241.991025 C339.38618,241.991025 346.607162,241.991045 346.607162,214.010745 L214.566339,214.010745 L214.566339,218.007928 L132.040824,218.007928 L132.040824,214.010745 L0,214.010745 Z" id="rect4188" fill="#FFFFFF"></path>
                                <path d="M338.354611,228.000845 L338.354611,20.1471595 C338.354611,4.15846821 334.229717,0.161265421 317.743368,0.161265421 L317.720055,0.161265421 L30.9473177,0.161265421 C14.442163,0.161265421 10.3159392,4.15846821 10.3159392,20.1471595 L10.3159392,227.340271" id="path4256" stroke="#FFFFFF" stroke-width="2.00000024"></path>
                                <polygon id="rect4263" stroke="#FFFFFF" stroke-width="2.00000024" points="25 16 322.091874 16 322.091874 191.876103 25 191.876103"></polygon>
                            </g>
                        </g>
                        <g id="logo-ubuntu_st_no®-white-hex" transform="translate(138.612613, 69.511965)" fill="#FFFFFF">
                            <g id="Layer_1">
                                <path d="M69.9008504,34.9133724 C69.9008504,54.1943695 54.2697067,69.8259238 34.987478,69.8259238 C15.7048387,69.8259238 0.0739002933,54.1943695 0.0739002933,34.9133724 C0.0739002933,15.6311437 15.705044,0 34.987478,0 C54.269912,0 69.9008504,15.6311437 69.9008504,34.9133724 Z M11.2474194,30.251085 C8.67178886,30.251085 6.58513196,32.3379472 6.58513196,34.9133724 C6.58513196,37.487566 8.67178886,39.5742229 11.2474194,39.5742229 C13.8216129,39.5742229 15.9082698,37.487566 15.9082698,34.9133724 C15.9082698,32.3379472 13.8216129,30.251085 11.2474194,30.251085 Z M44.528827,51.4366569 C42.2992962,52.7243695 41.5348387,55.5736364 42.8227566,57.8019355 C44.1090323,60.0314663 46.9582991,60.7957185 49.1878299,59.5080059 C51.4171554,58.2217302 52.1816129,55.3724633 50.8939003,53.1427273 C49.6076246,50.9146334 46.7567155,50.1503812 44.528827,51.4366569 Z M21.3723754,34.9133724 C21.3723754,30.3069208 23.6604106,26.2372727 27.161437,23.7729032 L23.753607,18.065132 C19.6753372,20.7912317 16.6409091,24.9569501 15.3798827,29.8358065 C16.8513196,31.0364809 17.7931378,32.8642815 17.7931378,34.9131672 C17.7931378,36.9608211 16.8513196,38.7886217 15.3798827,39.9892962 C16.6392669,44.8695894 19.673695,49.0355132 23.753607,51.7616129 L27.161437,46.0524047 C23.6604106,43.5894721 21.3723754,39.5200293 21.3723754,34.9133724 Z M34.987478,21.2968328 C42.1003812,21.2968328 47.9360411,26.7504692 48.5485924,33.7055132 L55.1905865,33.6075953 C54.863783,28.4729619 52.6207038,23.8634311 49.1740762,20.473871 C47.4017009,21.1434897 45.3544575,21.0410557 43.584956,20.0210264 C41.8123754,18.9981232 40.7009971,17.2725513 40.3971848,15.3993842 C38.6744868,14.9239589 36.8614663,14.6636657 34.9870674,14.6636657 C31.7648094,14.6636657 28.7182698,15.4205279 26.0133138,16.7593548 L29.2521994,22.5634018 C30.9946041,21.7525513 32.9383871,21.2968328 34.987478,21.2968328 Z M34.987478,48.5284751 C32.9383871,48.5284751 30.9946041,48.0725513 29.2524047,47.2619062 L26.0135191,53.0657478 C28.7184751,54.406217 31.7650147,55.1632845 34.987478,55.1632845 C36.8618768,55.1632845 38.6748974,54.9027859 40.39739,54.4259238 C40.7012023,52.5527566 41.8129912,50.828827 43.5851613,49.8040762 C45.3558944,48.7824047 47.4019062,48.6818182 49.1742815,49.351437 C52.6209091,45.9618768 54.8639883,41.352346 55.1907918,36.2177126 L48.5471554,36.1197947 C47.9360411,43.0766862 42.1005865,48.5284751 34.987478,48.5284751 Z M44.5271848,18.3872141 C46.7567155,19.6747214 49.6061877,18.9121114 50.8924633,16.6825806 C52.180176,14.4530499 51.417566,11.6035777 49.1878299,10.3156598 C46.9582991,9.02938416 44.1090323,9.79363636 42.8209091,12.0231672 C41.5348387,14.2514663 42.2990909,17.1009384 44.5271848,18.3872141 Z" id="Combined-Shape"></path>
                            </g>
                        </g>
                    </g>
                </g>
            </g>
        </g>
    </g>
</svg>