<?xml version="1.0" encoding="UTF-8" standalone="no"?>
<svg width="305px" height="86px" viewBox="0 0 305 86" version="1.1" xmlns="http://www.w3.org/2000/svg" xmlns:xlink="http://www.w3.org/1999/xlink">
    <!-- Generator: Sketch 40.2 (33826) - http://www.bohemiancoding.com/sketch -->
    <title>artwork</title>
    <desc>Created with Sketch.</desc>
    <defs></defs>
    <g id="Page-1" stroke="none" stroke-width="1" fill="none" fill-rule="evenodd">
        <g id="Mobile---white-stripe" transform="translate(-8.000000, -200.000000)">
            <g id="artwork" transform="translate(8.000000, 201.000000)">
                <g id="devices">
                    <g id="Mobile" transform="translate(257.319195, 5.283730)" fill="#FFFFFF">
                        <g id="svg8">
                            <g id="layer1" transform="translate(0.027716, 0.198633)">
                                <path d="M6.91347001,0 C1.38269443,0 0,1.3351393 0,6.67562306 L0,58.745535 C0,64.0860255 1.38269443,65.4211848 6.91347001,65.4211848 L27.6538716,65.4211848 C33.1846609,65.4211848 34.5673406,64.0860255 34.5673406,58.745535 L34.5673406,6.67562306 C34.5673406,1.3351393 33.1851172,0 27.6606261,0 L27.6525235,0 L6.91347001,0 Z M1.38269443,5.39526398 L33.1846471,5.39526398 L33.1846471,60.0259208 L1.38269443,60.0259208 L1.38269443,5.39526398 Z M13.1355874,62.0833632 L21.4317493,62.0833632 L21.4317493,63.4184959 L13.1355874,63.4184959 L13.1355874,62.0833632 Z" id="path4234"></path>
                            </g>
                        </g>
                        <g id="logo-ubuntu_st_no®-white-hex" transform="translate(9.591811, 26.256172)">
                            <g id="Layer_1">
                                <path d="M15.6248313,7.77902594 C15.6248313,12.0750124 12.1308254,15.5578689 7.820698,15.5578689 C3.51047882,15.5578689 0.0165188207,12.0750124 0.0165188207,7.77902594 C0.0165188207,3.48276502 3.51052471,0 7.820698,0 C12.1308713,0 15.6248313,3.48276502 15.6248313,7.77902594 Z M2.51411862,6.7402247 C1.93839184,6.7402247 1.47196458,7.20519711 1.47196458,7.77902594 C1.47196458,8.35258034 1.93839184,8.81750701 2.51411862,8.81750701 C3.08952421,8.81750701 3.55595147,8.35258034 3.55595147,7.77902594 C3.55595147,7.20519711 3.08952421,6.7402247 2.51411862,6.7402247 Z M9.95346129,11.4605683 C9.45509765,11.7474827 9.28421962,12.382326 9.57210596,12.8788119 C9.85962521,13.3755722 10.4965175,13.5458547 10.9948812,13.2589403 C11.4931989,12.9723461 11.6640769,12.3375028 11.3762365,11.8406967 C11.0887172,11.3442566 10.4514578,11.173974 9.95346129,11.4605683 Z M4.77733471,7.77902594 C4.77733471,6.75266543 5.28877576,5.84590977 6.07135489,5.2968252 L5.30960782,4.02508037 C4.39799835,4.63248089 3.71971722,5.56064193 3.4378419,6.64769674 C3.76674997,6.91521825 3.97727316,7.32246932 3.97727316,7.7789802 C3.97727316,8.23521665 3.76674997,8.64246772 3.4378419,8.90998923 C3.71935013,9.99736421 4.39763127,10.925571 5.30960782,11.5329715 L6.07135489,10.2609065 C5.28877576,9.7121421 4.77733471,8.80543218 4.77733471,7.77902594 Z M7.820698,4.74513356 C9.41063449,4.74513356 10.7150707,5.96025475 10.8519934,7.5099036 L12.3366683,7.48808658 C12.2636184,6.34404223 11.7622263,5.31699565 10.9918068,4.56176995 C10.5956304,4.71096728 10.1380132,4.68814402 9.74247924,4.46087195 C9.34625697,4.23295954 9.09783226,3.84848599 9.02992156,3.43112683 C8.64484949,3.32519764 8.23958776,3.26720187 7.82060622,3.26720187 C7.10033976,3.26720187 6.41935137,3.43583784 5.81471665,3.73414102 L6.53869985,5.02733696 C6.92817694,4.84667189 7.36266781,4.74513356 7.820698,4.74513356 Z M7.820698,10.8125982 C7.36266781,10.8125982 6.92817694,10.7110141 6.53874574,10.5303948 L5.81476254,11.823545 C6.41939726,12.122214 7.10038564,12.2908957 7.820698,12.2908957 C8.23967953,12.2908957 8.64494126,12.2328542 9.02996744,12.1266049 C9.09787815,11.7092457 9.34639463,11.3251381 9.74252513,11.096814 C10.1383344,10.869176 10.5956763,10.8467644 10.9918527,10.9959618 C11.7622722,10.2407361 12.2636642,9.21368948 12.3367141,8.06964513 L10.8516722,8.04782811 C10.7150707,9.5978886 9.41068037,10.8125982 7.820698,10.8125982 Z M9.9530942,4.09684328 C10.4514578,4.38371196 11.088396,4.21379532 11.3759153,3.71703501 C11.6637557,3.22027469 11.4932907,2.58538565 10.9948812,2.2984255 C10.4965175,2.01183125 9.85962521,2.18211379 9.57169299,2.6788741 C9.28421962,3.17535999 9.45505176,3.81024903 9.9530942,4.09684328 Z" id="Combined-Shape"></path>
                            </g>
                        </g>
                    </g>
                    <g id="Tablet-(landscape)" transform="translate(149.226947, 6.451965)" fill="#FFFFFF">
                        <g id="svg8">
                            <g id="layer1" transform="translate(0.027721, 0.198626)">
                                <path d="M88.492401,6.67562974 C88.492401,1.33512595 87.1096937,0 81.5789403,0 L6.9134884,0 C1.3827281,-4.67294082e-05 0,1.33512595 0,6.67562974 L0,57.4104157 C0,62.7509329 1.3827281,64.0860455 6.9134884,64.0860455 L81.5789403,64.0860455 C87.1096937,64.0860455 88.492401,62.7513735 88.492401,57.4169378 L88.492401,57.4091273 L88.492401,6.67562974 Z M82.9049157,1.33512595 L82.9049157,62.7509195 L5.5874853,62.7509195 L5.5874853,1.33512595 L82.9049157,1.33512595 Z M3.45674074,28.0376449 L3.45674074,36.0484006 L2.0740403,36.0484006 L2.0740403,28.0376449 L3.45674074,28.0376449 Z" id="path4234"></path>
                            </g>
                        </g>
                        <g id="logo-ubuntu_st_no®-white-hex" transform="translate(34.075676, 21.968606)">
                            <g id="Layer_1">
                                <path d="M20.4858899,10.1991673 C20.4858899,15.831683 15.90486,20.3980948 10.253804,20.3980948 C4.60262779,20.3980948 0.0216580093,15.831683 0.0216580093,10.1991673 C0.0216580093,4.56629191 4.60268795,0 10.253804,0 C15.9049201,0 20.4858899,4.56629191 20.4858899,10.1991673 Z M3.29628886,8.83718349 C2.54144707,8.83718349 1.92990912,9.44681399 1.92990912,10.1991673 C1.92990912,10.9511609 2.54144707,11.5607314 3.29628886,11.5607314 C4.05070952,11.5607314 4.66224748,10.9511609 4.66224748,10.1991673 C4.66224748,9.44681399 4.05070952,8.83718349 3.29628886,8.83718349 Z M13.0500937,15.0260784 C12.3966836,15.4022551 12.1726435,16.2346052 12.5500945,16.8855533 C12.9270642,17.5368613 13.7621007,17.7601206 14.4155109,17.383944 C15.0688608,17.0081871 15.2929009,16.1758369 14.9155101,15.524469 C14.5385404,14.8735808 13.7030225,14.6503215 13.0500937,15.0260784 Z M6.26361662,10.1991673 C6.26361662,8.85349468 6.93417266,7.66463726 7.96022085,6.94472637 L6.96148581,5.2773276 C5.7662645,6.07369716 4.87696258,7.29061941 4.50739271,8.71586906 C4.93862774,9.06661948 5.21464704,9.60057088 5.21464704,10.1991074 C5.21464704,10.7972841 4.93862774,11.3312355 4.50739271,11.6819859 C4.87648129,13.1076553 5.76578321,14.3246375 6.96148581,15.1210071 L7.96022085,13.4531885 C6.93417266,12.7336974 6.26361662,11.5449 6.26361662,10.1991673 Z M10.253804,6.22139733 C12.3383874,6.22139733 14.0486482,7.81455622 14.2281691,9.84631806 L16.1747428,9.81771352 C16.0789663,8.31774425 15.4215856,6.97117207 14.4114801,5.98098727 C13.8920488,6.17660154 13.2920618,6.14667771 12.7734728,5.84869877 C12.2539814,5.54988028 11.928269,5.04579274 11.8392305,4.49858851 C11.3343582,4.35970358 10.8030151,4.28366468 10.2536837,4.28366468 C9.30933435,4.28366468 8.41648291,4.50476517 7.62373961,4.89587378 L8.57296203,6.59139734 C9.08360976,6.35452537 9.65327557,6.22139733 10.253804,6.22139733 Z M10.253804,14.1765176 C9.65327557,14.1765176 9.08360976,14.0433296 8.57302219,13.8065176 L7.62379977,15.5019812 C8.41654307,15.8935695 9.30939451,16.11473 10.253804,16.11473 C10.8031354,16.11473 11.3344785,16.0386311 11.8392906,15.8993264 C11.9283291,15.3521222 12.2541618,14.8485144 12.7735329,14.5491562 C13.2924829,14.2506975 13.892109,14.2213134 14.4115402,14.4169276 C15.4216457,13.4267428 16.0790265,12.0801707 16.174803,10.5802014 L14.2277479,10.5515969 C14.0486482,12.5838984 12.3384476,14.1765176 10.253804,14.1765176 Z M13.0496124,5.37141674 C13.7030225,5.74753345 14.5381193,5.52475387 14.9150889,4.8734459 C15.2924798,4.22213793 15.0689811,3.38972785 14.4155109,3.01349121 C13.7621007,2.6377343 12.9270642,2.86099363 12.549553,3.5123016 C12.1726435,4.16324976 12.3966234,4.99565984 13.0496124,5.37141674 Z" id="Combined-Shape"></path>
                            </g>
                        </g>
                    </g>
                    <g id="Laptop" transform="translate(10.134699, 0.169149)">
                        <g id="svg8">
                            <g id="layer1" transform="translate(0.000000, 0.277162)">
                                <path d="M0,74.1744823 C-1.25539935e-05,83.8722395 2.5108139,83.8722326 15.0648895,83.8722326 L105.454226,83.8722326 C118.008301,83.8722326 120.519116,83.8722395 120.519116,74.1744823 L74.6070716,74.1744823 L74.6070716,75.5598752 L45.912044,75.5598752 L45.912044,74.1744823 L0,74.1744823 Z" id="rect4188" fill="#FFFFFF"></path>
                                <path d="M117.649613,79.0233436 L117.649613,6.98285089 C117.649613,1.44129318 116.215342,0.0558933574 110.482858,0.0558933574 L110.474751,0.0558933574 L10.7607221,0.0558933574 C5.02169861,0.0558933574 3.58696532,1.44129318 3.58696532,6.98285089 L3.58696532,78.7943936" id="path4256" stroke="#FFFFFF" stroke-width="2.00000024"></path>
                                <polygon id="rect4263" stroke="#FFFFFF" stroke-width="2.00000024" points="8.69277446 5.54547724 111.994881 5.54547724 111.994881 66.5027853 8.69277446 66.5027853"></polygon>
                            </g>
                        </g>
                        <g id="logo-ubuntu_st_no®-white-hex" transform="translate(48.197127, 24.092314)" fill="#FFFFFF">
                            <g id="Layer_1">
                                <path d="M24.3052931,12.100707 C24.3052931,18.7833527 18.8701728,24.2011294 12.1655302,24.2011294 C5.46074484,24.2011294 0.0256959433,18.7833527 0.0256959433,12.100707 C0.0256959433,5.41763448 5.46081621,0 12.1655302,0 C18.8702442,0 24.3052931,5.41763448 24.3052931,12.100707 Z M3.91085119,10.484794 C3.01527619,10.484794 2.28972268,11.2080844 2.28972268,12.100707 C2.28972268,12.9929027 3.01527619,13.716122 3.91085119,13.716122 C4.80592655,13.716122 5.53148006,12.9929027 5.53148006,12.100707 C5.53148006,11.2080844 4.80592655,10.484794 3.91085119,10.484794 Z M15.483162,17.8275506 C14.7079297,18.2738619 14.4421194,19.261396 14.8899426,20.0337074 C15.3371948,20.8064456 16.3279161,21.0713296 17.1031485,20.6250183 C17.8783094,20.179205 18.1441197,19.191671 17.6963679,18.4188615 C17.2491157,17.6466213 16.2578233,17.3817374 15.483162,17.8275506 Z M7.43140955,12.100707 C7.43140955,10.5041462 8.22698451,9.09363742 9.44432982,8.23950586 L8.25938995,6.26123613 C6.84133077,7.20608138 5.78622678,8.64988744 5.34775406,10.3408616 C5.85938885,10.7570062 6.18686937,11.3905078 6.18686937,12.1006359 C6.18686937,12.810337 5.85938885,13.4438387 5.34775406,13.8599832 C5.78565576,15.5514554 6.84075975,16.9953327 8.25938995,17.9401779 L9.44432982,15.9614101 C8.22698451,15.1077766 7.43140955,13.6973389 7.43140955,12.100707 Z M12.1655302,7.38131886 C14.6387648,7.38131886 16.6678877,9.27150739 16.8808786,11.6820723 L19.1903728,11.6481347 C19.0767397,9.86851013 18.2967964,8.27088212 17.0983662,7.09608659 C16.4820918,7.32817132 15.7702428,7.29266848 15.1549677,6.93913414 C14.538622,6.58460373 14.1521835,5.98653376 14.0465446,5.3373084 C13.4475437,5.17252967 12.8171365,5.08231402 12.1653875,5.08231402 C11.044973,5.08231402 9.98565769,5.34463664 9.04511479,5.8086638 L10.1713109,7.82030193 C10.7771641,7.53926739 11.4530388,7.38131886 12.1655302,7.38131886 Z M12.1655302,16.8195971 C11.4530388,16.8195971 10.7771641,16.6615775 10.1713823,16.3806141 L9.04518617,18.392181 C9.98572907,18.8567774 11.0450443,19.1191712 12.1655302,19.1191712 C12.8172793,19.1191712 13.4476864,19.0288844 14.046616,18.8636076 C14.1522549,18.2143822 14.5388361,17.6168814 15.1550391,17.2617107 C15.7707424,16.9076072 16.4821632,16.8727447 17.0984376,17.1048294 C18.2968678,15.9300339 19.0768111,14.3324059 19.1904442,12.5527813 L16.8803789,12.5188437 C16.6678877,14.9300489 14.6388361,16.8195971 12.1655302,16.8195971 Z M15.482591,6.37286732 C16.2578233,6.81910749 17.2486161,6.55479272 17.6958682,5.78205446 C18.14362,5.00931619 17.8784522,4.02171101 17.1031485,3.57532855 C16.3279161,3.12951527 15.3371948,3.39439922 14.8893002,4.16713749 C14.4421194,4.93944887 14.7078583,5.92705405 15.482591,6.37286732 Z" id="Combined-Shape"></path>
                            </g>
                        </g>
                    </g>
                    <g id="Group-2" transform="translate(0.000000, 37.000000)" fill="#FFFFFF" opacity="0.4">
                        <path d="M1.41554896,2.71674821 C1.04042848,2.71674821 0.6794635,2.57313156 0.417586942,2.31325382 C0.148632641,2.06021497 0,1.71143169 0,1.34897063 C0,0.986509576 0.148632641,0.637726294 0.417586942,0.384687443 C0.941340057,-0.128229148 1.88975786,-0.128229148 2.41351097,0.384687443 C2.68246527,0.637726294 2.83109791,0.986509576 2.83109791,1.34897063 C2.83109791,1.71143169 2.68246527,2.06021497 2.42058872,2.31325382 C2.15163442,2.57313156 1.78359169,2.71674821 1.41554896,2.71674821 L1.41554896,2.71674821 Z" id="Shape"></path>
                        <path d="M137.612081,2.71674821 C137.23696,2.71674821 136.875995,2.57313156 136.614119,2.31325382 C136.345164,2.06021497 136.196532,1.71143169 136.196532,1.34897063 C136.196532,0.986509576 136.345164,0.637726294 136.614119,0.384687443 C137.137872,-0.128229148 138.08629,-0.128229148 138.610043,0.384687443 C138.878997,0.637726294 139.02763,0.986509576 139.02763,1.34897063 C139.02763,1.71143169 138.878997,2.06021497 138.617121,2.31325382 C138.348166,2.57313156 137.980123,2.71674821 137.612081,2.71674821 L137.612081,2.71674821 Z" id="Shape"></path>
                        <path d="M247.204566,2.71674821 C246.829446,2.71674821 246.468481,2.57313156 246.206604,2.31325382 C245.93765,2.06021497 245.789017,1.71143169 245.789017,1.34897063 C245.789017,0.986509576 245.93765,0.637726294 246.206604,0.384687443 C246.730357,-0.128229148 247.678775,-0.128229148 248.202528,0.384687443 C248.471483,0.637726294 248.620115,0.986509576 248.620115,1.34897063 C248.620115,1.71143169 248.471483,2.06021497 248.209606,2.31325382 C247.940652,2.57313156 247.572609,2.71674821 247.204566,2.71674821 L247.204566,2.71674821 Z" id="Shape"></path>
                        <path d="M302.739248,2.71674821 C302.364128,2.71674821 302.003163,2.57313156 301.741286,2.31325382 C301.472332,2.06021497 301.323699,1.71143169 301.323699,1.34897063 C301.323699,0.986509576 301.472332,0.637726294 301.741286,0.384687443 C302.265039,-0.128229148 303.213457,-0.128229148 303.73721,0.384687443 C304.006165,0.637726294 304.154797,0.986509576 304.154797,1.34897063 C304.154797,1.71143169 304.006165,2.06021497 303.744288,2.31325382 C303.475334,2.57313156 303.107291,2.71674821 302.739248,2.71674821 L302.739248,2.71674821 Z" id="Shape"></path>
                    </g>
                </g>
            </g>
        </g>
    </g>
</svg>