<?xml version="1.0" encoding="UTF-8" standalone="no"?>
<svg width="100px" height="190px" viewBox="0 0 100 190" version="1.1" xmlns="http://www.w3.org/2000/svg" xmlns:xlink="http://www.w3.org/1999/xlink">
    <!-- Generator: Sketch 40.2 (33826) - http://www.bohemiancoding.com/sketch -->
    <title>Mobile</title>
    <desc>Created with Sketch.</desc>
    <defs></defs>
    <g id="Page-1" stroke="none" stroke-width="1" fill="none" fill-rule="evenodd">
        <g id="Home-13" transform="translate(-1137.000000, -612.000000)" fill="#FFFFFF">
            <g id="artwork" transform="translate(60.000000, 597.000000)">
                <g id="devices" transform="translate(139.000000, 0.000000)">
                    <g id="Mobile" transform="translate(938.414414, 15.244797)">
                        <g id="svg8">
                            <g id="layer1" transform="translate(0.079709, 0.573103)">
                                <path d="M19.8828062,0 C3.97656248,0 0,3.85218942 0,19.2607353 L0,169.49462 C0,184.903186 3.97656248,188.755433 19.8828062,188.755433 L79.5312006,188.755433 C95.437484,188.755433 99.4140041,184.903186 99.4140041,169.49462 L99.4140041,19.2607353 C99.4140041,3.85218942 95.4387962,0 79.5506261,0 L79.5273235,0 L19.8828062,0 Z M3.97656248,15.5665996 L95.4374442,15.5665996 L95.4374442,173.188833 L3.97656248,173.188833 L3.97656248,15.5665996 Z M37.7773158,179.125036 L61.6366772,179.125036 L61.6366772,182.977206 L37.7773158,182.977206 L37.7773158,179.125036 Z" id="path4234"></path>
                            </g>
                        </g>
                        <g id="logo-ubuntu_st_no®-white-hex" transform="translate(27.585586, 75.755203)">
                            <g id="Layer_1">
                                <path d="M44.936261,22.4443109 C44.936261,34.8392375 34.8876686,44.8880938 22.4919501,44.8880938 C10.0959677,44.8880938 0.0475073314,34.8392375 0.0475073314,22.4443109 C0.0475073314,10.0485924 10.0960997,0 22.4919501,0 C34.8878006,0 44.936261,10.0485924 44.936261,22.4443109 Z M7.23048387,19.4471261 C5.57472141,19.4471261 4.23329912,20.7886804 4.23329912,22.4443109 C4.23329912,24.0991496 5.57472141,25.4405718 7.23048387,25.4405718 C8.88532258,25.4405718 10.2267449,24.0991496 10.2267449,22.4443109 C10.2267449,20.7886804 8.88532258,19.4471261 7.23048387,19.4471261 Z M28.6256745,33.0664223 C27.1924047,33.8942375 26.7009677,35.7259091 27.528915,37.1583871 C28.3558065,38.5916569 30.187478,39.0829619 31.6207478,38.2551466 C33.0538856,37.4282551 33.5453226,35.5965836 32.7175073,34.1631818 C31.8906158,32.7308358 30.0578886,32.2395308 28.6256745,33.0664223 Z M13.7393842,22.4443109 C13.7393842,19.4830205 15.2102639,16.8668182 17.4609238,15.2825806 L15.270176,11.6132991 C12.6484311,13.3657918 10.6977273,16.0437537 9.88706745,19.1801613 C10.8329912,19.9520235 11.4384457,21.1270381 11.4384457,22.4441789 C11.4384457,23.7605279 10.8329912,24.9355425 9.88706745,25.7074047 C10.6966716,28.8447361 12.6473754,31.5228299 15.270176,33.2753226 L17.4609238,29.6051173 C15.2102639,28.0218035 13.7393842,25.4057331 13.7393842,22.4443109 Z M22.4919501,13.6908211 C27.0645308,13.6908211 30.8160264,17.1967302 31.2098094,21.6678299 L35.4796628,21.6048827 C35.2695748,18.3040469 33.8275953,15.3407771 31.6119062,13.1617742 C30.472522,13.5922434 29.156437,13.526393 28.0189003,12.8706598 C26.8793842,12.2130792 26.1649267,11.103783 25.9696188,9.89960411 C24.8621701,9.59397361 23.6966569,9.42664223 22.4916862,9.42664223 C20.4202346,9.42664223 18.4617449,9.91319648 16.7228446,10.773871 L18.8049853,14.505044 C19.9251026,13.983783 21.1746774,13.6908211 22.4919501,13.6908211 Z M22.4919501,31.1968768 C21.1746774,31.1968768 19.9251026,30.903783 18.8051173,30.382654 L16.7229765,34.113695 C18.4618768,34.9754252 20.4203666,35.4621114 22.4919501,35.4621114 C23.6969208,35.4621114 24.862434,35.2946481 25.9697507,34.9880938 C26.1650587,33.783915 26.8797801,32.6756745 28.0190323,32.0169062 C29.1573607,31.3601173 30.472654,31.2954545 31.6120381,31.7259238 C33.8277273,29.5469208 35.2697067,26.583651 35.4797947,23.2828152 L31.2088856,23.219868 C30.8160264,27.6921554 27.0646628,31.1968768 22.4919501,31.1968768 Z M28.6246188,11.8203519 C30.0578886,12.6480352 31.8896921,12.1577859 32.7165836,10.7245161 C33.5443988,9.29124633 33.0541496,7.45944282 31.6207478,6.6314956 C30.187478,5.80460411 28.3558065,6.29590909 27.5277273,7.72917889 C26.7009677,9.16165689 27.1922727,10.9934604 28.6246188,11.8203519 Z" id="Combined-Shape"></path>
                            </g>
                        </g>
                    </g>
                </g>
            </g>
        </g>
    </g>
</svg>