<?xml version="1.0" encoding="UTF-8" standalone="no"?>
<!-- Generator: Adobe Illustrator 15.1.0, SVG Export Plug-In . SVG Version: 6.00 Build 0)  -->
<!DOCTYPE svg PUBLIC "-//W3C//DTD SVG 1.1//EN" "http://www.w3.org/Graphics/SVG/1.1/DTD/svg11.dtd">
<svg id="Layer_1" xmlns="http://www.w3.org/2000/svg" y="0px" xml:space="preserve" height="288.66px" width="288.66px" version="1.1" x="0px" xmlns:xlink="http://www.w3.org/1999/xlink" viewBox="33.154 31.9 288.656 288.656" enable-background="new 33.154 31.9 288.656 288.656">
	<path opacity=".597" enable-background="new    " fill="#333" d="m326.63 176.78c0 82.76-67.09 149.85-149.85 149.85s-149.85-67.09-149.85-149.85 67.09-149.85 149.85-149.85 149.85 67.087 149.85 149.85z" fill-opacity="0"/>
	<path opacity=".597" enable-background="new    " fill="#DD4814" d="m237.06 181.24c0 46.758-26.955 84.663-60.205 84.663s-60.21-37.9-60.21-84.66 26.955-84.663 60.205-84.663 60.2 37.903 60.2 84.663z" fill-opacity="0"/>
	<path opacity=".597" enable-background="new    " fill="#DD4814" d="m267.79 221.69c0 15.413-25.131 27.907-56.129 27.907-31 0-56.13-12.495-56.13-27.908s25.13-27.908 56.13-27.908 56.13 12.5 56.13 27.91z" fill-opacity="0"/>
	<path d="m321.81 176.23c0 79.71-64.618 144.33-144.33 144.33s-144.33-64.62-144.33-144.33 64.622-144.33 144.33-144.33 144.33 64.618 144.33 144.33z" fill="#DD4814"/>
	<g stroke="#fff" stroke-width=".798" fill="#fff">
		<path d="m164.92 229.48c-18.342 0.033-50.34 0.347-63.057 2.306-6.876 1.09-6.34 5.642-6.54 9.396v0.066c0.2 3.756-0.336 8.311 6.54 9.398 16.935 2.61 68.054 2.305 75.58 2.305h0.055c7.525 0 58.644 0.305 75.58-2.305 6.876-1.09 6.368-5.643 6.567-9.398-0.21-3.767 0.348-8.369-6.568-9.463-16.935-2.61-68.054-2.306-75.58-2.306-1.87-0.01-6.47-0.01-12.58-0.01z"/>
		<path d="m164.92 99.493c-18.342 0.033-50.34 0.346-63.057 2.305-6.876 1.09-6.34 5.642-6.54 9.397v0.067c0.2 3.755-0.336 8.308 6.54 9.397 16.935 2.608 68.054 2.305 75.58 2.304h0.055c7.525 0 58.644 0.304 75.58-2.305 6.876-1.09 6.368-5.643 6.567-9.398-0.21-3.767 0.348-8.37-6.568-9.464-16.935-2.61-68.054-2.306-75.58-2.305-1.858 0-6.463-0.01-12.577 0v-0.002z"/>
		<path d="m164.92 186.16c-18.342 0.032-50.34 0.345-63.057 2.304-6.876 1.088-6.34 5.641-6.54 9.396v0.068c0.2 3.756-0.336 8.309 6.54 9.397 16.935 2.61 68.054 2.306 75.58 2.306h0.055c7.525 0 58.644 0.305 75.58-2.305 6.876-1.088 6.368-5.64 6.567-9.396-0.21-3.768 0.348-8.369-6.568-9.465-16.935-2.609-68.054-2.306-75.58-2.305-1.87-0.02-6.47-0.03-12.58-0.02z"/>
		<path d="m164.92 142.82c-18.342 0.032-50.34 0.346-63.057 2.304-6.876 1.09-6.34 5.642-6.54 9.398v0.068c0.2 3.755-0.336 8.308 6.54 9.397 16.935 2.61 68.054 2.305 75.58 2.305h0.055c7.525 0 58.644 0.304 75.58-2.305 6.876-1.09 6.368-5.642 6.567-9.397-0.21-3.768 0.348-8.37-6.568-9.465-16.935-2.608-68.054-2.305-75.58-2.304-1.87-0.02-6.47-0.02-12.58-0.02z"/>
	</g>
</svg>