<?xml version="1.0" encoding="UTF-8" standalone="no"?>
<svg xmlns="http://www.w3.org/2000/svg" height="392px" width="573px" version="1.1" xmlns:xlink="http://www.w3.org/1999/xlink" viewBox="0 0 573 392"><!-- Generator: Sketch 40.3 (33839) - http://www.bohemiancoding.com/sketch -->
 <title>IOT_overview_graphic</title>
 <desc>Created with Sketch.</desc>
 <defs>
  <polygon id="path-1" points="0 393.43 642 393.43 642 0.00056284 0 0.00056284"/>
 </defs>
 <g id="Page-1" fill-rule="evenodd" fill="none">
  <g id="6_overview-copy" transform="translate(-611 -182)">
   <g id="IOT_overview_graphic" transform="translate(566 181)">
    <g id="Group-114" transform="translate(0 .56228)">
     <path id="Fill-7" fill="#CDCDCD" d="m280.65 76.986c0 1.592-1.29 2.882-2.88 2.882s-2.88-1.29-2.88-2.882c0-1.593 1.29-2.883 2.88-2.883s2.88 1.29 2.88 2.883z"/>
     <path id="Fill-9" fill="#CDCDCD" d="m531.76 119.88c0 1.6-1.29 2.89-2.88 2.89s-2.88-1.29-2.88-2.89c0-1.59 1.29-2.88 2.88-2.88s2.88 1.29 2.88 2.88"/>
     <path id="Fill-11" fill="#CDCDCD" d="m540.03 249.96c0 1.59-1.29 2.88-2.88 2.88-1.6 0-2.89-1.29-2.89-2.88s1.29-2.89 2.89-2.89c1.59 0 2.88 1.3 2.88 2.89"/>
     <path id="Fill-13" fill="#CDCDCD" d="m388.73 314.82c0 1.59-1.3 2.88-2.89 2.88s-2.88-1.29-2.88-2.88 1.29-2.88 2.88-2.88 2.89 1.29 2.89 2.88"/>
     <path id="Fill-15" fill="#CDCDCD" d="m129.35 185.09c0 1.6-1.29 2.89-2.88 2.89s-2.88-1.29-2.88-2.89c0-1.59 1.29-2.88 2.88-2.88s2.88 1.29 2.88 2.88"/>
     <path id="Fill-17" fill="#CDCDCD" d="m136.76 293.88c0 1.59-1.29 2.89-2.88 2.89s-2.88-1.3-2.88-2.89 1.29-2.88 2.88-2.88 2.88 1.29 2.88 2.88"/>
     <path id="Fill-19" fill="#CDCDCD" d="m451.88 294.44c0 0.8-0.64 1.44-1.44 1.44s-1.44-0.64-1.44-1.44c0-0.79 0.64-1.44 1.44-1.44s1.44 0.65 1.44 1.44"/>
     <path id="Fill-21" fill="#CDCDCD" d="m495.36 206.71c0 0.8-0.65 1.44-1.44 1.44-0.8 0-1.44-0.64-1.44-1.44 0-0.79 0.64-1.44 1.44-1.44 0.79 0 1.44 0.65 1.44 1.44"/>
     <path id="Fill-23" fill="#CDCDCD" d="m365.67 76.986c0 0.796-0.65 1.441-1.44 1.441-0.8 0-1.44-0.645-1.44-1.441s0.64-1.441 1.44-1.441c0.79 0 1.44 0.645 1.44 1.441"/>
     <path id="Fill-25" fill="#CDCDCD" d="m192.88 120.44c0 0.8-0.64 1.44-1.44 1.44-0.79 0-1.44-0.64-1.44-1.44 0-0.79 0.65-1.44 1.44-1.44 0.8 0 1.44 0.65 1.44 1.44"/>
     <path id="Fill-27" fill="#CDCDCD" d="m171.14 185.09c0 0.8-0.65 1.44-1.44 1.44-0.8 0-1.44-0.64-1.44-1.44 0-0.79 0.64-1.44 1.44-1.44 0.79 0 1.44 0.65 1.44 1.44"/>
     <path id="Fill-29" fill="#CDCDCD" d="m279.21 337.44c0 0.8-0.64 1.44-1.44 1.44-0.79 0-1.44-0.64-1.44-1.44 0-0.79 0.65-1.44 1.44-1.44 0.8 0 1.44 0.65 1.44 1.44"/>
     <path id="Fill-31" fill="#E9541F" d="m367.05 160.99c0.02 0.01 0.03 0.02 0.04 0.03l-0.04 0.04c0.02 0.01 0.03 0.02 0.04 0.03l0.07-0.07c-0.03-0.02-0.05-0.05-0.07-0.07l-0.04 0.04z"/>
     <path id="Fill-33" fill="#E9541F" d="m274.94 252.44l-0.03-0.03 0.04-0.04c-0.02-0.01-0.03-0.02-0.04-0.03l-0.07 0.07c0.02 0.02 0.05 0.04 0.07 0.07l0.03-0.04z"/>
     <path id="Fill-35" fill="#E9541F" d="m367.02 161.02l0.03-0.03c-0.13-0.14-0.26-0.29-0.39-0.43l-0.05 0.05 0.41 0.41"/>
     <path id="Fill-37" fill="#E9541F" d="m367.09 161.02c-0.01-0.01-0.02-0.02-0.04-0.03l-0.03 0.03c0.01 0.01 0.02 0.03 0.03 0.04l0.04-0.04z"/>
     <path id="Fill-39" fill="#E9541F" d="m274.98 252.41l-0.03 0.03c0.13 0.14 0.26 0.29 0.39 0.43l0.05-0.05c-0.14-0.14-0.27-0.28-0.41-0.41"/>
     <path id="Fill-41" fill="#E9541F" d="m274.91 252.41l0.03 0.03 0.04-0.03-0.03-0.04-0.04 0.04z"/>
     <g id="Anthene" fill="#333">
      <path id="Fill-43" d="m321 18.838c-6.08 0-11.42 4.095-12.99 9.974-1.32 4.932 0.28 10.091 3.94 13.424l0.64-1.88c-2.77-2.887-3.93-7.064-2.85-11.079 1.36-5.103 5.98-8.644 11.26-8.644s9.89 3.541 11.26 8.644c1.08 4.016-0.08 8.194-2.85 11.081l0.64 1.878c3.66-3.333 5.26-8.492 3.94-13.424-1.57-5.879-6.91-9.974-12.99-9.974m0-8.9704c-10.14 0-19.03 6.8224-21.65 16.622-2.54 9.467 1.39 19.436 9.58 24.676l0.59-1.746c-7.29-4.885-10.74-13.892-8.44-22.467 2.41-9.023 10.58-15.289 19.92-15.289s17.5 6.266 19.92 15.289c2.3 8.575-1.15 17.582-8.44 22.467l0.59 1.748c8.19-5.24 12.12-15.21 9.58-24.678-2.62-9.8-11.51-16.622-21.65-16.622m0-8.9698c-15.74 0-29.06 11.684-31.12 27.297-1.72 13.103 4.93 25.582 16.1 31.667l0.59-1.726c-10.38-5.79-16.52-17.448-14.91-29.705 1.94-14.736 14.48-25.74 29.34-25.74 14.86 0.0004 27.4 11.004 29.34 25.74 1.61 12.257-4.54 23.915-14.91 29.705l0.58 1.726c11.18-6.085 17.83-18.564 16.11-31.667-2.06-15.613-15.38-27.297-31.12-27.297"/>
      <path id="Fill-45" d="m320.96 31.397c-0.37 0.017-0.69 0.259-0.81 0.609l-18.32 54.11h1.89l17.28-51.025 17.28 51.025h1.89l-18.32-54.11c-0.13-0.379-0.49-0.627-0.89-0.609"/>
      <path id="Fill-47" d="m332.66 64.593c0 0.328-0.19 0.627-0.48 0.783l-26.46 14.233-0.85-1.579 24.97-13.427-16.53-8.556 0.82-1.594 18.04 9.338c0.3 0.154 0.49 0.464 0.49 0.802"/>
      <path id="Fill-49" d="m336.95 77.714l-0.84 1.583-26.1-13.919c-0.44-0.233-0.61-0.777-0.37-1.213 0.08-0.161 0.22-0.293 0.38-0.376l18.19-9.389 0.83 1.594-16.68 8.605 24.59 13.115z"/>
      <mask id="mask-2" fill="white">
       <use xlink:href="#path-1"/>
      </mask>
      <polygon id="Fill-51" points="305.76 79.836 336.54 79.836 336.54 78.042 305.76 78.042" mask="url(#mask-2)"/>
      <polygon id="Fill-53" points="314.12 54.72 328.17 54.72 328.17 52.925 314.12 52.925" mask="url(#mask-2)"/>
      <path id="Fill-54" mask="url(#mask-2)" d="m321 28.706c1.98 0 3.59 1.606 3.59 3.588 0 1.983-1.61 3.588-3.59 3.588s-3.59-1.605-3.59-3.588c0-1.982 1.61-3.588 3.59-3.588"/>
     </g>
     <g id="Fridge" fill="#333" transform="translate(550 84)">
      <path id="Fill-55" d="m47.376 10.557c0-2.1834-0.224-3.7628-0.634-4.8558s-0.957-1.7099-1.788-2.1681c-1.66-0.9163-4.715-0.9968-9.236-1.0491h-21.511c-4.5273 0.0523-7.5843 0.1323-9.2453 1.0491-0.8316 0.4582-1.3802 1.0751-1.7904 2.1681-0.4096 1.093-0.6324 2.6724-0.6324 4.8558v64.587c0 2.185 0.2228 3.762 0.6324 4.855 0.4102 1.093 0.9588 1.711 1.7904 2.17 1.6593 0.916 4.7146 0.996 9.2343 1.049h21.512c4.531-0.053 7.586-0.133 9.246-1.049 0.831-0.459 1.378-1.077 1.788-2.17s0.634-2.67 0.634-4.855v-64.587zm1.793 64.587c0 2.301-0.217 4.071-0.747 5.486-0.531 1.413-1.425 2.458-2.601 3.107-2.355 1.3-5.575 1.221-10.093 1.274h-21.537c-4.5226-0.053-7.7433 0.026-10.098-1.274-1.176-0.649-2.0718-1.694-2.6029-3.107-0.52947-1.415-0.74554-3.185-0.74554-5.486v-64.587c0-2.3011 0.21607-4.0723 0.74554-5.4868 0.5311-1.4138 1.4269-2.459 2.6034-3.1085 2.3542-1.2991 5.5749-1.2192 10.092-1.2715l21.538 0.00001c4.522 0.05234 7.742-0.02758 10.097 1.2715 1.176 0.6495 2.07 1.6947 2.601 3.1085 0.53 1.4145 0.747 3.1857 0.747 5.4868v64.587z"/>
      <polygon id="Fill-56" points="1.6422 31.19 47.376 31.19 47.376 29.395 1.6422 29.395"/>
      <polygon id="Fill-57" points="9.7126 23.116 7.9183 23.116 7.9183 14.145 9.7126 13.697"/>
      <polygon id="Fill-58" points="9.7126 50.027 7.9183 50.027 7.9183 37.468 9.7126 37.02"/>
     </g>
     <path id="Fill-59" fill="#333" d="m575.82 304.82c0.02 0.02 0.04 0.04 0.05 0.06 0.02 0.02 0.03 0.05 0.05 0.07l-0.1-0.13z"/>
     <path id="Fill-60" fill="#333" d="m532.03 303.04l-0.1 0.13c0.02-0.03 0.03-0.05 0.05-0.08 0.01-0.02 0.03-0.03 0.05-0.05"/>
     <g id="Group-5" fill="#333" transform="translate(532 269)">
      <path id="Fill-61" d="m83.298 32.342v-21.529c0-2.1842-0.224-3.7635-0.634-4.856-0.41-1.0936-0.958-1.7099-1.788-2.1686-1.66-0.9163-4.715-0.9963-9.237-1.0486h-57.38c-4.5274 0.0523-7.5844 0.1317-9.2453 1.0486-0.8317 0.4587-1.3803 1.075-1.7899 2.1686-0.4102 1.0925-0.633 2.6718-0.633 4.856v21.529c0 2.185 0.2228 3.763 0.633 4.856 0.4096 1.093 0.9582 1.709 1.7899 2.169 1.6593 0.916 4.7145 0.997 9.2353 1.048h0.01 57.37 0.01c4.522-0.051 7.577-0.132 9.237-1.048 0.83-0.46 1.378-1.076 1.788-2.169s0.634-2.671 0.634-4.856zm1.793 0c0 2.301-0.218 4.071-0.747 5.486-0.531 1.413-1.424 2.458-2.601 3.107-2.355 1.301-5.574 1.222-10.092 1.274h-0.006-57.403-0.005c-4.5167-0.052-7.7362 0.027-10.092-1.274-1.1766-0.649-2.0713-1.694-2.6024-3.107-0.5295-1.415-0.74555-3.185-0.74555-5.486v-21.529c0-2.3018 0.21605-4.0731 0.74555-5.4881 0.5311-1.4127 1.4258-2.4568 2.6029-3.1069 2.3553-1.3007 5.5748-1.2196 10.092-1.272l0.004 0.00001h57.403 0.006c4.518 0.05234 7.737-0.02871 10.092 1.272 1.177 0.6501 2.07 1.6942 2.601 3.1069 0.529 1.415 0.747 3.1863 0.747 5.4881v21.529z"/>
      <path id="Fill-62" d="m16.042 12.607c1.484 0 2.689 1.206 2.689 2.691 0 1.486-1.205 2.692-2.689 2.692-1.486 0-2.69-1.206-2.69-2.692 0-1.485 1.204-2.691 2.69-2.691"/>
      <polygon id="Fill-63" points="13.352 23.372 13.352 25.166 10.661 25.166 10.661 32.342 21.422 32.342 21.422 25.166 18.732 25.166 18.732 23.372"/>
      <polygon id="Fill-64" points="31.286 23.372 31.286 25.166 28.595 25.166 28.595 32.342 39.356 32.342 39.356 25.166 36.666 25.166 36.666 23.372"/>
      <polygon id="Fill-65" points="49.221 23.372 49.221 25.166 46.531 25.166 46.531 32.342 57.292 32.342 57.292 25.166 54.602 25.166 54.602 23.372"/>
      <polygon id="Fill-66" points="67.156 23.372 67.156 25.166 64.466 25.166 64.466 32.342 75.227 32.342 75.227 25.166 72.536 25.166 72.536 23.372"/>
      <path id="Fill-67" d="m33.976 12.607c1.486 0 2.69 1.206 2.69 2.691 0 1.486-1.204 2.692-2.69 2.692-1.485 0-2.69-1.206-2.69-2.692 0-1.485 1.205-2.691 2.69-2.691"/>
      <path id="Fill-68" d="m51.911 12.607c1.485 0 2.69 1.206 2.69 2.691 0 1.486-1.205 2.692-2.69 2.692-1.486 0-2.69-1.206-2.69-2.692 0-1.485 1.204-2.691 2.69-2.691"/>
      <path id="Fill-69" d="m69.846 12.607c1.485 0 2.69 1.206 2.69 2.691 0 1.486-1.205 2.692-2.69 2.692s-2.69-1.206-2.69-2.692c0-1.485 1.205-2.691 2.69-2.691"/>
      <polygon id="Fill-70" points="10.661 44.003 21.528 44.003 21.528 40.415 10.661 40.415"/>
      <polygon id="Fill-71" points="64.466 44.003 75.332 44.003 75.332 40.415 64.466 40.415"/>
     </g>
     <g id="Server" fill="#333" transform="translate(280 321)">
      <path id="Fill-72" d="m60.878 64.381c0.013 0.021 0.037 0.032 0.051 0.051 0.016 0.024 0.027 0.052 0.045 0.074l-0.096-0.125z"/>
      <path id="Fill-73" d="m75.767 60.898v-3.588c0-2.185-0.224-3.764-0.634-4.857-0.41-1.092-0.958-1.708-1.788-2.167-1.66-0.917-4.714-0.999-9.236-1.049h-50.207c-4.5264 0.05-7.5845 0.13-9.2444 1.049-0.8322 0.459-1.3813 1.075-1.7904 2.167-0.4107 1.093-0.633 2.672-0.633 4.857v3.588c0 2.183 0.2223 3.763 0.633 4.856 0.4091 1.093 0.9582 1.71 1.7904 2.168 1.6587 0.916 4.714 0.996 9.2334 1.05h0.011 50.196 0.011c4.522-0.054 7.576-0.134 9.236-1.05 0.83-0.458 1.378-1.075 1.788-2.168s0.634-2.673 0.634-4.856zm1.794 0c0 2.3-0.219 4.072-0.748 5.487-0.531 1.413-1.425 2.458-2.602 3.108-2.354 1.301-5.573 1.219-10.09 1.272h-0.007-50.228-0.006c-4.5163-0.053-7.737 0.028-10.091-1.272-1.1772-0.65-2.0719-1.695-2.603-3.108-0.52949-1.415-0.74612-3.187-0.74612-5.487v-3.588c0-2.302 0.21663-4.072 0.74612-5.485 0.5311-1.414 1.4258-2.461 2.6029-3.11 2.3541-1.3 5.5748-1.22 10.091-1.271h0.006 50.228 0.007c4.517 0.051 7.736-0.029 10.09 1.271 1.177 0.649 2.071 1.696 2.602 3.11 0.529 1.413 0.748 3.183 0.748 5.485v3.588z"/>
      <polygon id="Fill-74" points="59.625 48.401 61.419 48.401 61.419 17.841 59.625 17.841"/>
      <polygon id="Fill-75" points="58.727 48.341 62.315 48.341 62.315 35.781 58.727 35.781"/>
      <path id="Fill-76" d="m60.522 56.413c1.485 0 2.69 1.206 2.69 2.691 0 1.486-1.205 2.692-2.69 2.692-1.486 0-2.69-1.206-2.69-2.692 0-1.485 1.204-2.691 2.69-2.691"/>
      <path id="Fill-77" d="m52.451 56.413c1.486 0 2.69 1.206 2.69 2.691 0 1.486-1.204 2.692-2.69 2.692s-2.69-1.206-2.69-2.692c0-1.485 1.204-2.691 2.69-2.691"/>
      <path id="Fill-78" d="m44.38 56.413c1.486 0 2.691 1.206 2.691 2.691 0 1.486-1.205 2.692-2.691 2.692-1.485 0-2.69-1.206-2.69-2.692 0-1.485 1.205-2.691 2.69-2.691"/>
      <path id="Fill-79" d="m53.038 28.132c-5.496-5.674-5.496-14.907 0-20.581l1.711 1.6564c-4.609 4.7606-4.609 12.507 0 17.268l-1.711 1.657z"/>
      <path id="Fill-80" d="m46.46 34.926c-9.124-9.42-9.124-24.749 0-34.17l1.709 1.6581c-8.237 8.5069-8.237 22.348 0 30.854l-1.709 1.658z"/>
      <path id="Fill-81" d="m68.006 28.132l-1.711-1.657c4.61-4.761 4.61-12.507 0-17.268l1.711-1.656c5.496 5.674 5.496 14.907 0 20.581"/>
      <path id="Fill-82" d="m74.584 34.926l-1.711-1.658c8.239-8.506 8.239-22.347 0-30.854l1.711-1.6581c9.123 9.4211 9.123 24.75 0 34.17"/>
     </g>
     <polygon id="Fill-83" points="377 207.05 493.74 207.05 493.74 206.37 377 206.37" fill="#CDCDCD"/>
     <polygon id="Fill-84" points="147.98 207.05 267 207.05 267 206.37 147.98 206.37" fill="#CDCDCD"/>
     <polygon id="Fill-85" points="359 167.46 359.54 168 407.54 120.54 407 120.01" fill="#CDCDCD"/>
     <polygon id="Fill-86" points="282.86 245.82 282.32 245.29 234.32 292.74 234.86 293.28" fill="#CDCDCD"/>
     <g id="Robot" fill="#333" transform="translate(52 84)">
      <path id="Fill-87" d="m55.723 44.422h-53.758l0.0003-13.105c0-8.702 2.6034-8.731 12.292-8.841l28.712-0.005 0.465 0.005c9.686 0.11 12.289 0.139 12.289 8.841v13.105zm-12.267-23.761l-28.757-0.006-0.464 0.006c-9.377 0.106-14.085 0.159-14.085 10.656l0.00014 14.921h57.388v-14.921c0-10.497-4.706-10.55-14.082-10.656z"/>
      <path id="Fill-88" d="m15.913 15.035l-0.208 0.193 1.307 1.303 0.193-0.178c3.214-2.981 7.347-4.622 11.639-4.622 4.295 0 8.429 1.641 11.642 4.622l0.192 0.179 1.305-1.304-0.207-0.193c-3.563-3.321-8.155-5.1505-12.932-5.1505-4.778 0-9.371 1.8295-12.931 5.1505"/>
      <path id="Fill-89" d="m10.792 9.9172c4.931-4.6941 11.342-7.2798 18.052-7.2798 6.711 0 13.123 2.5857 18.053 7.2798l0.194 0.1838 1.305-1.3033-0.202-0.1942c-5.281-5.0357-12.153-7.8105-19.35-7.8105-7.198-0.00002-14.069 2.7748-19.349 7.8105l-0.203 0.1942 1.307 1.3033 0.193-0.1838z"/>
      <polygon id="Fill-90" points="18.185 42.318 19.998 42.318 19.998 35.064 18.185 35.608"/>
      <polygon id="Fill-91" points="37.69 42.318 39.503 42.318 39.503 35.064 37.69 35.608"/>
      <path id="Fill-92" d="m1.965 53.711h53.758v13.103c0 8.703-2.603 8.733-12.291 8.841l-28.711 0.007-0.465-0.007c-9.6875-0.108-12.291-0.138-12.291-8.841v-13.103zm40.761 23.869c-1.722 2.807-5.813 7.513-13.88 7.513s-12.161-4.709-13.885-7.517l-0.063-0.103 27.891 0.004-0.063 0.103zm-39.425-1.762c2.1292 1.417 5.4146 1.576 9.4887 1.637h0.04l0.019 0.035c1.539 2.832 6.18 9.418 15.997 9.418 4.285 0 8.06-1.266 11.221-3.763 2.594-2.048 4.105-4.422 4.774-5.655l0.019-0.035h0.04c4.073-0.061 7.358-0.22 9.487-1.637 2.18-1.45 3.151-4.227 3.151-9.004v-14.919h-57.388l0.00043 14.919c0 4.777 0.97167 7.554 3.1509 9.004z"/>
      <polygon id="Fill-93" points="18.185 49.971 39.503 49.971 39.503 48.156 18.185 48.156"/>
     </g>
     <g id="Drone" fill="#333" transform="translate(45 255)">
      <path id="Fill-94" d="m53.876 40.062c7.93 0 14.347 6.419 14.347 14.353s-6.417 14.353-14.347 14.353c-7.932 0-14.348-6.419-14.348-14.353s6.416-14.353 14.348-14.353m-37.664 0c7.931 0 14.348 6.419 14.348 14.353s-6.417 14.353-14.348 14.353c-7.9309 0-14.348-6.419-14.348-14.353s6.4171-14.353 14.348-14.353m37.664-1.794c-8.904 0-16.142 7.244-16.142 16.147s7.238 16.146 16.142 16.146c8.902 0 16.141-7.243 16.141-16.146s-7.239-16.147-16.141-16.147m-37.664 0c-8.9026 0-16.141 7.244-16.141 16.147-0.000255 8.903 7.2384 16.146 16.141 16.146 8.903 0 16.141-7.243 16.141-16.146s-7.238-16.147-16.141-16.147m37.664-35.881c7.93 0 14.347 6.4192 14.347 14.353 0 7.934-6.417 14.353-14.347 14.353-7.932 0-14.348-6.419-14.348-14.353 0-7.9336 6.416-14.353 14.348-14.353m-37.664 0.0002c7.931 0 14.348 6.4192 14.348 14.353 0 7.934-6.417 14.353-14.348 14.353-7.9309 0-14.348-6.419-14.348-14.353 0-7.9336 6.4171-14.353 14.348-14.353m37.664-1.7936c-8.904 0-16.142 7.2432-16.142 16.147 0 8.903 7.238 16.147 16.142 16.147 8.902 0 16.141-7.244 16.141-16.147 0-8.9034-7.239-16.147-16.141-16.147m-37.664 0.00041c-8.9026 0-16.141 7.2432-16.141 16.147-0.000255 8.903 7.2384 16.147 16.141 16.147 8.903 0 16.141-7.244 16.141-16.147 0-8.9034-7.238-16.147-16.141-16.147"/>
      <path id="Fill-95" d="m15.315 15.843v3.119c0.053 0.038 0.107 0.077 0.158 0.117 2.259 1.813 4.009 4.08 5.249 6.798 1.24 2.759 1.862 5.994 1.862 9.701 0 3.706-0.622 6.921-1.862 9.639-1.24 2.762-2.99 5.024-5.249 6.795-0.051 0.043-0.106 0.079-0.158 0.121v3.179h3.118c0.039-0.053 0.077-0.107 0.117-0.157 1.811-2.26 4.078-4.011 6.796-5.252 2.759-1.241 5.992-1.862 9.698-1.862s6.919 0.621 9.636 1.862c2.76 1.241 5.023 2.992 6.794 5.252 0.042 0.05 0.079 0.105 0.12 0.157h3.178v-3.179c-0.053-0.042-0.106-0.078-0.157-0.121-2.261-1.771-4.01-4.033-5.249-6.795-1.241-2.718-1.863-5.933-1.863-9.639 0-3.707 0.622-6.942 1.863-9.701 1.239-2.718 2.988-4.985 5.249-6.798 0.051-0.04 0.104-0.079 0.157-0.117v-3.119h-3.178c-0.041 0.053-0.078 0.106-0.12 0.157-1.771 2.261-4.034 4.011-6.794 5.251-2.717 1.241-5.93 1.863-9.636 1.863s-6.939-0.622-9.698-1.863c-2.718-1.24-4.985-2.99-6.796-5.251-0.04-0.051-0.078-0.104-0.117-0.157h-3.118z"/>
      <path id="Fill-96" d="m53.876 14.049c1.485 0 2.69 1.206 2.69 2.691s-1.205 2.691-2.69 2.691c-1.486 0-2.691-1.206-2.691-2.691s1.205-2.691 2.691-2.691"/>
      <path id="Fill-97" d="m53.876 51.724c1.485 0 2.69 1.205 2.69 2.691 0 1.487-1.205 2.692-2.69 2.692-1.486 0-2.691-1.205-2.691-2.692 0-1.486 1.205-2.691 2.691-2.691"/>
      <path id="Fill-98" d="m16.212 14.049c1.485 0 2.691 1.206 2.691 2.691s-1.206 2.691-2.691 2.691-2.69-1.206-2.69-2.691 1.205-2.691 2.69-2.691"/>
      <path id="Fill-99" d="m16.212 51.724c1.485 0 2.691 1.205 2.691 2.691 0 1.487-1.206 2.692-2.691 2.692s-2.69-1.205-2.69-2.692c0-1.486 1.205-2.691 2.69-2.691"/>
     </g>
    </g>
    <polygon id="Fill-1" points="277.53 337.25 126.23 185.9 126.71 185.41 278.01 336.76" fill="#CDCDCD"/>
    <polygon id="Fill-2" points="536.9 250.76 363.99 77.789 364.47 77.307 537.39 250.28" fill="#CDCDCD"/>
    <polygon id="Fill-3" points="169.94 185.9 169.46 185.41 277.53 77.307 278.01 77.788" fill="#CDCDCD"/>
    <polygon id="Fill-4" points="386.08 315.62 385.6 315.14 493.68 207.04 494.16 207.52" fill="#CDCDCD"/>
    <polygon id="Fill-5" points="191.31 121.13 531.31 121.13 531.31 120.45 191.31 120.45" fill="#CDCDCD"/>
    <polygon id="Fill-6" transform="translate(291.34 294.9) scale(1 -1) translate(-291.34 -294.9)" points="132 295.07 450.69 295.07 450.69 294.4 132 294.4" fill="#CDCDCD"/>
    <g id="Group-4" transform="translate(257 144)">
     <path id="Fill-2" fill="#DD4814" d="m56.497 0.30252c31.074 0 56.263 25.209 56.263 56.306s-25.189 56.311-56.263 56.311c-31.073 0-56.265-25.214-56.265-56.311-0.00002-31.097 25.192-56.306 56.265-56.306"/>
     <path id="Fill-3" fill="#fff" d="m71.87 29.957c3.595 2.076 8.187 0.847 10.26-2.75 2.075-3.595 0.846-8.192-2.747-10.268-3.595-2.075-8.187-0.843-10.263 2.754-2.073 3.593-0.839 8.188 2.75 10.264zm-15.373 48.612c-3.302 0-6.435-0.736-9.241-2.045l-5.218 9.361c4.358 2.161 9.269 3.383 14.459 3.383 3.023 0 5.942-0.42 8.718-1.189 0.49-3.022 2.281-5.803 5.138-7.453 2.854-1.648 6.151-1.81 9.006-0.731 5.558-5.466 9.17-12.902 9.699-21.183l-10.707-0.157c-0.987 11.221-10.391 20.014-21.854 20.014zm0-43.921c11.463 0 20.87 8.797 21.854 20.012l10.704-0.157c-0.529-8.281-4.142-15.715-9.697-21.183-2.857 1.081-6.156 0.915-9.008-0.729-2.856-1.65-4.647-4.433-5.136-7.454-2.777-0.767-5.699-1.187-8.72-1.187-5.192 0-10.103 1.221-14.461 3.38l5.219 9.362c2.81-1.308 5.941-2.044 9.245-2.044zm-21.942 21.961c0-7.427 3.688-13.992 9.33-17.966l-5.492-9.206c-6.572 4.397-11.459 11.114-13.494 18.984 2.371 1.935 3.889 4.883 3.889 8.188 0 3.302-1.518 6.25-3.889 8.187 2.031 7.871 6.92 14.59 13.494 18.986l5.492-9.208c-5.642-3.972-9.33-10.534-9.33-17.965zm37.316 26.649c-3.592 2.077-4.824 6.671-2.749 10.266 2.074 3.597 6.666 4.828 10.261 2.752 3.593-2.076 4.824-6.671 2.748-10.266-2.074-3.594-6.667-4.828-10.26-2.752zm-53.633-34.168c-4.15 0-7.514 3.366-7.514 7.519 0 4.152 3.364 7.518 7.514 7.518s7.514-3.366 7.514-7.518c-0.002-4.153-3.364-7.519-7.514-7.519z"/>
    </g>
   </g>
  </g>
 </g>
</svg>
