<?xml version="1.0" encoding="UTF-8" standalone="no"?>
<!-- Created with Inkscape (http://www.inkscape.org/) -->
<svg id="svg2" xmlns:rdf="http://www.w3.org/1999/02/22-rdf-syntax-ns#" xmlns="http://www.w3.org/2000/svg" xml:space="preserve" height="136.13" viewBox="0 0 514.73334 136.13333" width="514.73" version="1.1" xmlns:cc="http://creativecommons.org/ns#" xmlns:dc="http://purl.org/dc/elements/1.1/"><metadata id="metadata8"><rdf:RDF><cc:Work rdf:about=""><dc:format>image/svg+xml</dc:format><dc:type rdf:resource="http://purl.org/dc/dcmitype/StillImage"/><dc:title/></cc:Work></rdf:RDF></metadata><g id="g10" transform="matrix(1.3333 0 0 -1.3333 0 136.13)" fill="#232e4a"><path id="path14" d="m21.841 89.509c0-6.232-4.89-11.285-10.921-11.285-6.0302 0-10.92 5.053-10.92 11.285 0 6.2312 4.8898 11.286 10.92 11.286 6.0313 0 10.921-5.0544 10.921-11.286"/><path id="path16" d="m21.841 51.051c0-6.232-4.89-11.285-10.921-11.285-6.0302 0-10.92 5.053-10.92 11.285 0 6.2324 4.8898 11.285 10.92 11.285 6.0313 0 10.921-5.0527 10.921-11.285"/><path id="path18" d="m21.841 12.593c0-6.2313-4.89-11.285-10.921-11.285-6.0302-0.0002-10.92 5.0537-10.92 11.285 0 6.2312 4.8898 11.285 10.92 11.285 6.0313 0 10.921-5.0539 10.921-11.285"/><path id="path20" d="m59.947 51.051c0-6.2324-4.8899-11.285-10.921-11.285-6.0305 0-10.92 5.0528-10.92 11.285 0 6.2324 4.8898 11.285 10.92 11.285 6.0308 0 10.921-5.0527 10.921-11.285"/><path id="path22" d="m59.947 89.509c0-6.2324-4.8899-11.285-10.921-11.285-6.0305 0-10.92 5.0528-10.92 11.285 0 6.2312 4.8898 11.286 10.92 11.286 6.0308 0 10.921-5.0544 10.921-11.286"/><path id="path24" d="m98.054 51.051c0-6.2324-4.8894-11.285-10.921-11.285-6.0305 0-10.92 5.0528-10.92 11.285 0 6.2324 4.8894 11.285 10.92 11.285 6.0313 0 10.921-5.0527 10.921-11.285"/><path id="path26" d="m98.054 89.509c0-6.2324-4.8894-11.285-10.921-11.285-6.0305 0-10.92 5.0528-10.92 11.285 0 6.2312 4.8894 11.286 10.92 11.286 6.0313 0 10.921-5.0544 10.921-11.286"/><path id="path28" d="m98.054 12.593c0-6.2317-4.8894-11.286-10.921-11.286-6.0305 0-10.92 5.0539-10.92 11.286 0 6.2312 4.8894 11.285 10.92 11.285 6.0313 0 10.921-5.0539 10.921-11.285"/><path id="path30" d="m59.947 12.593c0-6.2317-4.8899-11.286-10.921-11.286-6.0305 0-10.92 5.0539-10.92 11.286 0 6.2312 4.8898 11.285 10.92 11.285 6.0308 0 10.921-5.0539 10.921-11.285"/><path id="path32" d="m171.61 86.548h-27.91v-31.819h27.915c9.579 0 16.284 5.0914 16.284 15.839 0 10.323-6.568 15.98-16.284 15.98zm9.72-44.546 19.57-40.446h-16.56l-19.02 39.172h-21.62v-39.172h-14.1v98.994h42.009c16.695 0 30.789-9.1927 30.789-29.557 0-15.839-8.073-25.596-21.073-28.991"/><path id="path34" d="m260.56 87.256c-16.695 0-25.863-14-25.863-36.203s9.168-36.203 25.863-36.203c16.832 0 26 14 26 36.203s-9.168 36.203-26 36.203zm0-87.256c-24.768 0-40.505 21.072-40.505 51.052s15.737 51.052 40.505 51.052c24.905 0 40.641-21.071 40.641-51.052 0-29.976-15.73-51.048-40.64-51.048"/><path id="path36" d="m350.61 0c-13.959 0-26 6.2223-34.074 15.98l10.264 10.324c6.431-7.2129 15.873-11.738 24.904-11.738 13.41 0 19.842 4.8086 19.842 14.425 0 7.6367-5.609 11.455-21.621 16.406-20.252 6.2215-29.967 11.454-29.967 29.131 0 17.112 13.957 27.577 31.609 27.577 13 0 22.852-4.9497 31.336-13.434l-10.12-10.608c-6.021 6.3641-12.863 9.4754-22.304 9.4754-11.223 0-16.012-5.657-16.012-12.304 0-6.9297 4.379-10.324 20.937-15.414 18.88-5.94 30.65-12.162 30.65-29.839 0-17.819-10.95-29.981-35.44-29.981"/></g></svg>
