<svg xmlns="http://www.w3.org/2000/svg" viewBox="0 0 332.04 330"><defs><style>.cls-1{fill:#e95420;}</style></defs><title>Asset 1</title><g id="Layer_2" data-name="Layer 2"><g id="Web:_984x442px" data-name="Web: 984x442px"><path class="cls-1" d="M29,315.26q-2.09.58-5.61,1.29a44,44,0,0,1-8.63.72,17.48,17.48,0,0,1-7-1.22,11.31,11.31,0,0,1-4.53-3.45,13.94,13.94,0,0,1-2.48-5.39,30,30,0,0,1-.76-7V279.39H4.67v19.34a33,33,0,0,0,.58,6.69,10.85,10.85,0,0,0,1.87,4.42,7.3,7.3,0,0,0,3.34,2.45,14.55,14.55,0,0,0,5,.75,40,40,0,0,0,5.75-.36A15.53,15.53,0,0,0,24.3,312V279.39H29Z"/><path class="cls-1" d="M43.25,281.62a16.64,16.64,0,0,1,3.92-2,17.62,17.62,0,0,1,6.36-1A17,17,0,0,1,60.68,280a14.87,14.87,0,0,1,5.28,4,17.77,17.77,0,0,1,3.27,6.15,26,26,0,0,1,1.11,7.8A23.29,23.29,0,0,1,69,306.13a17.47,17.47,0,0,1-3.74,6.11,16.11,16.11,0,0,1-5.75,3.85,20,20,0,0,1-7.44,1.33,42.94,42.94,0,0,1-8.2-.65,41.86,41.86,0,0,1-5.32-1.37V261.63l4.67-.86Zm0,30.55a21,21,0,0,0,3.2.68,38.27,38.27,0,0,0,5.57.32,12.67,12.67,0,0,0,9.71-3.92q3.67-3.92,3.67-11.25a25.67,25.67,0,0,0-.65-5.86,13.75,13.75,0,0,0-2.08-4.82,10.43,10.43,0,0,0-3.77-3.27,12.39,12.39,0,0,0-5.79-1.22,15,15,0,0,0-3.16.32,18.14,18.14,0,0,0-2.8.83,15.51,15.51,0,0,0-2.27,1.08,16.28,16.28,0,0,0-1.62,1.08Z"/><path class="cls-1" d="M106.6,315.26q-2.09.58-5.61,1.29a44,44,0,0,1-8.63.72,17.48,17.48,0,0,1-7-1.22,11.31,11.31,0,0,1-4.53-3.45,14,14,0,0,1-2.48-5.39,30,30,0,0,1-.76-7V279.39h4.67v19.34a33,33,0,0,0,.58,6.69,10.85,10.85,0,0,0,1.87,4.42,7.3,7.3,0,0,0,3.34,2.45,14.55,14.55,0,0,0,5,.75,40,40,0,0,0,5.75-.36,15.55,15.55,0,0,0,3.09-.65V279.39h4.67Z"/><path class="cls-1" d="M116.2,280.68q2.08-.57,5.61-1.29a43.94,43.94,0,0,1,8.63-.72,18,18,0,0,1,7.08,1.22,10.88,10.88,0,0,1,4.53,3.49,14.26,14.26,0,0,1,2.41,5.43,31.6,31.6,0,0,1,.72,7v20.78H140.5V297.29a35.29,35.29,0,0,0-.54-6.69,11.18,11.18,0,0,0-1.8-4.46,7,7,0,0,0-3.31-2.48,15,15,0,0,0-5.14-.76,39.23,39.23,0,0,0-5.71.36,17.77,17.77,0,0,0-3.13.65v32.64H116.2Z"/><path class="cls-1" d="M158.85,279.39h14.81v4H158.85v19.77a20.08,20.08,0,0,0,.54,5.14,7.18,7.18,0,0,0,1.54,3.06,4.9,4.9,0,0,0,2.44,1.44,13,13,0,0,0,3.16.36,13.64,13.64,0,0,0,4.75-.68,20.5,20.5,0,0,0,2.8-1.26l1.15,3.88a16.91,16.91,0,0,1-3.52,1.47,17.42,17.42,0,0,1-5.46.83,16.2,16.2,0,0,1-5.79-.9,8.34,8.34,0,0,1-3.74-2.73,11.21,11.21,0,0,1-2-4.57,31.74,31.74,0,0,1-.58-6.47V268.46l4.67-.86Z"/><path class="cls-1" d="M208.46,315.26q-2.09.58-5.61,1.29a44,44,0,0,1-8.63.72,17.48,17.48,0,0,1-7-1.22,11.32,11.32,0,0,1-4.53-3.45,14,14,0,0,1-2.48-5.39,30.08,30.08,0,0,1-.75-7V279.39h4.67v19.34a32.93,32.93,0,0,0,.58,6.69,10.84,10.84,0,0,0,1.87,4.42,7.29,7.29,0,0,0,3.34,2.45,14.55,14.55,0,0,0,5,.75,40,40,0,0,0,5.75-.36,15.6,15.6,0,0,0,3.09-.65V279.39h4.67Z"/><path class="cls-1" d="M227,330a11.39,11.39,0,0,1-2-.22,7,7,0,0,1-1.76-.5l.65-3.81a13.06,13.06,0,0,0,1.37.29,10.09,10.09,0,0,0,1.65.14q4.24,0,5.64-2.37t1.4-7.12v-37h4.67V316.2q0,7-2.66,10.42T227,330Z"/><path class="cls-1" d="M259.17,278.52a16.5,16.5,0,0,1,6.22,1,10.69,10.69,0,0,1,4.13,2.88,11.35,11.35,0,0,1,2.3,4.35,19.85,19.85,0,0,1,.72,5.46v23.44q-.72.21-2.08.47t-3.16.54q-1.8.29-4,.47t-4.49.18a21.46,21.46,0,0,1-5.43-.65,12,12,0,0,1-4.31-2,9.64,9.64,0,0,1-2.88-3.59,12.41,12.41,0,0,1-1-5.36,10.87,10.87,0,0,1,1.15-5.18,9.8,9.8,0,0,1,3.24-3.56,14.53,14.53,0,0,1,5-2,28.44,28.44,0,0,1,6.25-.65q1,0,2.12.11t2.16.29c.69.12,1.29.24,1.8.36a5.59,5.59,0,0,1,1,.32V293a24.5,24.5,0,0,0-.29-3.78,8.28,8.28,0,0,0-1.26-3.31,7,7,0,0,0-2.73-2.37,10.23,10.23,0,0,0-4.64-.9,24,24,0,0,0-6.11.57q-2,.57-2.95.93l-.65-4.1A17.38,17.38,0,0,1,253,279,32.41,32.41,0,0,1,259.17,278.52Zm.43,34.65q2.73,0,4.78-.18a33.08,33.08,0,0,0,3.49-.47V299.45a14.43,14.43,0,0,0-2.52-.76,22.41,22.41,0,0,0-4.75-.39,26.93,26.93,0,0,0-3.59.25,10.38,10.38,0,0,0-3.45,1.08,7.17,7.17,0,0,0-2.59,2.27,6.51,6.51,0,0,0-1,3.81,8.16,8.16,0,0,0,.68,3.52,5.68,5.68,0,0,0,1.94,2.3,8.56,8.56,0,0,0,3,1.26A18.27,18.27,0,0,0,259.6,313.18Z"/><path class="cls-1" d="M281.93,280.68q2.08-.57,5.43-1.29a42.5,42.5,0,0,1,8.66-.72q7,0,10.21,4.1c.24-.19.71-.51,1.4-1a19.7,19.7,0,0,1,2.62-1.4,20.19,20.19,0,0,1,3.7-1.22,20.45,20.45,0,0,1,4.71-.5,16,16,0,0,1,6.87,1.26,9.6,9.6,0,0,1,4.06,3.52,14.18,14.18,0,0,1,1.94,5.43,44.12,44.12,0,0,1,.5,6.9v20.78h-4.67V297.29a54.19,54.19,0,0,0-.32-6.36,12.25,12.25,0,0,0-1.29-4.46,6.33,6.33,0,0,0-2.77-2.66,10.47,10.47,0,0,0-4.67-.9,18,18,0,0,0-3.92.39,16.57,16.57,0,0,0-3.05,1,13.11,13.11,0,0,0-2.12,1.15q-.83.58-1.19.86a22.17,22.17,0,0,1,1,4.2,35.91,35.91,0,0,1,.32,4.93v21.13h-4.67V297.29a54.21,54.21,0,0,0-.32-6.36,11.81,11.81,0,0,0-1.33-4.46,6.5,6.5,0,0,0-2.84-2.66,11.1,11.1,0,0,0-4.85-.9,38.31,38.31,0,0,0-5.71.36,15.24,15.24,0,0,0-3,.65v32.64h-4.67Z"/><path class="cls-1" d="M166,2a115.3,115.3,0,0,1,81.53,196.84A115.3,115.3,0,0,1,84.49,35.76,114.55,114.55,0,0,1,166,2m0-2A117.29,117.29,0,1,0,283.31,117.29,117.29,117.29,0,0,0,166,0Z"/><path class="cls-1" d="M90.06,104.19A13.1,13.1,0,1,1,77,117.29a13.11,13.11,0,0,1,13.1-13.09m0-2a15.08,15.08,0,1,0,15.08,15.08,15.08,15.08,0,0,0-15.08-15.08Z"/><path class="cls-1" d="M204,168v2a13.1,13.1,0,1,1-6.53,1.76A13.15,13.15,0,0,1,204,170v-2m0,0a15.08,15.08,0,1,0,13.07,7.54A15,15,0,0,0,204,168Z"/><path class="cls-1" d="M204,38.41h0A13.09,13.09,0,1,1,192.66,45,13.09,13.09,0,0,1,204,38.41m0-2a15.08,15.08,0,1,0,7.52,2,15.07,15.07,0,0,0-7.52-2Z"/><path class="cls-1" d="M166,54.48a63,63,0,0,1,15.29,1.88,23.19,23.19,0,0,0,29.82,17.23,62.67,62.67,0,0,1,17.4,37.6l-17.89.28a45,45,0,0,0-61.88-35.73L140,60.09a62.15,62.15,0,0,1,26-5.61m0-2a64.51,64.51,0,0,0-28.74,6.71L147.9,78.28a43,43,0,0,1,61,35.2l21.82-.34a64.58,64.58,0,0,0-19-41.84A21.35,21.35,0,0,1,204,72.73a21.22,21.22,0,0,1-20.94-18,64.84,64.84,0,0,0-17-2.26Z"/><path class="cls-1" d="M129.48,66.21l9.19,15.36a45,45,0,0,0,0,71.45l-9.19,15.36a62.78,62.78,0,0,1-23.87-33.86,23.19,23.19,0,0,0,0-34.45,62.77,62.77,0,0,1,23.87-33.86m.61-2.84a64.89,64.89,0,0,0-26.73,37.39,21.21,21.21,0,0,1,0,33.06,64.9,64.9,0,0,0,26.73,37.39l11.2-18.73a43,43,0,0,1,0-70.39L130.1,63.37Z"/><path class="cls-1" d="M210.63,123.11l17.89.28a62.66,62.66,0,0,1-17.4,37.6,23.2,23.2,0,0,0-29.82,17.23A63,63,0,0,1,166,180.09a62.17,62.17,0,0,1-26-5.61l8.71-15.64a45,45,0,0,0,61.88-35.73m-1.78-2a43,43,0,0,1-61,35.2l-10.62,19.07A65,65,0,0,0,183,179.81a21.21,21.21,0,0,1,28.62-16.54,64.58,64.58,0,0,0,19-41.84l-21.82-.34Z"/></g></g></svg>