<?xml version="1.0" encoding="UTF-8" standalone="no"?>
<svg width="586px" height="301px" viewBox="0 0 586 301" version="1.1" xmlns="http://www.w3.org/2000/svg" xmlns:xlink="http://www.w3.org/1999/xlink">
    <!-- Generator: Sketch 40.3 (33839) - http://www.bohemiancoding.com/sketch -->
    <title>Logo-block</title>
    <desc>Created with Sketch.</desc>
    <defs>
        <path d="M99.0011876,0 C131.758469,0 135.055828,3.37199464 134.999828,35.9999428 L134.999828,98.9998855 C135.055828,131.6265 131.7105,134.998495 98.9998855,134.998495 L35.9999428,134.998495 C3.34532801,134.998495 0,131.6265 0,98.9998855 L0,35.9999428 C0,3.37199464 3.34532801,0 35.9999428,0 L99.0011876,0 Z" id="path-1"></path>
        <filter x="-50%" y="-50%" width="200%" height="200%" filterUnits="objectBoundingBox" id="filter-2">
            <feOffset dx="0" dy="2" in="SourceAlpha" result="shadowOffsetOuter1"></feOffset>
            <feGaussianBlur stdDeviation="2.5" in="shadowOffsetOuter1" result="shadowBlurOuter1"></feGaussianBlur>
            <feComposite in="shadowBlurOuter1" in2="SourceAlpha" operator="out" result="shadowBlurOuter1"></feComposite>
            <feColorMatrix values="0 0 0 0 0   0 0 0 0 0   0 0 0 0 0  0 0 0 0.25 0" type="matrix" in="shadowBlurOuter1"></feColorMatrix>
        </filter>
        <mask id="mask-3" maskContentUnits="userSpaceOnUse" maskUnits="objectBoundingBox" x="0" y="0" width="135.000515" height="134.998495" fill="white">
            <use xlink:href="#path-1"></use>
        </mask>
        <path d="M19.7028149,0 C2.46298535,0 0,2.72282038 0,21.7828256 L0,113.217174 C0,132.27718 2.46298535,135 19.7028149,135 L244.859804,135 C262.099633,135 264.5625,132.27718 264.5625,113.217174 L264.5625,21.7828256 C264.5625,2.72282038 262.099633,0 244.859804,0 L19.7028149,0 Z" id="path-4"></path>
        <filter x="-50%" y="-50%" width="200%" height="200%" filterUnits="objectBoundingBox" id="filter-5">
            <feOffset dx="0" dy="2" in="SourceAlpha" result="shadowOffsetOuter1"></feOffset>
            <feGaussianBlur stdDeviation="2.5" in="shadowOffsetOuter1" result="shadowBlurOuter1"></feGaussianBlur>
            <feComposite in="shadowBlurOuter1" in2="SourceAlpha" operator="out" result="shadowBlurOuter1"></feComposite>
            <feColorMatrix values="0 0 0 0 0   0 0 0 0 0   0 0 0 0 0  0 0 0 0.25 0" type="matrix" in="shadowBlurOuter1"></feColorMatrix>
        </filter>
        <mask id="mask-6" maskContentUnits="userSpaceOnUse" maskUnits="objectBoundingBox" x="0" y="0" width="264.5625" height="135" fill="white">
            <use xlink:href="#path-4"></use>
        </mask>
        <path d="M99.0011876,0 C131.758469,0 135.055828,3.37199464 134.999828,35.9999428 L134.999828,98.9998855 C135.055828,131.6265 131.7105,134.998495 98.9998855,134.998495 L35.9999428,134.998495 C3.34532801,134.998495 0,131.6265 0,98.9998855 L0,35.9999428 C0,3.37199464 3.34532801,0 35.9999428,0 L99.0011876,0 Z" id="path-7"></path>
        <filter x="-50%" y="-50%" width="200%" height="200%" filterUnits="objectBoundingBox" id="filter-8">
            <feOffset dx="0" dy="2" in="SourceAlpha" result="shadowOffsetOuter1"></feOffset>
            <feGaussianBlur stdDeviation="2.5" in="shadowOffsetOuter1" result="shadowBlurOuter1"></feGaussianBlur>
            <feComposite in="shadowBlurOuter1" in2="SourceAlpha" operator="out" result="shadowBlurOuter1"></feComposite>
            <feColorMatrix values="0 0 0 0 0   0 0 0 0 0   0 0 0 0 0  0 0 0 0.25 0" type="matrix" in="shadowBlurOuter1"></feColorMatrix>
        </filter>
        <mask id="mask-9" maskContentUnits="userSpaceOnUse" maskUnits="objectBoundingBox" x="0" y="0" width="135.000515" height="134.998495" fill="white">
            <use xlink:href="#path-7"></use>
        </mask>
        <path d="M99.0011876,0 C131.758469,0 135.055828,3.37199464 134.999828,35.9999428 L134.999828,98.9998855 C135.055828,131.6265 131.7105,134.998495 98.9998855,134.998495 L35.9999428,134.998495 C3.34532801,134.998495 0,131.6265 0,98.9998855 L0,35.9999428 C0,3.37199464 3.34532801,0 35.9999428,0 L99.0011876,0 Z" id="path-10"></path>
        <filter x="-50%" y="-50%" width="200%" height="200%" filterUnits="objectBoundingBox" id="filter-11">
            <feOffset dx="0" dy="2" in="SourceAlpha" result="shadowOffsetOuter1"></feOffset>
            <feGaussianBlur stdDeviation="2.5" in="shadowOffsetOuter1" result="shadowBlurOuter1"></feGaussianBlur>
            <feComposite in="shadowBlurOuter1" in2="SourceAlpha" operator="out" result="shadowBlurOuter1"></feComposite>
            <feColorMatrix values="0 0 0 0 0   0 0 0 0 0   0 0 0 0 0  0 0 0 0.25 0" type="matrix" in="shadowBlurOuter1"></feColorMatrix>
        </filter>
        <mask id="mask-12" maskContentUnits="userSpaceOnUse" maskUnits="objectBoundingBox" x="0" y="0" width="135.000515" height="134.998495" fill="white">
            <use xlink:href="#path-10"></use>
        </mask>
        <path d="M99.0011876,0 C131.758469,0 135.055828,3.37199464 134.999828,35.9999428 L134.999828,98.9998855 C135.055828,131.6265 131.7105,134.998495 98.9998855,134.998495 L35.9999428,134.998495 C3.34532801,134.998495 0,131.6265 0,98.9998855 L0,35.9999428 C0,3.37199464 3.34532801,0 35.9999428,0 L99.0011876,0 Z" id="path-13"></path>
        <filter x="-50%" y="-50%" width="200%" height="200%" filterUnits="objectBoundingBox" id="filter-14">
            <feOffset dx="0" dy="2" in="SourceAlpha" result="shadowOffsetOuter1"></feOffset>
            <feGaussianBlur stdDeviation="2.5" in="shadowOffsetOuter1" result="shadowBlurOuter1"></feGaussianBlur>
            <feComposite in="shadowBlurOuter1" in2="SourceAlpha" operator="out" result="shadowBlurOuter1"></feComposite>
            <feColorMatrix values="0 0 0 0 0   0 0 0 0 0   0 0 0 0 0  0 0 0 0.25 0" type="matrix" in="shadowBlurOuter1"></feColorMatrix>
        </filter>
        <mask id="mask-15" maskContentUnits="userSpaceOnUse" maskUnits="objectBoundingBox" x="0" y="0" width="135.000515" height="134.998495" fill="white">
            <use xlink:href="#path-13"></use>
        </mask>
        <path d="M19.7028149,0 C2.46298535,0 0,2.72282038 0,21.7828256 L0,113.217174 C0,132.27718 2.46298535,135 19.7028149,135 L244.859804,135 C262.099633,135 264.5625,132.27718 264.5625,113.217174 L264.5625,21.7828256 C264.5625,2.72282038 262.099633,0 244.859804,0 L19.7028149,0 Z" id="path-16"></path>
        <filter x="-50%" y="-50%" width="200%" height="200%" filterUnits="objectBoundingBox" id="filter-17">
            <feOffset dx="0" dy="2" in="SourceAlpha" result="shadowOffsetOuter1"></feOffset>
            <feGaussianBlur stdDeviation="2.5" in="shadowOffsetOuter1" result="shadowBlurOuter1"></feGaussianBlur>
            <feComposite in="shadowBlurOuter1" in2="SourceAlpha" operator="out" result="shadowBlurOuter1"></feComposite>
            <feColorMatrix values="0 0 0 0 0   0 0 0 0 0   0 0 0 0 0  0 0 0 0.25 0" type="matrix" in="shadowBlurOuter1"></feColorMatrix>
        </filter>
        <mask id="mask-18" maskContentUnits="userSpaceOnUse" maskUnits="objectBoundingBox" x="0" y="0" width="264.5625" height="135" fill="white">
            <use xlink:href="#path-16"></use>
        </mask>
    </defs>
    <g id="Page-1" stroke="none" stroke-width="1" fill="none" fill-rule="evenodd">
        <g id="Logo-block" transform="translate(5.000000, 3.000000)">
            <g id="Page-1">
                <g id="Group-5">
                    <g id="DELL" transform="translate(0.000000, 1.000000)">
                        <g id="Imported-Layers-5-Copy-23">
                            <use fill="black" fill-opacity="1" filter="url(#filter-2)" xlink:href="#path-1"></use>
                            <use stroke="#F7F7F7" mask="url(#mask-3)" stroke-width="2" fill="#FFFFFF" fill-rule="evenodd" xlink:href="#path-1"></use>
                        </g>
                        <g id="Dell_Logo" transform="translate(7.000000, 6.000000)" fill="#007DB8">
                            <g id="svg3794">
                                <g id="layer1" transform="translate(0.265411, 0.102484)">
                                    <g id="g3460" transform="translate(60.081292, 60.626389) scale(1, -1) translate(-60.081292, -60.626389) translate(0.081292, 0.626389)">
                                        <path d="M60.2084166,113.118843 C45.5941918,113.118843 32.3592872,107.191051 22.7770265,97.6014927 C13.1911167,88.0338276 7.26697344,74.7916249 7.26697344,60.1701022 C7.26697344,45.5595264 13.1911167,32.3264462 22.7770265,22.7551325 C32.3592872,13.1783453 45.5941918,7.23960597 60.2084166,7.23960597 C74.8262904,7.23960597 88.0684931,13.1783453 97.6361578,22.7551325 C107.218418,32.3264462 113.12979,45.5595264 113.12979,60.1701022 C113.12979,74.7916249 107.218418,88.0338276 97.6361578,97.6014927 C88.0684931,107.191051 74.8262904,113.118843 60.2084166,113.118843 M60.2084166,119.533776 C92.9855142,119.533776 119.561144,92.9544975 119.561144,60.1701022 C119.561144,27.3966541 92.9855142,0.821023863 60.2084166,0.821023863 C27.4349685,0.821023863 0.848391325,27.3966541 0.848391325,60.1701022 C0.848391325,92.9544975 27.4349685,119.533776 60.2084166,119.533776" id="path3462"></path>
                                    </g>
                                    <g id="g3464" transform="translate(60.796243, 59.996037) scale(1, -1) translate(-60.796243, -59.996037) translate(15.796243, 44.496037)">
                                        <path d="M16.4204772,15.5234184 C16.4204772,18.9826656 14.1252595,20.9476495 10.8758294,20.9476495 L8.88712719,20.9476495 L8.88712719,10.0955385 L10.81927,10.0955385 C13.8406379,10.0955385 16.4204772,11.7375862 16.4204772,15.5234184 L16.4204772,15.5234184 L16.4204772,15.5234184 Z M51.7956588,11.6189938 L37.144944,0.0826963198 L23.7549571,10.6246427 C21.8228143,5.98312115 17.1539253,2.75923412 11.7771312,2.75923412 L0.31746256,2.75923412 L0.31746256,28.2876028 L11.7771312,28.2876028 C17.7852014,28.2876028 22.1147339,24.467105 23.7513081,20.3966512 L37.144944,30.9276506 L42.1057527,27.0232261 L29.8305337,17.3752834 L32.1896089,15.5288919 L44.4611789,25.1713611 L49.4292856,21.2778835 L37.155891,11.6189938 L39.5113173,9.76895336 L51.7956588,19.4296675 L51.7956588,28.2876028 L60.7010309,28.2876028 L60.7010309,10.2104818 L69.5845092,10.2104818 L69.5845092,2.72821765 L51.7956588,2.72821765 L51.7956588,11.6189938 L51.7956588,11.6189938 L51.7956588,11.6189938 Z M80.8653771,10.2068328 L89.7452058,10.2068328 L89.7452058,2.72821765 L71.9508824,2.72821765 L71.9508824,28.2876028 L80.8653771,28.2876028 L80.8653771,10.2068328 L80.8653771,10.2068328 L80.8653771,10.2068328 Z" id="path3466"></path>
                                    </g>
                                </g>
                            </g>
                        </g>
                    </g>
                    <g id="Qualcomm-Logo" transform="translate(311.000000, 0.000000)">
                        <g id="Mask-Copy-2">
                            <use fill="black" fill-opacity="1" filter="url(#filter-5)" xlink:href="#path-4"></use>
                            <use stroke="#F7F7F7" mask="url(#mask-6)" stroke-width="2" fill="#FFFFFF" fill-rule="evenodd" xlink:href="#path-4"></use>
                        </g>
                        <g id="svg10602" transform="translate(12.000000, 40.000000)" fill="#292F32">
                            <g id="layer1" transform="translate(0.032820, 0.034963)">
                                <g id="g10522" transform="translate(78.879181, 27.437179) scale(1, -1) translate(-78.879181, -27.437179) translate(0.379181, 0.437179)">
                                    <g id="g10524-Clipped">
                                        <g id="g10524" transform="translate(0.477782, 0.389774)">
                                            <g id="g10530" transform="translate(96.119072, 18.143833)">
                                                <path d="M0,2.75753324 C0,1.78963907 1.12347864,0.663646332 2.08895374,0.663646332 L16.4057277,0.67283811 L13.201563,5.83494033 L4.90821453,5.83494033 L4.90821453,25.6928564 L0.00183725043,25.6928564 L0,2.75753324 L0,2.75753324 L0,2.75753324 Z" id="path10532"></path>
                                            </g>
                                            <g id="g10534" transform="translate(0.351282, 0.393776)">
                                                <path d="M43.258346,30.3328656 C43.258346,42.2775804 33.5797107,51.9629563 21.6403388,51.9629563 C9.70188551,51.9629563 0.0232502406,42.2775804 0.0232502406,30.3328656 C0.0232502406,18.3872316 9.70188551,8.70185572 21.6403388,8.70185572 C22.9098789,8.70185572 24.1160338,8.82042965 25.3258632,9.03000217 L25.2891182,0.611253201 L31.3685798,0.611253201 L31.3685798,11.0852836 C38.3896324,14.660885 43.258346,21.9122783 43.258346,30.3328656 M31.3685798,20.2393748 L31.3685798,27.2039846 L25.2891182,25.4667386 L25.2955485,16.8347404 C24.1288945,16.5176241 22.907123,16.3218392 21.6403388,16.3218392 C13.9073517,16.3218392 7.63773465,22.5943082 7.63773465,30.3328656 C7.63773465,38.0695847 13.9073517,44.3429728 21.6403388,44.3429728 C29.3742445,44.3429728 35.642943,38.0695847 35.642943,30.3328656 C35.642943,26.3721287 34.0050342,22.7910122 31.3685798,20.2393748" id="path10536"></path>
                                            </g>
                                            <g id="g10538" transform="translate(47.015248, 18.804906)">
                                                <path d="M16.5352539,0 L2.40863531,0 C1.44132296,0 0.304064946,1.12231603 0.304064946,2.09021019 L0.293960069,25.0319676 L5.20125597,25.0319676 L5.20125597,5.17405153 L13.7123186,5.17405153 L13.7123186,25.0319676 L18.6205331,25.0319676 L18.6251262,2.09021019 C18.6251262,1.12231603 17.5025662,0 16.5352539,0" id="path10540"></path>
                                            </g>
                                            <g id="g10542" transform="translate(109.230794, 18.095577)">
                                                <path d="M20.2097547,24.8177991 C18.2484899,25.9676905 15.949171,26.6304177 13.510221,26.6304177 C6.18510357,26.6304177 0.245272932,20.6879335 0.245272932,13.3584102 C0.245272932,6.0261293 6.18510357,0.0827259971 13.510221,0.0827259971 C15.7994351,0.0827259971 17.988519,0.680191532 19.8689448,1.70231719 L17.4750075,6.01234164 C16.2936554,5.36983639 14.9497068,5.00032694 13.510221,5.00032694 C8.89688521,5.00032694 5.15716196,8.74229954 5.15716196,13.3584102 C5.15716196,17.9726825 8.89688521,21.7146551 13.510221,21.7146551 C15.0682094,21.7146551 16.532498,21.2734497 17.7809097,20.529835 L20.2097547,24.8177991 L20.2097547,24.8177991 L20.2097547,24.8177991 Z" id="path10544"></path>
                                            </g>
                                            <g id="g10546" transform="translate(127.024932, 17.999982)">
                                                <path d="M13.7793782,26.6561546 C6.45426076,26.6561546 0.525453623,20.6796609 0.525453623,13.3492184 C0.525453623,6.01877588 6.45426076,0.111220507 13.7793782,0.111220507 C21.1072516,0.111220507 27.0470822,6.05462381 27.0470822,13.383228 C27.0470822,20.7145897 21.1072516,26.6561546 13.7793782,26.6561546 M13.7793782,5.02698309 C9.16879827,5.02698309 5.43826127,8.73494612 5.43826127,13.3492184 C5.43826127,17.9634907 9.16879827,21.740392 13.7793782,21.740392 C18.3927141,21.740392 22.1351932,17.9984194 22.1351932,13.383228 C22.1351932,8.76803652 18.3927141,5.02698309 13.7793782,5.02698309" id="path10548"></path>
                                            </g>
                                        </g>
                                    </g>
                                </g>
                                <g id="g10550" transform="translate(81.631479, 22.655329) scale(1, -1) translate(-81.631479, -22.655329) translate(67.631479, 10.155329)">
                                    <path d="M16.5352539,24.901156 L11.672052,24.901156 L0.728469796,0.0465897405 L5.93891202,0.0465897405 L8.51014399,5.52396993 L19.8533282,5.52121239 L20.0857403,4.99544272 L22.2683938,0.0465897405 L27.4788361,0.0465897405 L16.5352539,24.901156 L16.5352539,24.901156 L16.5352539,24.901156 Z M10.14989,9.59868487 L14.0963039,18.5799706 L18.0564972,9.59868487 L10.14989,9.59868487 L10.14989,9.59868487 L10.14989,9.59868487 Z" id="path10552"></path>
                                </g>
                                <g id="g10554" transform="translate(195.805754, 22.884941) scale(1, -1) translate(-195.805754, -22.884941) translate(153.305754, 8.884941)">
                                    <g id="g10556-Clipped" transform="translate(-0.000000, 0.000000)">
                                        <g id="g10556" transform="translate(0.042994, 0.301912)">
                                            <g id="g10562" transform="translate(0.499640, 0.741317)">
                                                <path d="M80.0033546,3.67671098 L71.0173628,24.4243911 C70.479967,25.4244564 69.5576673,25.8858837 68.2513822,25.8858837 C66.9478531,25.8858837 66.0255533,25.4244564 65.4881576,24.4243911 L58.8823237,9.21016101 L52.2764897,24.4243911 C51.7418499,25.4244564 50.8195501,25.8858837 49.5132651,25.8858837 C48.20698,25.8858837 47.2846803,25.4244564 46.7472846,24.4243911 L40.1414506,9.17523226 L33.5383726,24.4243911 C33.0009768,25.4244564 32.0786771,25.8858837 30.7751479,25.8858837 C29.4688629,25.8858837 28.5465632,25.4244564 28.0091674,24.4243911 L21.4033335,9.21016101 L14.8002555,24.4243911 C14.2601038,25.4244564 13.3396414,25.8858837 12.0342749,25.8858837 C10.7279899,25.8858837 9.80752741,25.4244564 9.26829441,24.4243911 L0.282302551,3.67671098 C-0.954166988,0.430175185 3.50943293,-1.24088996 4.96729115,1.3714132 L12.0342749,17.8936332 L19.0985028,1.3714132 C20.0217212,-0.319873856 22.863029,-0.243582103 23.7081642,1.3714132 L30.7751479,17.8936332 L37.8393759,1.3714132 C38.3032816,0.541395692 39.069415,0.184754727 39.8585141,0.133280773 C39.956807,0.117654751 40.0459136,0.113058863 40.1414506,0.108462974 C40.2397435,0.113058863 40.3316061,0.117654751 40.4271431,0.133280773 C41.2162421,0.184754727 41.9851315,0.541395692 42.4481186,1.3714132 L49.5132651,17.8936332 L56.5784116,1.3714132 C57.4226282,-0.243582103 60.263936,-0.319873856 61.1843984,1.3714132 L68.2513822,17.8936332 L75.3165288,1.3714132 C76.7789801,-1.24088996 81.2379869,0.430175185 80.0033546,3.67671098" id="path10564"></path>
                                            </g>
                                            <g id="g10566" transform="translate(76.545649, 19.725095)">
                                                <path d="M3.67450086,6.43424422 C2.07884886,6.43424422 0.728469796,5.20530357 0.728469796,3.5397535 C0.728469796,1.8585774 2.07884886,0.629636756 3.67450086,0.629636756 C5.25453623,0.629636756 6.60767117,1.8585774 6.60767117,3.5397535 C6.60767117,5.20530357 5.25453623,6.43424422 3.67450086,6.43424422 L3.67450086,6.43424422 L3.67450086,6.43424422 Z M3.67450086,1.11312425 C2.3461688,1.11312425 1.31179681,2.14168415 1.31179681,3.5397535 C1.31179681,4.91300505 2.3461688,5.95075673 3.67450086,5.95075673 C4.98721629,5.95075673 6.02342554,4.91300505 6.02342554,3.5397535 C6.02342554,2.14168415 4.98721629,1.11312425 3.67450086,1.11312425 L3.67450086,1.11312425 L3.67450086,1.11312425 Z M5.0092633,4.25303543 C5.0092633,4.91300505 4.61884758,5.20530357 3.82791127,5.20530357 L2.55561535,5.20530357 L2.55561535,1.8585774 L3.05902197,1.8585774 L3.05902197,3.30903988 L3.6432676,3.30903988 L4.52606644,1.8585774 L5.09377682,1.8585774 L4.14299972,3.33201933 C4.63262696,3.39360424 5.0092633,3.65465072 5.0092633,4.25303543 L5.0092633,4.25303543 L5.0092633,4.25303543 Z M3.05902197,3.73921507 L3.05902197,4.77512839 L3.75074675,4.77512839 C4.10441746,4.77512839 4.47921655,4.69791746 4.47921655,4.2833683 C4.47921655,3.76954794 4.09798709,3.73921507 3.66531461,3.73921507 L3.05902197,3.73921507 L3.05902197,3.73921507 L3.05902197,3.73921507 Z" id="path10568"></path>
                                            </g>
                                        </g>
                                    </g>
                                </g>
                            </g>
                        </g>
                    </g>
                    <g id="IBM" transform="translate(155.000000, 2.000000)">
                        <g id="Imported-Layers-5-Copy-23">
                            <use fill="black" fill-opacity="1" filter="url(#filter-8)" xlink:href="#path-7"></use>
                            <use stroke="#F7F7F7" mask="url(#mask-9)" stroke-width="2" fill="#FFFFFF" fill-rule="evenodd" xlink:href="#path-7"></use>
                        </g>
                        <g id="IBM_logo" transform="translate(10.000000, 44.000000)" fill="#1F70C1">
                            <path d="M0,0 L0,3.147205 L22.579219,3.147205 L22.579219,0 L0,0 L0,0 L0,0 Z M25.7782821,0 L25.7782821,3.147205 L57.9546869,3.147205 C57.9546858,3.147205 54.668045,0 50.315,0 L25.7782821,0 L25.7782821,0 L25.7782821,0 Z M64.266719,0 L64.266719,3.147205 L83.732969,3.147205 L82.5775,0 L64.266719,0 L64.266719,0 L64.266719,0 Z M97.6892192,0 L96.53375,3.147205 L115.823281,3.147205 L115.823281,0 L97.6892192,0 L97.6892192,0 L97.6892192,0 Z M0,6.12055415 L0,9.26775826 L22.579219,9.26775826 L22.579219,6.12055415 L0,6.12055415 L0,6.12055415 L0,6.12055415 Z M25.7782821,6.12501212 L25.7782821,9.26775826 L61.6884381,9.26775826 C61.6884381,9.26775962 61.269025,6.84553439 60.5375,6.12501212 L25.7782821,6.12501212 L25.7782821,6.12501212 L25.7782821,6.12501212 Z M64.266719,6.12501212 L64.266719,9.26775826 L85.8671884,9.26775826 L84.7978119,6.12501212 L64.266719,6.12501212 L64.266719,6.12501212 L64.266719,6.12501212 Z M95.3782808,6.12501212 L94.3089058,9.26775826 L115.823281,9.26775826 L115.823281,6.12501212 L95.3782808,6.12501212 L95.3782808,6.12501212 L95.3782808,6.12501212 Z M6.48874954,12.2411083 L6.48874954,15.3927696 L16.2671869,15.3927696 L16.2671869,12.2411083 L6.48874954,12.2411083 L6.48874954,12.2411083 L6.48874954,12.2411083 Z M32.2670321,12.2411083 L32.2670321,15.3927696 L42.0454679,15.3927696 L42.0454679,12.2411083 L32.2670321,12.2411083 L32.2670321,12.2411083 L32.2670321,12.2411083 Z M51.5565631,12.2411083 L51.5565631,15.3927696 L61.335,15.3927696 C61.3350012,15.3927696 61.955781,13.7283723 61.955781,12.2411083 L51.5565631,12.2411083 L51.5565631,12.2411083 L51.5565631,12.2411083 Z M70.755469,12.2411083 L70.755469,15.3927696 L88.0920325,15.3927696 L86.9365634,12.2411083 L70.755469,12.2411083 L70.755469,12.2411083 L70.755469,12.2411083 Z M93.2485942,12.2411083 L92.0885942,15.3927696 L109.51125,15.3927696 L109.51125,12.2411083 L93.2485942,12.2411083 L93.2485942,12.2411083 L93.2485942,12.2411083 Z M6.48874954,18.366121 L6.48874954,21.5133237 L16.2671869,21.5133237 L16.2671869,18.366121 L6.48874954,18.366121 L6.48874954,18.366121 L6.48874954,18.366121 Z M32.2670321,18.366121 L32.2670321,21.5133237 L57.2432821,21.5133237 C57.2432833,21.5133226 59.332586,19.8984615 59.998281,18.366121 L32.2670321,18.366121 L32.2670321,18.366121 L32.2670321,18.366121 Z M70.755469,18.366121 L70.755469,21.5133237 L80.533906,21.5133237 L80.533906,19.7614103 L81.1546869,21.5133237 L99.0667192,21.5133237 L99.7328134,19.7614103 L99.7328134,21.5133237 L109.51125,21.5133237 L109.51125,18.366121 L91.1551558,18.366121 L90.1809366,21.031882 L89.2021884,18.366121 L70.755469,18.366121 L70.755469,18.366121 L70.755469,18.366121 Z M6.48874954,24.4866751 L6.48874954,27.6338778 L16.2671869,27.6338778 L16.2671869,24.4866751 L6.48874954,24.4866751 L6.48874954,24.4866751 L6.48874954,24.4866751 Z M32.2670321,24.4866751 L32.2670321,27.6338778 L59.998281,27.6338778 C59.3324421,26.1065306 57.2432821,24.4866751 57.2432821,24.4866751 L32.2670321,24.4866751 L32.2670321,24.4866751 L32.2670321,24.4866751 Z M70.755469,24.4866751 L70.755469,27.6338778 L80.533906,27.6338778 L80.533906,24.4866751 L70.755469,24.4866751 L70.755469,24.4866751 L70.755469,24.4866751 Z M82.310156,24.4866751 L83.4928131,27.6338778 L96.9234384,27.6338778 L98.0471884,24.4866751 L82.310156,24.4866751 L82.310156,24.4866751 L82.310156,24.4866751 Z M99.7328134,24.4866751 L99.7328134,27.6338778 L109.51125,27.6338778 L109.51125,24.4866751 L99.7328134,24.4866751 L99.7328134,24.4866751 L99.7328134,24.4866751 Z M6.48874954,30.6072293 L6.48874954,33.754432 L16.2671869,33.754432 L16.2671869,30.6072293 L6.48874954,30.6072293 L6.48874954,30.6072293 L6.48874954,30.6072293 Z M32.2670321,30.6072293 L32.2670321,33.754432 L42.0454679,33.754432 L42.0454679,30.6072293 L32.2670321,30.6072293 L32.2670321,30.6072293 L32.2670321,30.6072293 Z M51.5565631,30.6072293 L51.5565631,33.754432 L61.955781,33.754432 C61.9557833,32.269169 61.335,30.6072293 61.335,30.6072293 L51.5565631,30.6072293 L51.5565631,30.6072293 L51.5565631,30.6072293 Z M70.755469,30.6072293 L70.755469,33.754432 L80.533906,33.754432 L80.533906,30.6072293 L70.755469,30.6072293 L70.755469,30.6072293 L70.755469,30.6072293 Z M84.5304679,30.6072293 L85.676875,33.754432 L94.6804675,33.754432 L95.8359366,30.6072293 L84.5304679,30.6072293 L84.5304679,30.6072293 L84.5304679,30.6072293 Z M99.7328134,30.6072293 L99.7328134,33.754432 L109.51125,33.754432 L109.51125,30.6072293 L99.7328134,30.6072293 L99.7328134,30.6072293 L99.7328134,30.6072293 Z M0.17671788,36.7277835 L0.17671788,39.8794447 L22.7559369,39.8794447 L22.7559369,36.7277835 L0.17671788,36.7277835 L0.17671788,36.7277835 L0.17671788,36.7277835 Z M25.7782821,36.7277835 L25.7782821,39.8794447 L60.5375,39.8794447 C61.269025,39.1577818 61.6884381,36.7277835 61.6884381,36.7277835 L25.7782821,36.7277835 L25.7782821,36.7277835 L25.7782821,36.7277835 Z M64.4434369,36.7277835 L64.4434369,39.8794447 L80.533906,39.8794447 L80.533906,36.7277835 L64.4434369,36.7277835 L64.4434369,36.7277835 L64.4434369,36.7277835 Z M86.7553116,36.7277835 L87.9334366,39.8794447 L92.5145308,39.8794447 L93.6201558,36.7277835 L86.7553116,36.7277835 L86.7553116,36.7277835 L86.7553116,36.7277835 Z M99.7328134,36.7277835 L99.7328134,39.8794447 L116,39.8794447 L116,36.7277835 L99.7328134,36.7277835 L99.7328134,36.7277835 L99.7328134,36.7277835 Z M0.17671788,42.852795 L0.17671788,46 L22.7559369,46 L22.7559369,42.852795 L0.17671788,42.852795 L0.17671788,42.852795 L0.17671788,42.852795 Z M25.7782821,42.852795 L25.7782821,45.9955426 L50.315,45.9955426 C54.6680438,45.9955403 57.9546869,42.852795 57.9546869,42.852795 L25.7782821,42.852795 L25.7782821,42.852795 L25.7782821,42.852795 Z M64.4434369,42.852795 L64.4434369,46 L80.533906,46 L80.533906,42.852795 L64.4434369,42.852795 L64.4434369,42.852795 L64.4434369,42.852795 Z M88.9892192,42.852795 L90.1220325,45.9910829 L90.316875,45.9955426 L91.4678134,42.852795 L88.9892192,42.852795 L88.9892192,42.852795 L88.9892192,42.852795 Z M99.7328134,42.852795 L99.7328134,46 L116,46 L116,42.852795 L99.7328134,42.852795 L99.7328134,42.852795 L99.7328134,42.852795 Z" id="Shape"></path>
                        </g>
                    </g>
                    <g id="ARM" transform="translate(440.000000, 156.000000)">
                        <g id="Imported-Layers-5-Copy-23">
                            <use fill="black" fill-opacity="1" filter="url(#filter-11)" xlink:href="#path-10"></use>
                            <use stroke="#F7F7F7" mask="url(#mask-12)" stroke-width="2" fill="#FFFFFF" fill-rule="evenodd" xlink:href="#path-10"></use>
                        </g>
                        <g id="logo-arm" transform="translate(10.000000, 50.000000)" fill="#0094C3">
                            <g id="Comp">
                                <g id="Group">
                                    <path d="M39.0137533,34.9017544 L29.8019528,34.9017544 L26.9832441,28.0485088 L11.6289239,28.0485088 L9.06109186,34.9017544 L0,34.9017544 L13.8438845,0.279385965 L23.7608189,0.279385965 L39.0137533,34.9017544 L39.0137533,34.9017544 L39.0137533,34.9017544 Z M18.928399,8.55381577 L13.8944252,22.0060965 L24.4659528,22.0060965 L18.928399,8.55381577 L18.928399,8.55381577 L18.928399,8.55381577 Z" id="Shape"></path>
                                    <path d="M56.3467716,0.279078947 C63.3944567,0.279078947 67.5725879,5.05135965 67.5725879,10.2282895 C67.5725879,14.0362281 65.6100262,16.8795175 61.6827716,18.707193 C65.2069186,20.4832895 66.2643149,24.7471491 71.0970393,34.9005264 L61.6827716,34.9005264 C58.0082205,27.4888158 56.6487979,20.8385088 52.0176273,20.8385088 L49.5505722,20.8385088 L49.5505722,34.9005264 L40.992147,34.9005264 L40.992147,0.278157895 L56.3431181,0.278157895 L56.3431181,0.277850877 L56.3467716,0.279078947 L56.3467716,0.279078947 Z M49.5481365,14.4930702 L54.0794436,14.4930702 C56.4451129,14.4930702 58.7611548,13.4777631 58.7611548,10.5337719 C58.7611548,7.94438594 57.099706,6.62451754 53.8781942,6.62451754 L49.5481365,6.62451754 L49.5481365,14.4930702 L49.5481365,14.4930702 L49.5481365,14.4930702 Z" id="Shape"></path>
                                    <polygon id="Shape" points="102.959895 0.279078947 110.410079 0.279078947 110.410079 34.9017544 101.851653 34.9017544 101.851653 13.2754386 92.5868768 24.1386403 91.2807346 24.1386403 82.0159581 13.2754386 82.0159581 34.9017544 73.4575328 34.9017544 73.4575328 0.279078947 80.9077164 0.279078947 91.9353278 13.1222369"></polygon>
                                    <path d="M114.094068,3.06710526 C113.357575,3.06710526 112.760829,2.46442982 112.760829,1.71991228 C112.760829,0.987061406 113.357575,0.38377193 114.094068,0.38377193 C114.82843,0.38377193 115.413302,0.987061406 115.413302,1.71991228 C115.413302,2.46442982 114.828735,3.06710526 114.094982,3.06710526 L114.094068,3.06710526 L114.094068,3.06710526 Z M114.094068,3.35232456 C114.985228,3.35232456 115.696147,2.62469298 115.696147,1.71991228 C115.696147,0.828947365 114.985228,0.0994736839 114.094068,0.0994736839 C113.19895,0.0994736839 112.478593,0.828947365 112.478593,1.71991228 C112.478593,2.62438597 113.200168,3.35232456 114.095286,3.35232456 L114.094068,3.35232456 L114.094068,3.35232456 Z M114.00273,1.82736842 C114.105333,1.83596491 114.20337,1.82736842 114.276441,1.90442982 C114.361994,1.995 114.361994,2.14635965 114.383916,2.31061403 C114.396704,2.42328947 114.425932,2.54425439 114.446635,2.65171053 L114.821123,2.65171053 C114.756577,2.47885965 114.735265,2.2802193 114.709385,2.09907895 C114.679853,1.8918421 114.649711,1.77578947 114.392137,1.72421053 L114.392137,1.71561403 C114.643927,1.66403509 114.776672,1.49302631 114.776672,1.27197369 C114.776672,0.841228068 114.417407,0.747280703 114.06758,0.747280703 L113.455916,0.747280703 L113.455916,2.65140351 L113.748504,2.65140351 L113.748504,1.82736842 L114.004252,1.82736842 L114.00273,1.82736842 L114.00273,1.82736842 Z M113.746982,1.53201754 L113.746982,1.04293859 L114.105333,1.04293859 C114.342814,1.04293859 114.406446,1.11662281 114.406446,1.25877193 C114.406446,1.40614035 114.342814,1.52372807 114.061491,1.53201754 L113.744851,1.53201754 L113.746982,1.53201754 L113.746982,1.53201754 Z" id="Shape"></path>
                                </g>
                            </g>
                        </g>
                    </g>
                    <g id="INTEL" transform="translate(285.000000, 156.000000)">
                        <g id="Imported-Layers-5-Copy-23">
                            <use fill="black" fill-opacity="1" filter="url(#filter-14)" xlink:href="#path-13"></use>
                            <use stroke="#F7F7F7" mask="url(#mask-15)" stroke-width="2" fill="#FFFFFF" fill-rule="evenodd" xlink:href="#path-13"></use>
                        </g>
                        <g id="Intel-logo" transform="translate(9.000000, 28.000000)" fill="#127CC1">
                            <g id="svg2328">
                                <path d="M117.312618,22.1369488 C111.781653,-4.87132917 59.6120748,-6.5817377 25.9832367,13.9950084 L25.9832367,16.2676184 C59.5679131,-1.09830384 107.222903,-0.987557923 111.559427,23.8913329 C113.020661,32.1331257 108.418348,40.7049353 100.166263,45.6370643 L100.166263,52.0915924 C110.1,48.4404043 120.254157,36.6230746 117.312618,22.1369488 L117.312618,22.1369488 L117.312618,22.1369488 Z M56.1608437,69.4242337 C32.9527506,71.5760084 8.77103833,68.1890796 5.38565044,49.9509065 C3.70439937,40.9702036 7.79721727,31.4383926 13.1958906,25.5244816 L13.1958906,22.358037 C3.46109469,30.9415486 -1.82676667,41.7984751 1.2263856,54.6177671 C5.12006294,71.0682687 25.8726254,80.3800009 57.5548251,77.279521 C70.099068,76.0663599 86.5157097,72.006082 97.9088704,65.7072844 L97.9088704,56.758449 C87.5549727,62.9697016 70.4304994,68.1013336 56.1608437,69.4242337 L56.1608437,69.4242337 L56.1608437,69.4242337 Z" id="path6"></path>
                                <path d="M96.0501621,18.2325209 L89.966339,18.2325209 L89.966339,45.4973196 C89.966339,48.699501 91.4932142,51.4845956 96.0501621,51.9261238" id="path8"></path>
                                <path d="M23.5718707,28.196772 L17.4876481,28.196772 L17.4876481,46.0046935 C17.4876481,49.2080851 19.0145256,51.9921706 23.5718707,52.4334977" id="path10"></path>
                                <rect id="rect12" x="17.4876477" y="19.0610409" width="6.08422248" height="5.8000414"></rect>
                                <path d="M60.0320384,52.146888 C55.0988959,52.146888 53.019162,48.6997061 53.019162,45.2975632 L53.019162,21.6461753 L59.0369372,21.6461753 L59.0369372,28.196772 L63.5940811,28.196772 L63.5940811,33.1016408 L59.0369372,33.1016408 L59.0369372,44.9329896 C59.0369372,46.3244251 59.7006029,47.0875064 61.138148,47.0875064 L63.5940811,47.0875064 L63.5940811,52.146888 L60.0320384,52.146888" id="path14"></path>
                                <path d="M76.0279137,32.803721 C73.9708647,32.803721 72.3783423,33.87502 71.7142753,35.3224046 C71.3161938,36.1947537 71.1830986,36.8578523 71.1174561,37.929959 L80.431686,37.929959 C80.298791,35.3112956 79.1254298,32.803721 76.0279137,32.803721 M71.1174561,42.0612467 C71.1174561,45.1656708 73.0632881,47.4512679 76.4705583,47.4512679 C79.1481144,47.4512679 80.4754501,46.7001077 82.0242078,45.1658719 L85.7412279,48.755854 C83.3517441,51.1192179 80.8518501,52.5556924 76.4269986,52.5556924 C70.6529294,52.5556924 65.1213584,49.3852216 65.1213584,40.1495109 C65.1213584,32.2513073 69.9442913,27.7885719 76.2941041,27.7885719 C82.7322402,27.7885719 86.4263744,33.0135776 86.4263744,39.8740109 L86.4263744,42.0614477 L71.1174561,42.0614477" id="path16"></path>
                                <path d="M39.9660277,33.1016408 C41.7356086,33.1016408 42.4659243,33.9745959 42.4659243,35.3995606 L42.4659243,52.1798087 L48.505979,52.1798087 L48.505979,35.3775449 C48.505979,31.9638906 46.6916327,28.1965702 41.4041731,28.1965702 L28.9482613,28.1965702 L28.9482613,52.1796077 L34.9660366,52.1796077 L34.9660366,33.1014386" id="path18"></path>
                                <g id="text2177" transform="translate(100.954752, 17.213532)" font-size="14.0353012" font-family="ArialMT, Arial" font-weight="normal">
                                    <g id="tspan2179">
                                        <text id="®">
                                            <tspan x="0" y="13">®</tspan>
                                        </text>
                                    </g>
                                </g>
                            </g>
                        </g>
                    </g>
                    <g id="SAMSUNG" transform="translate(0.000000, 156.000000)">
                        <g id="Mask-Copy-2">
                            <use fill="black" fill-opacity="1" filter="url(#filter-17)" xlink:href="#path-16"></use>
                            <use stroke="#F7F7F7" mask="url(#mask-18)" stroke-width="2" fill="#FFFFFF" fill-rule="evenodd" xlink:href="#path-16"></use>
                        </g>
                        <g id="Samsung_Logo" transform="translate(20.000000, 30.000000)">
                            <g id="Group">
                                <path d="M224.287301,17.8343037 C227.344565,35.4455547 179.64878,58.5092054 117.744115,69.3470889 C55.8468452,80.1849725 3.19040297,74.6854839 0.138069989,57.0667978 C-2.91179745,39.4530685 44.796315,16.3968529 106.693584,5.56144768 C168.593319,-5.2813926 221.239899,0.218095987 224.287301,17.8343037 L224.287301,17.8343037 L224.287301,17.8343037 Z" id="Shape" fill="#034EA2"></path>
                                <g id="Shape" transform="translate(31.415695, 24.783635)" fill="#FFFFFF">
                                    <polygon points="134.613468 19.1949253 134.295414 0.882297404 140.040111 0.882297404 140.040111 23.9632966 131.780567 23.9632966 126.048197 5.02116444 125.92492 5.02116444 126.242975 23.9632966 120.53526 23.9632966 120.53526 0.882297404 129.152306 0.882297404 134.48526 19.1949253"></polygon>
                                    <polygon points="30.1906416 3.04343037 27.0125663 24.2061762 20.7476405 24.2061762 25.05 0.882297404 35.3707317 0.882297404 39.6533669 24.2061762 33.4130965 24.2061762 30.321315 3.04343037"></polygon>
                                    <polygon points="57.249894 18.7116444 60.1173118 0.882297404 69.5800371 0.882297404 70.0830064 24.2061762 64.2840668 24.2061762 64.1312036 3.23674272 64.0103924 3.23674272 60.132105 24.2061762 54.2444062 24.2061762 50.3636532 3.23674272 50.2379109 3.23674272 50.0924443 24.2061762 44.2811771 24.2061762 44.7940085 0.882297404 54.2616649 0.882297404 57.1266172 18.7116444"></polygon>
                                    <path d="M10.9767232,17.6261212 C11.2035525,18.191188 11.1345175,18.9173485 11.0284995,19.3560189 C10.8337222,20.1317467 10.3110286,20.9223446 8.76760339,20.9223446 C7.31293743,20.9223446 6.43027572,20.0846577 6.43027572,18.8033438 L6.43027572,16.5455547 L0.207264051,16.5455547 L0.20233298,18.3522817 C0.20233298,23.5518883 4.27539767,25.1206924 8.63939555,25.1206924 C12.835737,25.1206924 16.2924178,23.6782848 16.8422322,19.7922109 C17.1233033,17.7773013 16.9137328,16.458812 16.8175769,15.9606609 C15.8387593,11.0782848 7.03186638,9.62100708 6.37603393,6.88985051 C6.26508484,6.42143981 6.2971368,5.92576711 6.35137858,5.66058222 C6.51163839,4.91707317 7.01953871,4.09673485 8.47173913,4.09673485 C9.82778367,4.09673485 10.6290827,4.93937844 10.6290827,6.21325728 L10.6290827,7.65318647 L16.4156946,7.65318647 L16.4156946,6.0149882 C16.4156946,0.934343037 11.8791092,0.141266719 8.59255037,0.141266719 C4.4652439,0.141266719 1.0923913,1.51180173 0.476007423,5.3086546 C0.308351007,6.35700236 0.283695652,7.2913454 0.527783669,8.46113297 C1.54111877,13.227026 9.78340403,14.6074744 10.9767232,17.6261212 L10.9767232,17.6261212 L10.9767232,17.6261212 Z"></path>
                                    <path d="M86.4270414,17.583989 C86.6563362,18.1440991 86.5823701,18.8504327 86.4788176,19.2891031 C86.2889714,20.0623525 85.7712089,20.8405586 84.2376458,20.8405586 C82.8027041,20.8405586 81.927439,20.0028718 81.927439,18.7512982 L81.922508,16.513336 L75.7636002,16.513336 L75.7562036,18.2952793 C75.7562036,23.4428403 79.7922853,24.9967742 84.1119035,24.9967742 C88.2638653,24.9967742 91.6884942,23.5741935 92.2284464,19.7228167 C92.5095175,17.7227773 92.3098091,16.4216365 92.2087222,15.9333989 C91.2348356,11.0956334 82.516702,9.65322581 81.8682662,6.94933124 C81.7573171,6.4833989 81.789369,5.99268293 81.8460764,5.74236821 C82.0112672,4.99390244 82.5093054,4.19339103 83.9467126,4.19339103 C85.2904295,4.19339103 86.0744698,5.01620771 86.0744698,6.28017309 L86.0744698,7.7052321 L91.816702,7.7052321 L91.816702,6.08438238 C91.816702,1.05826121 87.3170997,0.270141621 84.0625928,0.270141621 C79.9821315,0.270141621 76.6363998,1.62332809 76.0323436,5.39291896 C75.8646872,6.42639654 75.8474284,7.34339103 76.0865854,8.50822187 C77.0851273,13.2245476 85.2460498,14.5950826 86.4270414,17.583989 L86.4270414,17.583989 L86.4270414,17.583989 Z"></path>
                                    <path d="M105.9171,20.7166404 C107.527094,20.7166404 108.030064,19.5964201 108.141013,19.0239182 C108.187858,18.7711251 108.200186,18.4340677 108.195255,18.1317073 L108.195255,0.87238395 L114.063229,0.87238395 L114.063229,17.6038159 C114.075557,18.0325728 114.033643,18.9148702 114.013918,19.1354445 C113.602174,23.4899292 110.177545,24.9025964 105.914634,24.9025964 C101.646792,24.9025964 98.2196978,23.4899292 97.8128844,19.1354445 C97.7931601,18.9148702 97.751246,18.0325728 97.7635737,17.6038159 L97.7635737,0.87238395 L103.626617,0.87238395 L103.626617,18.1317073 C103.626617,18.4340677 103.636479,18.7736035 103.680859,19.0239182 C103.806601,19.5964201 104.294777,20.7166404 105.9171,20.7166404 L105.9171,20.7166404 L105.9171,20.7166404 Z"></path>
                                    <path d="M154.320493,20.4712825 C156.001988,20.4712825 156.588786,19.4031078 156.697269,18.7810386 C156.739183,18.5133753 156.751511,18.1887097 156.749046,17.8937844 L156.749046,14.5083399 L154.367338,14.5083399 L154.367338,11.1030685 L162.59483,11.1030685 L162.59483,17.3634146 C162.589899,17.7996066 162.580037,18.1217939 162.511002,18.9 C162.123913,23.1429583 158.462593,24.6572384 154.35008,24.6572384 C150.23017,24.6572384 146.57378,23.1429583 146.18176,18.9 C146.115191,18.1217939 146.105329,17.7996066 146.097932,17.3634146 L146.102863,7.54166011 C146.102863,7.12777341 146.154639,6.39417781 146.199019,6.00507474 C146.714316,1.64563336 150.23017,0.242879622 154.35008,0.242879622 C158.465058,0.242879622 162.067206,1.63819827 162.493743,6.00507474 C162.570175,6.74858379 162.54552,7.54166011 162.54552,7.54166011 L162.54552,8.31986625 L156.694804,8.31986625 L156.694804,7.01376869 C156.699735,7.01624705 156.687407,6.45861526 156.618372,6.12651456 C156.519751,5.61101495 156.073489,4.4263572 154.3057,4.4263572 C152.614343,4.4263572 152.11877,5.5465775 151.995493,6.12651456 C151.923993,6.43383163 151.896872,6.8501967 151.896872,7.22690795 L151.896872,17.8937844 C151.891941,18.1887097 151.909199,18.5133753 151.956045,18.7810386 C152.057131,19.4055862 152.641463,20.4712825 154.320493,20.4712825 L154.320493,20.4712825 L154.320493,20.4712825 Z"></path>
                                </g>
                            </g>
                        </g>
                    </g>
                </g>
            </g>
        </g>
    </g>
</svg>