<?xml version="1.0" encoding="utf-8"?>
<!-- Generator: Adobe Illustrator 18.1.1, SVG Export Plug-In . SVG Version: 6.00 Build 0)  -->
<!DOCTYPE svg PUBLIC "-//W3C//DTD SVG 1.1//EN" "http://www.w3.org/Graphics/SVG/1.1/DTD/svg11.dtd">
<svg version="1.1" id="Comp" xmlns="http://www.w3.org/2000/svg" xmlns:xlink="http://www.w3.org/1999/xlink" x="0px" y="0px"
	 width="125px" height="34px" viewBox="-117 164 125 34" enable-background="new -117 164 125 34" xml:space="preserve">
<path fill="#FFFFFF" d="M-72.7,182.3h1.3v-4.4h5.1V171h-5.1v-2c0,0,0.5-0.6,0.1-0.7c-0.4-0.1-0.6-0.1-1.5-0.3c-0.5-0.1,0.1,1,0.1,1
	v1.9h-5.1v6.9h5.1V182.3z M-71.5,172.1h3.8v4.7h-3.8V172.1z M-76.5,176.8v-4.7h3.9v4.7H-76.5z M-52.4,168.9h-11.8v12.7h11.8
	C-52.4,181.6-52.4,168.9-52.4,168.9z M-53.5,180.4H-63V170h9.5V180.4z M-100,164c-9.4,0-17,7.6-17,17s7.6,17,17,17s17-7.6,17-17
	S-90.6,164-100,164z M-107.8,179.4l7.1-6c0.6-0.5,1.5-0.8,2.4-0.8s1.7,0.3,2.4,0.8l8.9,7.2v1.7l-8-6.3c-0.6-0.5-1.3-0.7-2.1-0.7
	s-1.5,0.3-2.1,0.7h-0.1l0,0c-0.7,0.6-4.4,3.7-6.2,5.2l0,0c0.4,0.6,1.3,0.7,2.2,0.2l0,0c2-1.7,3.8-3.2,4-3.4c0.6-0.5,1.2-0.8,2-0.8
	c0.7,0,1.4,0.3,1.9,0.7l5.7,4.6l1.7,1.4l1,0.8h-0.2l0.2,0.2c0,0-7.5,6.4-9.4,8c-0.9,1-2.3,1.6-3.7,1.6c-1.3,0-2.6-0.5-3.6-1.4
	l-9.4-7.6v-2.4l9.3,7.6c0.6,0.5,1.4,0.7,2.3,0.7s1.7-0.3,2.4-0.8c0.4-0.3,6-5.1,8.5-7.2l-1.7-1.4l-7.1,6c-0.7,0.5-1.5,0.7-2.4,0.7
	s-1.8-0.3-2.4-0.8l-8.9-7.2V179l7.9,6.4c0.6,0.4,1.2,0.7,2,0.7s1.6-0.3,2.1-0.7l0.1-0.1c0.8-0.6,4.4-3.6,6.2-5.2l0,0l0,0l-0.5-0.3
	c-0.5-0.2-1.1-0.1-1.7,0.2l0,0c-2,1.7-3.8,3.2-4,3.4c-0.5,0.5-1.2,0.8-2,0.8c-0.7,0-1.3-0.2-1.9-0.6l-5.6-4.7l0,0l-1.6-1.3l-0.5-0.5
	l-0.6-0.5h0.1l-0.1-0.1c0,0,7.5-6.4,9.4-8c1-1,2.3-1.6,3.7-1.6c1.4,0,2.6,0.6,3.6,1.4l9.4,7.7v2.4l-9.3-7.6
	c-0.6-0.5-1.4-0.7-2.2-0.7c-0.9,0-1.8,0.3-2.4,0.8c-0.4,0.3-6,5.1-8.5,7.2L-107.8,179.4z M-69.1,187.4L-69.1,187.4L-69.1,187.4
	L-69.1,187.4z M-56.5,175.6l-0.7,0.5c0.7,0.4,0.9,0.7,1.5,1.6l0.9-0.6C-55.1,176.4-55.6,176.1-56.5,175.6z M-14.4,177.1h2.5v2.5
	l1.1-0.2v-2.3h2.3v1.2c0,0.2,0,0.3-0.1,0.4c0,0,0,0-0.4,0c-0.2,0-0.3,0-0.7,0c0.4,0.6,0.6,1,0.5,1.1c0.6,0,0.9-0.2,1.2-0.4
	s0.7-0.4,0.7-0.9v-7h-3.2l0.8-0.4l-0.6-0.4c0.3-0.5,1.1-1,2-1.7l-0.4-0.8h-6.4v1h4.9v0.1c-0.5,0.4-0.9,0.8-1.2,0.9
	c-0.7-0.3-1-0.3-1.4-0.4l-0.7,0.6c1.2,0.5,2.2,1,2.4,1.1h-4.5v8h1.2C-14.4,179.5-14.4,177.1-14.4,177.1z M-10.8,172.7h2.3v1.2h-2.3
	V172.7z M-10.8,175h2.3v1.2h-2.3V175z M-14.4,172.7h2.5v1.2h-2.5V172.7z M-14.4,175h2.5v1.2h-2.5V175z M-29.3,169.5h-5.3v1.1h5.3
	V169.5z M-17.3,171.6l1-0.7c-0.6-0.9-1.2-1.6-1.9-2.4l-1.1,0.7C-18.4,170-17.9,170.6-17.3,171.6z M-54.3,177.9h-3.5v-2.7h2.9v-1.1
	h-2.9v-1.7h3.3v-1.1h-7.6v1.1h3.1v1.7h-2.7v1.1h2.7v2.7h-3.3v1.1h8V177.9z M-34.4,178.1c-0.1,0.2-0.6,0.2-0.7,0.3l0.9,1.7l0.5-0.6
	c1.2-0.4,1.3-0.4,3.4-0.9c0.1,0.3,0.2,0.5,0.3,0.8l1.3-0.4c-0.3-1.1-1.2-2.9-1.5-3.8l-1,0.4c0.4,0.7,0.6,1.9,0.6,2.1l-2.4,0.6
	c0,0,0.5-2.6,0.9-4.4h3.1v-1.2h-6.1v1.2h1.8c-0.1,1-0.5,2-0.6,3C-34.1,177.5-34.1,177.7-34.4,178.1z M-50.5,177.8l0.9,1.2
	c0.1-0.1,0.2-0.6,0.3-0.6c0.8-0.9,1.3-1.8,1.7-2.5l0,0v6.2h1.2v-6.9c0.4,0.3,0.7,1.1,1.2,1.8l0.7-0.9c-0.6-0.8-1.5-1.7-1.8-1.9
	l-0.2,0.1v-0.8h1.9v-1.1h-1.9v-2.1c0.5-0.1,1.2-0.3,1.9-0.6l-0.9-1.1c-1.2,0.6-2.5,1-4.7,1.2l0.7,1.1c0.8-0.1,1.4-0.2,1.8-0.3v1.8
	h-2.4v1.1h2.4c0,0.2,0,0.3,0,0.4C-48.3,174.9-49.1,176.4-50.5,177.8z M-8.9,189.3c0.3-0.3,0.8-0.7,0.8-1.7c0-0.6-0.3-2.5-2.8-2.5
	h-3.6v9h4c2.4,0,3-1.7,3-2.6C-7.5,190.1-8.5,189.5-8.9,189.3z M-13.2,186.3h2.3c0.3,0,1.5,0,1.5,1.3c0,0.5-0.2,1.2-1.4,1.2h-2.4
	C-13.2,188.8-13.2,186.3-13.2,186.3z M-10.4,192.8h-2.7V190h2.5c0.5,0,1.1,0,1.5,0.6c0.2,0.2,0.3,0.6,0.3,0.9
	C-8.8,191.9-9.1,192.8-10.4,192.8z M-3.1,173.3v8.3h1.2c0,0,0-9.4,0-10.2c0.1-0.6,0.7-2,0.7-2c0.4-0.5,0.6-0.2,0.6-0.6l-1.6-0.9
	c-0.9,3-1.8,4.9-3.3,6.5l0.8,1.4C-4,174.7-3.7,174-3.1,173.3L-3.1,173.3z M-2.6,185.1h-1.3v9h5.2v-1.2h-3.9
	C-2.6,192.9-2.6,185.1-2.6,185.1z M-0.4,173.9h7.6v-1.2h-7.6C-0.4,172.7-0.4,173.9-0.4,173.9z M-6.5,194h1.3v-9h-1.3V194z
	 M-0.4,175.9h7.6v-1.2h-7.6C-0.4,174.7-0.4,175.9-0.4,175.9z M-0.4,181.1h7.6V177h-7.6C-0.4,177-0.4,181.1-0.4,181.1z M6.1,178v1.8
	H0.7V178H6.1z M1.7,194h5.8v-1.2H3v-2.7h4.5v-1.2H3v-2.6h4.5v-1.2H1.7V194z M4.2,170.5c-0.1-1-0.4-1.8-0.9-2.6l-1.1,0.3
	c0.5,0.9,0.8,1.7,0.9,2.3h-4.4v1.2H8v-1.2H4.2z M-70.5,185.8c-1-0.7-2-0.9-2.7-0.9c-2.5,0-4.6,2-4.6,4.6c0,2.5,2,4.7,4.6,4.7
	c1.4,0,3-0.6,4.1-2.4h-1.6c-0.6,0.7-1.5,1.2-2.4,1.2c-1.8,0-3.3-1.6-3.3-3.5s1.5-3.4,3.3-3.4c1.4,0,2.2,0.9,2.5,1.2h1.6
	C-69.3,187-69.7,186.4-70.5,185.8z M-9,180.2c-0.4,0-1.3,0.1-1.8,0.1c-1.9,0-3.8-0.1-4.5-0.3s-1.4-0.6-1.9-1.2v-6H-20v1.1h1.7v4.8
	c-1.3,1.1-1.4,1.5-1.9,1.8l1.1,1c0.2-0.4,1.2-1.6,1.4-1.8c0.6,0.6,1.2,1.2,1.9,1.4c0.6,0.2,1.9,0.4,2.9,0.4l6.3-0.1
	c0.1-0.5,0.1-0.9,0.6-1.3L-9,180.2z M-20,184.9c-2.7,0-4.6,2.2-4.6,4.6c0,2.4,2,4.6,4.6,4.6c2.7,0,4.7-2.2,4.7-4.6
	C-15.3,187-17.3,184.9-20,184.9z M-20,193c-2.3,0-3.3-2-3.3-3.5c0-1.4,1.1-3.4,3.3-3.4c2.3,0,3.4,1.9,3.4,3.5
	C-16.6,191-17.7,193-20,193z M-49.9,191.9L-49.9,191.9l-5.5-6.8h-1.2v9h1.4v-6.9l0,0l5.5,6.9h1.2v-9h-1.4V191.9z M-44.3,185.1
	l-4.1,9h1.5l1.2-2.6h4l1.2,2.6h1.5l-4-9H-44.3z M-45.1,190.2l1.4-3.4l0,0l1.5,3.4H-45.1z M-62.2,188.7h-5.1v-3.6h-1.3v9h1.3v-4.3
	h5.1v4.3h1.3v-9h-1.3C-62.2,185.1-62.2,188.7-62.2,188.7z M-59.5,194h1.3v-9h-1.3V194z M-39.5,174.6c0.3-0.1,0.6-0.1,0.5-0.4
	l-1.2-0.2c1.5-0.9,2.5-2,3-3.4c0-0.2,0-0.3,0.1-0.6l-0.3-0.4h-4c0,0,0.3-0.5,0.5-0.6c0.1-0.2,0.5-0.2,0.5-0.4c0,0-0.5-0.2-1.1-0.5
	s-0.6,0.4-0.6,0.4c-0.7,1.4-1.5,2.6-2.5,3.6l1.1,0.6c0.6-0.7,0.9-1.2,1.7-2h3.5c-0.4,0.7-1.1,1.4-2.1,2.2c-0.4-0.6-0.9-1.1-1.4-1.3
	l-0.8,0.7c0.7,0.3,1.2,0.6,1.2,1.2c-0.9,0.5-1.9,0.9-3.3,1.1l0.6,0.5l0.2,0.6c1.4-0.4,2.6-0.9,3.6-1.5c-0.9,1.5-3.4,3.3-4.5,3.6
	l0.7,0.5l0.3,0.4c1.2-0.7,2-1.3,2.9-2.1h3c-0.5,1.1-0.8,1.6-1.9,2.7c-0.4-0.7-1-1.3-1.4-1.5l-0.8,0.7c0.6,0.5,1.1,0.8,1.4,1.3
	c-1.1,0.7-2.1,0.9-4.4,1.1c0.6,0.5,0.3,1.3,0.8,1.2c2.5-0.5,3.3-0.4,5.2-2c1.5-1.3,2.4-2.8,2.7-4.5H-40L-39.5,174.6z M-23.8,181.5
	c0.7,0,1.3-0.6,1.4-1.2c0-0.6,0.2-3.9,0.6-9h-3.3v-2.9c0.3-0.2,0.6-0.5,0.1-0.5l-1.5-0.2v3.6h-2.3v1.2h2.3v1.3
	c0,0.7-0.2,1.6-0.4,2.6c-0.5,1.8-1.7,3.1-1.7,3.1c-0.5,0.6-1.5,1.2-2.4,1.4l1.5,1c1.5-0.9,2.3-1.9,3-3.2c0.8-1.4,1.2-3.6,1.2-6.2
	h2.1c-0.1,1.3-0.1,2.8-0.2,4.2s-0.1,2.2-0.3,2.7c-0.1,0.6-0.1,0.9-0.8,0.8c-0.3,0-0.9-0.1-1.1-0.1c0.1,0.4,0.6,0.8,0.6,1.4
	C-24.3,181.6-23.9,181.5-23.8,181.5z M-30.3,192l-3.4-6.9h-1.5v9h1.3v-6.7l3,6.7h1.1l3-6.7l0,0v6.7h1.3v-9H-27L-30.3,192z"/>
</svg>
