<?xml version="1.0" encoding="UTF-8" standalone="no"?>
<svg id="msa" xmlns:rdf="http://www.w3.org/1999/02/22-rdf-syntax-ns#" xmlns="http://www.w3.org/2000/svg" height="20" width="165" version="1.1" xmlns:cc="http://creativecommons.org/ns#" xmlns:dc="http://purl.org/dc/elements/1.1/">
 <metadata id="metadata35">
  <rdf:RDF>
   <cc:Work rdf:about="">
    <dc:format>image/svg+xml</dc:format>
    <dc:type rdf:resource="http://purl.org/dc/dcmitype/StillImage"/>
    <dc:title/>
   </cc:Work>
  </rdf:RDF>
 </metadata>
 <svg id="svg3" version="1.1" fill="#29A5DE" viewBox="0 0 165 20">
  <path id="path5" d="m18 19h-2v-11.9c0-0.9 0-2.1 0.1-3.4-0.2 0.8-0.4 1.4-0.5 1.7l-6.1 13.6h-1l-6-13.5c-0.2-0.4-0.3-1-0.5-1.8v3.4 11.9h-2v-17.7h2.7l5.4 12.3c0.4 0.9 0.7 1.7 0.8 2.1h0.1c0.4-1 0.6-1.7 0.9-2.2l5.5-12.3h2.6v17.8z"/>
  <path id="path7" d="m22.8 3.1c-0.4 0-0.7-0.1-0.9-0.4s-0.4-0.6-0.4-0.9 0.1-0.7 0.4-0.9c0.3-0.3 0.6-0.4 0.9-0.4 0.4 0 0.7 0.1 0.9 0.4 0.3 0.3 0.4 0.6 0.4 0.9 0 0.4-0.1 0.7-0.4 0.9-0.2 0.3-0.5 0.4-0.9 0.4zm1 15.9h-2v-12.7h2v12.7z"/>
  <path id="path9" d="m35.8 18.4c-1 0.6-2.1 0.9-3.5 0.9-1.8 0-3.3-0.6-4.4-1.8s-1.7-2.7-1.7-4.6c0-2.1 0.6-3.7 1.8-5 1.4-1.2 2.9-1.9 4.9-1.9 1.1 0 2.1 0.2 3 0.7v2.1c-0.9-0.7-1.9-1-3-1-1.3 0-2.3 0.5-3.2 1.4-0.8 0.9-1.2 2.1-1.2 3.6s0.4 2.6 1.2 3.5 1.8 1.3 3.1 1.3c1.1 0 2.1-0.4 3.1-1.1v1.9z"/>
  <path id="path11" d="m44.9 8.4c-0.4-0.3-0.9-0.4-1.6-0.4-0.9 0-1.6 0.4-2.2 1.2s-0.9 1.9-0.9 3.3v6.5h-2v-12.7h2v2.6c0.3-0.9 0.7-1.6 1.3-2.1s1.3-0.7 2-0.7c0.5 0 0.9 0.1 1.2 0.2v2.1z"/>
  <path id="path13" d="m51.4 19.3c-1.9 0-3.4-0.6-4.5-1.8s-1.7-2.7-1.7-4.7c0-2.1 0.6-3.8 1.7-5s2.8-1.8 4.8-1.8c1.9 0 3.4 0.6 4.4 1.7 1.1 1.2 1.6 2.8 1.6 4.8s-0.6 3.6-1.7 4.8c-1.2 1.3-2.7 2-4.6 2zm0.1-11.6c-1.3 0-2.3 0.4-3.1 1.3s-1.1 2.1-1.1 3.7c0 1.5 0.4 2.7 1.1 3.5 0.8 0.9 1.8 1.3 3.1 1.3s2.3-0.4 3-1.3c0.7-0.8 1.1-2 1.1-3.6s-0.4-2.8-1.1-3.6-1.7-1.3-3-1.3z"/>
  <path id="path15" d="m59.5 18.5v-2.2c1.1 0.8 2.3 1.2 3.6 1.2 1.8 0 2.7-0.6 2.7-1.8 0-0.3-0.1-0.6-0.2-0.9l-0.6-0.6c-0.3-0.2-0.6-0.3-0.9-0.5-0.3-0.1-0.7-0.3-1.1-0.4-0.6-0.2-1-0.4-1.5-0.7-0.4-0.2-0.8-0.5-1.1-0.8s-0.5-0.6-0.6-1-0.2-0.8-0.2-1.3c0-0.6 0.1-1.1 0.4-1.6 0.2-0.2 0.5-0.6 1-0.9s1-0.5 1.5-0.7c0.6-0.2 1.2-0.3 1.8-0.3 1.1 0 2.1 0.2 2.9 0.6v2c-0.9-0.6-2-0.9-3.2-0.9-0.4 0-0.7 0-1 0.1s-0.6 0.2-0.8 0.4-0.4 0.3-0.5 0.6c-0.1 0.2-0.2 0.5-0.2 0.7 0 0.3 0.1 0.6 0.2 0.8s0.3 0.4 0.5 0.6 0.5 0.3 0.8 0.5c0.3 0.1 0.7 0.3 1.1 0.5 0.6 0.2 1.1 0.4 1.5 0.7 0.4 0.2 0.8 0.5 1.1 0.8s0.6 0.6 0.7 1c0.2 0.4 0.3 0.8 0.3 1.3 0 0.6-0.1 1.2-0.4 1.6-0.3 0.5-0.6 0.8-1.1 1.1s-1 0.5-1.6 0.7c-0.6 0.1-1.2 0.2-1.9 0.2-1.1 0-2.3-0.3-3.2-0.8z"/>
  <path id="path17" d="m75.6 19.3c-1.9 0-3.4-0.6-4.5-1.8s-1.7-2.7-1.7-4.7c0-2.1 0.6-3.8 1.7-5 1.3-1.2 2.8-1.8 4.8-1.8 1.9 0 3.4 0.6 4.4 1.7 1.1 1.2 1.6 2.8 1.6 4.8s-0.6 3.6-1.7 4.8c-1.2 1.3-2.7 2-4.6 2zm0.1-11.6c-1.3 0-2.3 0.4-3.1 1.3s-1.1 2.1-1.1 3.7c0 1.5 0.4 2.7 1.1 3.5 0.8 0.9 1.8 1.3 3.1 1.3s2.3-0.4 3-1.3c0.7-0.8 1.1-2 1.1-3.6s-0.4-2.8-1.1-3.6c-0.6-0.8-1.7-1.3-3-1.3z"/>
  <path id="path19" d="m97.6 8.1v-1.8h-3.2v-3.7l-2 0.7v3.1h-5.5v-2c0-1.8 0.7-2.7 2.1-2.7 0.5 0 0.9 0.1 1.3 0.3v-1.8c-0.4-0.1-0.9-0.2-1.5-0.2-1.1 0-2.1 0.4-2.9 1.2s-1.1 1.8-1.1 3.1v2h-2.2v1.7h2.2v11h2v-10.9h5.5v7.5c0 2.5 1.1 3.7 3.3 3.7 0.8 0 1.4-0.1 1.9-0.4v-1.7c-0.4 0.3-0.8 0.4-1.3 0.4-0.7 0-1.1-0.2-1.4-0.5-0.3-0.4-0.4-1-0.4-1.8v-7.2h3.2z"/>
  <path id="path21" d="m119.9 19h-2.3l-1.9-5h-7.5l-1.8 5h-2.3l6.9-17.7h2.1l6.8 17.7zm-4.8-6.9l-2.8-7.5c-0.1-0.2-0.2-0.6-0.3-1.2-0.1 0.5-0.2 0.9-0.3 1.2l-2.7 7.5h6.1z"/>
  <path id="path23" d="m130.4 6.9l-7.5 10.3h7.4v1.8h-10.3v-0.6l7.5-10.3h-6.8v-1.8h9.7v0.6z"/>
  <path id="path25" d="m142.6 19h-2v-2c-0.8 1.5-2.1 2.3-3.9 2.3-3 0-4.5-1.8-4.5-5.4v-7.6h2v7.2c0 2.7 1 4 3.1 4 1 0 1.8-0.4 2.4-1.1s1-1.7 1-2.9v-7.2h2v12.7z"/>
  <path id="path27" d="m152.6 8.4c-0.4-0.3-0.9-0.4-1.5-0.4-0.9 0-1.6 0.4-2.2 1.2s-0.9 1.9-0.9 3.3v6.5h-2v-12.7h2v2.6c0.3-0.9 0.7-1.6 1.3-2.1s1.3-0.7 2-0.7c0.5 0 0.9 0.1 1.2 0.2v2.1z"/>
  <path id="path29" d="m164 13.1h-8.9c0 1.4 0.4 2.5 1.1 3.3s1.7 1.1 3 1.1c1.4 0 2.7-0.5 3.9-1.4v1.9c-1.1 0.8-2.6 1.2-4.4 1.2s-3.2-0.6-4.2-1.7-1.5-2.8-1.5-4.8 0.6-3.6 1.7-4.8 2.5-1.9 4.1-1.9 2.9 0.5 3.8 1.6 1.4 2.6 1.4 4.4v1.1zm-2.1-1.7c0-1.2-0.3-2.1-0.8-2.7-0.6-0.6-1.3-1-2.3-1s-1.8 0.3-2.4 1c-0.7 0.7-1.1 1.6-1.2 2.7h6.7z"/>
 </svg>
</svg>
