<svg xmlns="http://www.w3.org/2000/svg" viewBox="0 0 570 720"><path d="M158.38 1.656c-3.62.113-7.517 1.45-11.938 4.938-10.83-4.177-21.33-5.627-30.72 2.875-14.5-1.882-19.212 2-22.782 6.53-3.183-.066-23.82-3.272-33.282 10.844C35.878 24.03 28.36 40.832 36.878 56.5c-4.858 7.52-9.89 14.947 1.468 29.28-4.018 7.985-1.528 16.645 7.937 27.126-2.498 11.223 2.412 19.14 11.22 25.312-1.648 15.358 14.083 24.287 18.78 27.47 1.804 8.948 5.563 17.392 23.53 22.06 2.965 13.337 13.763 15.64 24.22 18.44-34.562 20.09-64.2 46.522-64 111.38l-5.062 9.03c-39.63 24.1-75.284 101.56-19.53 164.52 3.643 19.708 9.75 33.864 15.19 49.53 8.133 63.132 61.217 92.693 75.218 96.19 20.517 15.627 42.368 30.456 71.938 40.843 27.875 28.75 58.074 39.707 88.438 39.69.445 0 .898.004 1.344 0 30.364.018 60.562-10.94 88.438-39.69 29.57-10.386 51.42-25.215 71.938-40.843 14-3.496 67.085-33.057 75.22-96.188 5.437-15.668 11.545-29.824 15.187-49.532 55.755-62.965 20.1-140.43-19.53-164.53l-5.07-9.03c.2-64.852-29.438-91.285-64-111.38 10.457-2.798 21.256-5.1 24.22-18.438 17.967-4.67 21.727-13.114 23.53-22.062 4.697-3.18 20.428-12.11 18.78-27.47 8.807-6.17 13.718-14.09 11.22-25.31 9.464-10.482 11.956-19.142 7.937-27.126 11.36-14.328 6.32-21.756 1.47-29.275 8.51-15.668 1-32.47-22.79-29.656-9.46-14.115-30.09-10.91-33.28-10.843-3.57-4.53-8.28-8.412-22.78-6.53-9.39-8.503-19.89-7.052-30.72-2.876-12.86-10.147-21.37-2.012-31.09 1.063-15.57-5.087-19.13 1.88-26.78 4.72-16.98-3.59-22.14 4.223-30.28 12.468l-9.47-.186c-25.61 15.093-38.333 45.826-42.843 61.625-4.512-15.803-17.206-46.536-42.812-61.626l-9.468.187c-8.15-8.244-13.31-16.056-30.29-12.468-7.65-2.838-11.2-9.806-26.78-4.72-6.38-2.017-12.247-6.213-19.156-6z"/><path d="M107.39 68.056c67.948 35.03 107.45 63.37 129.09 87.504-11.082 44.418-68.896 46.445-90.036 45.2 4.328-2.016 7.94-4.43 9.22-8.137-5.304-3.77-24.112-.397-37.243-7.774 5.045-1.046 7.404-2.064 9.763-5.786-12.406-3.957-25.77-7.367-33.628-13.92 4.242.05 8.202.948 13.74-2.894-11.112-5.988-22.97-10.734-32.18-19.887 5.745-.14 11.938-.057 13.74-2.17-10.17-6.3-18.752-13.307-25.855-20.97 8.04.97 11.435.133 13.38-1.267-7.688-7.874-17.42-14.523-22.058-24.226 5.97 2.057 11.43 2.845 15.368-.18-2.612-5.894-13.805-9.37-20.25-23.143 6.286.61 12.95 1.37 14.284 0-2.917-11.884-7.922-18.565-12.83-25.487 13.45-.2 33.827.052 32.904-1.085l-8.316-8.497c13.138-3.537 26.58.568 36.34 3.616 4.382-3.458-.078-7.83-5.424-12.294 11.165 1.49 21.254 4.057 30.373 7.593 4.873-4.4-3.163-8.8-7.05-13.198 17.25 3.273 24.557 7.87 31.82 12.475 5.27-5.05.302-9.343-3.254-13.74 13.006 4.817 19.705 11.036 26.758 17.175 2.39-3.227 6.075-5.592 1.627-13.38 9.235 5.324 16.19 11.596 21.335 18.623 5.713-3.638 3.404-8.613 3.435-13.198 9.597 7.807 15.687 16.114 23.142 24.226 1.502-1.093 2.817-4.802 3.978-10.667 22.895 22.21 55.246 78.157 8.316 100.34-39.94-32.94-87.64-56.884-140.5-74.845zM467.92 68.056c-67.94 35.034-107.44 63.364-129.08 87.504 11.082 44.418 68.896 46.445 90.036 45.2-4.328-2.016-7.94-4.43-9.22-8.137 5.304-3.77 24.113-.397 37.244-7.774-5.045-1.046-7.404-2.064-9.763-5.786 12.406-3.957 25.77-7.367 33.628-13.92-4.242.05-8.202.948-13.74-2.894 11.112-5.988 22.97-10.734 32.18-19.887-5.745-.14-11.938-.057-13.74-2.17 10.17-6.3 18.752-13.307 25.855-20.97-8.04.97-11.435.133-13.38-1.267 7.688-7.874 17.42-14.523 22.058-24.226-5.97 2.057-11.43 2.845-15.368-.18 2.612-5.894 13.805-9.37 20.25-23.143-6.286.61-12.95 1.37-14.284 0 2.922-11.89 7.927-18.57 12.836-25.492-13.45-.2-33.828.052-32.905-1.085l8.316-8.497c-13.138-3.537-26.58.568-36.34 3.616-4.382-3.46.078-7.83 5.424-12.295-11.165 1.49-21.254 4.057-30.373 7.593-4.873-4.4 3.164-8.798 7.05-13.198-17.248 3.273-24.556 7.87-31.82 12.475-5.27-5.05-.3-9.343 3.255-13.74-13.007 4.817-19.706 11.036-26.76 17.175-2.39-3.227-6.074-5.592-1.626-13.38-9.234 5.324-16.19 11.596-21.334 18.623-5.713-3.638-3.404-8.613-3.435-13.198-9.597 7.807-15.687 16.114-23.142 24.226-1.502-1.092-2.817-4.8-3.978-10.666-22.895 22.212-55.246 78.158-8.316 100.34 39.918-32.947 87.615-56.888 140.48-74.85z" fill="#75a928"/><path d="M369.94 520.336a81.39 75.048 0 1 1-162.778 0 81.39 75.048 0 1 1 162.777 0zM241.453 305.96c47.006 30.797 36.815 109.924-18.344 142.43-25.6 15.085-54.81 15.574-76.625 1.282-47.005-30.796-36.814-109.923 18.345-142.43 25.6-15.085 54.808-15.574 76.623-1.28zM332.457 301.96c-47.006 30.797-36.815 109.924 18.344 142.43 25.6 15.085 54.81 15.574 76.625 1.282 47.005-30.796 36.814-109.923-18.345-142.43-25.6-15.085-54.808-15.574-76.623-1.28zM72.91 342.09c36.41-9.76 12.292 150.63-17.333 137.47C22.99 453.35 12.494 376.59 72.91 342.09zM493.68 340.09c-36.414-9.757-12.292 150.64 17.333 137.48 32.587-26.213 43.083-102.98-17.333-137.48zM369.97 220.65c62.835-10.61 115.12 26.722 113.01 94.858-2.067 26.12-136.16-90.97-113.01-94.858zM196.36 218.65c-62.84-10.61-115.12 26.73-113.01 94.86 2.067 26.12 136.16-90.97 113.01-94.86zM286.62 202.76c-37.503-.975-73.495 27.834-73.582 44.544-.105 20.304 29.65 41.093 73.837 41.62 45.123.323 73.916-16.64 74.06-37.594.166-23.74-41.038-48.937-74.316-48.57zM288.91 619.12c32.697-1.427 76.57 10.532 76.657 26.396.543 15.405-39.79 50.21-78.826 49.538-40.426 1.744-80.068-33.116-79.55-45.2-.604-17.715 49.227-31.547 81.72-30.734zM168.14 525.1c23.28 28.046 33.89 77.32 14.464 91.844-18.38 11.088-63.012 6.522-94.736-39.052-21.395-38.242-18.638-77.157-3.616-88.59 22.464-13.683 57.173 4.8 83.89 35.798zM405.02 516.21c-25.187 29.502-39.212 83.31-20.838 100.64 17.568 13.464 64.73 11.582 99.566-36.756 25.296-32.465 16.82-86.682 2.37-101.08-21.463-16.602-52.276 4.645-81.098 37.188z" fill="#bc1142"/></svg>