<?xml version="1.0" encoding="UTF-8" standalone="no"?>
<!-- Generator: Adobe Illustrator 19.1.0, SVG Export Plug-In . SVG Version: 6.00 Build 0)  -->
<svg xmlns="http://www.w3.org/2000/svg" xml:space="preserve" height="203.7px" width="354.1px" version="1.1" y="0px" x="0px" xmlns:xlink="http://www.w3.org/1999/xlink" viewBox="0 0 354.1 203.7" enable-background="new 0 0 354.1 203.7">
<symbol id="Bush_Left" viewBox="-43.3 -24.3 86.6 48.6">
	<g fill="#00A651">
			<path d="m-33.9-3.5c8.3 8.9 13.2 21.5 13.2 21.5-3.4-10.5-7.5-15.7-14.2-24.2l1 2.7z"/>
			<path d="m-30.5 3.2c0.3 2.3 2.4 11.4 2.4 11.4l-2.2-5.6c-0.5-2.9 0.8-5.6 0.4-8l-0.6 2.2z"/>
			<path d="m-27.7 8.6c0.3 2.3 1.7 9.8 1.7 9.8l-0.5-3.8c0-2.4-0.2-5.7-0.5-8.1l-0.7 2.1z"/>
			<path d="m-24.2 13.4c0.2 1.4 3.1 6.6 3.1 6.6l-2.2-2.9c0-1.5-0.2-3.5-0.4-5l-0.5 1.3z"/>
			<path d="m-21.2 18.1c0.6 1.2 2.8 6.2 2.8 6.2l-1.3-3.5c-0.3-1.3-1-3-1.6-4.3l0.1 1.6z"/>
			<path d="m-26 10.3c0.3 2.3 1.7 9.8 1.7 9.8l-1.2-4.8c0-2.4 0.4-4.7 0.1-7.1l-0.6 2.1z"/>
			<path d="m-24.5 3.5c1.4 0.9 6.5 3.4 6.5 3.4l-3.3-2.2c-1.8-1.2-5.3-0.6-6.8-1.5l3.6 0.3z"/>
			<path d="m-21.9 6.9c1.9 1.3 6.1 5.1 6.1 5.1l-3.2-2.1c-2.2-1.1-5.1-2.7-7.1-4l4.2 1z"/>
			<path d="m-21.8 13.1c1 0.9 3.9 6.2 3.9 6.2l-1.3-3.4c-1.2-0.8-2.8-2-3.9-3l1.3 0.2z"/>
			<path d="m-23.3 9.5c1.6 1 6 5.9 6 5.9l-2.6-3.9c-1.8-0.9-3.5-1.2-5.1-2.2l1.7 0.2z"/>
			<path d="m-33 0.4c0.3 2.3 1.6 12.7 1.6 12.7l-1.4-6.9c-0.5-2.9 0.8-5.6 0.4-8l-0.6 2.2z"/>
			<path d="m-35-1.3c0.3 2.3 1.6 12.7 1.6 12.7l-1.4-6.9c-0.5-2.9 0.8-5.6 0.4-8l-0.6 2.2z"/>
			<path d="m-29.4-0.6c1.5 0.6 10.2 4.3 10.2 4.3l-4.8-3.1c-1.9-0.8-5.4-0.5-7-1.1l1.6-0.1z"/>
			<path d="m-30-3.3c1.7 0.7 9.7 4.1 9.7 4.1l-5.1-2.8c-2.1-1-4.6-0.2-6.4-1l1.8-0.3z"/>
			<path d="m-41.1-9.8c17.3-2.8 35.8-10.6 35.8-10.6-13.5 6.7-22.8 8.7-38 12.1l2.2-1.5z"/>
			<path d="m-29.9-13.6c2.4-1.7 13.1-8 13.1-8l-7.5 3.4c-3.2 2.1-4.2 4.9-6.8 6.7l1.2-2.1z"/>
			<path d="m-21.8-16.4c2.4-1.7 10.9-7 10.9-7l-4.1 2.8c-2.2 2-5.5 4.5-8 6.3l1.2-2.1z"/>
			<path d="m-13.5-18.5c1.5-1 9.4-3.7 9.4-3.7l-5.1 1.2c-1.4 1.2-3.4 2.8-5 3.8l0.7-1.3z"/>
			<path d="m-5.9-20.7c1.7-0.6 8.8-3.6 8.8-3.6l-4.6 2.2c-1.5 0.9-3.8 1.9-5.7 2.6l1.5-1.2z"/>
			<path d="m-18.4-17c2.4-1.7 10.9-7 10.9-7l-5.7 3.3c-2.2 2-3.8 4-6.4 5.8l1.2-2.1z"/>
			<path d="m-22.9-10.7c2.4 0 10.3 0.7 10.3 0.7h-5.7c-3 0-6.5-2.3-9-2.3l4.4 1.6z"/>
			<path d="m-16.9-12c3.3 0 11.4-0.9 11.4-0.9l-5.5 0.1c-3.4-0.3-8.1-0.5-11.5-0.4l5.6 1.2z"/>
			<path d="m-11.2-17c2-0.2 9.9-3 9.9-3l-4.5 2.1c-2.1 0-5 0.2-7.1 0.4l1.7 0.5z"/>
			<path d="m-16.1-14.9c2.7 0 12-1.6 12-1.6l-6.5 1.8c-2.8-0.3-4.9-0.9-7.7-0.9l2.2 0.7z"/>
			<path d="m-35.2-12.6c2.4-1.7 13.4-9.5 13.4-9.5l-7.8 4.8c-3.2 2.1-4.2 4.9-6.8 6.7l1.2-2z"/>
			<path d="m-38.9-12.3c2.4-1.7 13.4-9.5 13.4-9.5l-7.8 4.8c-3.2 2.1-4.2 4.9-6.8 6.7l1.2-2z"/>
			<path d="m-32-10c2.3 0.3 15.2 1.9 15.2 1.9h-8.2c-2.9-0.3-6.4-2.5-8.8-2.8l1.8 0.9z"/>
			<path d="m-35.2-8c2.6 0.3 14.5 1.8 14.5 1.8l-8.2-0.5c-3.3-0.3-5.3-2.2-8.1-2.5l1.8 1.2z"/>
			<path d="m-20-4.8c13.5-2 27.7-7.1 27.7-7.1-10.5 4.7-17.7 6.2-29.6 8.6l1.9-1.5z"/>
			<path d="m-11.4-7c1.9-1.2 10.2-5.6 10.2-5.6l-5.8 2.3c-2.5 1.5-3.3 3.4-5.3 4.7l0.9-1.4z"/>
			<path d="m-5.1-9c1.9-1.2 8.5-5 8.5-5l-3.2 2c-1.7 1.3-4.3 3.1-6.2 4.4l0.9-1.4z"/>
			<path d="m1.3-10.5c1.2-0.7 7.3-2.6 7.3-2.6l-4 0.9c-1.1 0.8-2.6 1.9-3.9 2.7l0.6-1z"/>
			<path d="m7.3-12.1c1.4-0.4 6.8-2.5 6.8-2.5l-3.6 1.5c-1.2 0.6-3 1.4-4.4 1.8l1.2-0.8z"/>
			<path d="m-2.5-9.5c1.9-1.2 8.5-5 8.5-5l-4.5 2.3c-1.7 1.4-3 2.8-5 4.1l1-1.4z"/>
			<path d="m-6-5c1.8 0 8 0.5 8 0.5h-4.5c-2.4 0-5-1.6-7-1.7l3.5 1.2z"/>
			<path d="m-1.3-5.9c2.5 0 8.9-0.6 8.9-0.6h-4.3c-2.7-0.2-6.3-0.3-9-0.3l4.4 0.9z"/>
			<path d="m3.1-9.5c1.6-0.1 7.7-2.1 7.7-2.1l-3.5 1.5c-1.7 0-3.9 0.1-5.6 0.3l1.4 0.3z"/>
			<path d="m-0.7-7.9c2.1 0 9.3-1.1 9.3-1.1l-5 1.2c-2.2-0.2-3.8-0.7-6-0.7l1.7 0.6z"/>
			<path d="m-15.5-6.3c1.8-1.2 10.4-6.7 10.4-6.7l-6.1 3.4c-2.5 1.5-3.3 3.4-5.3 4.7l1-1.4z"/>
			<path d="m-18.4-6.2c1.8-1.1 10.4-6.6 10.4-6.6l-6.1 3.4c-2.5 1.5-3.3 3.4-5.3 4.7l1-1.5z"/>
			<path d="m-13.1-4.5c1.8 0.2 11.9 1.3 11.9 1.3h-6.4c-2.3-0.2-5-1.7-6.8-2l1.3 0.7z"/>
			<path d="m-15.6-3.1c2 0.2 11.3 1.3 11.3 1.3l-6.4-0.3c-2.6-0.3-4.1-1.6-6.3-1.9l1.4 0.9z"/>
			<path d="m1.7-2.1c12.2-1.7 25.1-6.1 25.1-6.1-9.5 4.1-16.1 5.4-26.8 7.4l1.7-1.3z"/>
			<path d="m9.5-4c1.7-1 9.2-4.8 9.2-4.8l-5.3 2.1c-2.2 1.3-3 3-4.8 4l0.9-1.3z"/>
			<path d="m15.2-5.7c1.7-1 7.7-4.3 7.7-4.3l-2.9 1.7c-1.6 1.2-3.9 2.7-5.7 3.8l0.9-1.2z"/>
			<path d="m21-7c1.1-0.6 6.7-2.3 6.7-2.3l-3.7 0.8c-1 0.7-2.4 1.7-3.5 2.3l0.5-0.8z"/>
			<path d="m26.4-8.3c1.2-0.4 6.2-2.2 6.2-2.2l-3.3 1.3c-1.1 0.5-2.7 1.2-4 1.6l1.1-0.7z"/>
			<path d="m17.6-6.1c1.7-1 7.7-4.3 7.7-4.3l-4 2c-1.6 1.2-2.7 2.4-4.5 3.5l0.8-1.2z"/>
			<path d="m14.3-2.2c1.7 0 7.3 0.4 7.3 0.4h-4c-2.1 0-4.6-1.4-6.3-1.4l3 1z"/>
			<path d="m18.6-3c2.3 0 8.1-0.5 8.1-0.5h-3.9c-2.4-0.2-5.7-0.3-8.1-0.3l3.9 0.8z"/>
			<path d="m22.6-6.1c1.4-0.1 7-1.8 7-1.8l-3.2 1.3c-1.5 0-3.5 0.1-5 0.2l1.2 0.3z"/>
			<path d="m19.2-4.8c1.9 0 8.4-1 8.4-1l-4.6 1.1c-2-0.2-3.5-0.5-5.5-0.5l1.7 0.4z"/>
			<path d="m5.7-3.4c1.7-1 9.5-5.7 9.5-5.7l-5.5 2.9c-2.2 1.3-3 3-4.8 4l0.8-1.2z"/>
			<path d="m3.1-3.2c1.7-1 9.5-5.7 9.5-5.7l-5.6 2.9c-2.2 1.3-3 3-4.8 4l0.9-1.2z"/>
			<path d="m7.9-1.8c1.6 0.2 10.7 1.1 10.7 1.1h-5.8c-2.1-0.2-4.5-1.5-6.2-1.7l1.3 0.6z"/>
			<path d="m5.7-0.6c1.8 0.2 10.3 1.1 10.3 1.1l-5.8-0.3c-2.4-0.2-3.8-1.4-5.8-1.6l1.3 0.8z"/>
			<path d="m14 2.8c11.1-1.5 22.7-5.2 22.7-5.2-8.6 3.5-14.5 4.6-24.3 6.3l1.6-1.1z"/>
			<path d="m21.1 1.2c1.5-0.9 8.3-4.2 8.3-4.2l-4.8 1.8c-2 1.1-2.7 2.6-4.3 3.5l0.8-1.1z"/>
			<path d="m26.2-0.3c1.5-0.9 7-3.7 7-3.7l-2.6 1.5c-1.4 1-3.5 2.4-5.1 3.3l0.7-1.1z"/>
			<path d="m31.5-1.4c1-0.5 6-2 6-2l-3.3 0.6c-0.9 0.6-2.2 1.4-3.2 2l0.5-0.6z"/>
			<path d="m36.4-2.5c1.1-0.4 5.6-1.9 5.6-1.9l-3 1.1c-1 0.5-2.4 1-3.6 1.4l1-0.6z"/>
			<path d="m28.4-0.6c1.5-0.9 7-3.7 7-3.7l-3.6 1.7c-1.4 1-2.4 2.1-4.1 3l0.7-1z"/>
			<path d="m25.5 2.7c1.5 0 6.6 0.3 6.6 0.3h-3.7c-1.9 0-4.1-1.2-5.7-1.2l2.8 0.9z"/>
			<path d="m29.4 2c2.1 0 7.3-0.5 7.3-0.5h-3.5c-2.2-0.1-5.2-0.2-7.4-0.2l3.6 0.7z"/>
			<path d="m33-0.6c1.3-0.1 6.3-1.5 6.3-1.5l-2.9 1.1c-1.4 0-3.2 0.1-4.6 0.2l1.2 0.2z"/>
			<path d="m29.9 0.5c1.7 0 7.6-0.8 7.6-0.8l-4.1 0.9c-1.8-0.1-3.1-0.5-4.9-0.5l1.4 0.4z"/>
			<path d="m17.7 1.7c1.5-0.9 8.6-4.9 8.6-4.9l-5 2.5c-2 1.1-2.7 2.6-4.3 3.5l0.7-1.1z"/>
			<path d="m15.3 1.8c1.5-0.9 8.6-4.9 8.6-4.9l-5 2.5c-2 1.1-2.7 2.5-4.3 3.5l0.7-1.1z"/>
			<path d="m19.7 3.1c1.5 0.2 9.7 1 9.7 1h-5.2c-1.9-0.2-4.1-1.3-5.6-1.5l1.1 0.5z"/>
			<path d="m17.7 4.1c1.6 0.1 9.2 0.9 9.2 0.9l-5.2-0.2c-2.2-0.2-3.4-1.1-5.2-1.3l1.2 0.6z"/>
			<path d="m-16.8 0.1c7.6 6.3 13.9 16 13.9 16-4.1-8.1-8-11.9-14.3-18.1l0.4 2.1z"/>
			<path d="m-12.5 5.1c0.5 1.8 3.3 9.1 3.3 9.1l-2.4-4.3c-0.7-2.3-0.1-4.6-0.7-6.6l-0.2 1.8z"/>
			<path d="m-9.6 9.2c0.5 1.8 2.6 7.9 2.6 7.9l-0.9-3c-0.3-2-0.9-4.7-1.5-6.6l-0.2 1.7z"/>
			<path d="m-6.3 12.7c0.3 1.1 3.2 5 3.2 5l-2.1-2.1c-0.2-1.2-0.6-2.9-0.9-4l-0.2 1.1z"/>
			<path d="m-3.3 16.2c0.6 0.9 3 4.8 3 4.8l-1.5-2.7c-0.4-1-1.1-2.4-1.8-3.3l0.3 1.2z"/>
			<path d="m-8.1 10.5c0.5 1.8 2.6 7.8 2.6 7.8l-1.5-3.8c-0.3-2-0.3-3.9-0.8-5.8l-0.3 1.8z"/>
			<path d="m-7.8 4.7c1.2 0.5 5.5 2 5.5 2l-2.9-1.4c-1.5-0.7-4.2 0.1-5.5-0.4l2.9-0.2z"/>
			<path d="m-5.3 7.1c1.6 0.8 5.4 3.4 5.4 3.4l-2.7-1.4c-1.8-0.6-4.3-1.6-6-2.4l3.3 0.4z"/>
			<path d="m-4.5 12.2c0.9 0.6 3.8 4.6 3.8 4.6l-1.4-2.7c-1.1-0.5-2.5-1.3-3.5-2l1.1 0.1z"/>
			<path d="m-6.1 9.4c1.4 0.6 5.4 4.1 5.4 4.1l-2.6-2.9c-1.5-0.5-2.9-0.5-4.3-1.2h1.5z"/>
			<path d="m-14.8 3.2c0.5 1.8 2.9 10.2 2.9 10.2l-2-5.5c-0.7-2.3-0.1-4.6-0.7-6.6l-0.2 1.9z"/>
			<path d="m-16.6 2.1c0.5 1.8 2.9 10.2 2.9 10.2l-2-5.5c-0.7-2.3-0.1-4.6-0.7-6.6l-0.2 1.9z"/>
			<path d="m-12.2 2c1.3 0.3 8.5 2.3 8.5 2.3l-4.2-2c-1.6-0.4-4.2 0.3-5.6 0l1.3-0.3z"/>
			<path d="m-13-0.2c1.4 0.4 8.1 2.2 8.1 2.2l-4.3-1.6c-1.8-0.6-3.6 0.3-5.2-0.1l1.4-0.5z"/>
			<path d="m-1.7 1.4c5 5.2 8.9 13 8.9 13-2.4-6.5-4.9-9.6-9-14.6l0.1 1.6z"/>
			<path d="m1 5.4c0.3 1.4 1.8 7.1 1.8 7.1l-1.4-3.4c-0.4-1.8 0.2-3.5-0.1-5l-0.3 1.3z"/>
			<path d="m2.8 8.7c0.3 1.4 1.3 6.1 1.3 6.1l-0.4-2.4c-0.1-1.5-0.3-3.6-0.6-5.1l-0.3 1.4z"/>
			<path d="m4.9 11.6c0.2 0.9 2 4 2 4l-1.3-1.8c-0.1-0.9-0.2-2.2-0.4-3.1l-0.3 0.9z"/>
			<path d="m6.8 14.4c0.4 0.7 1.8 3.8 1.8 3.8l-0.9-2.2c-0.2-0.8-0.7-1.9-1.1-2.6l0.2 1z"/>
			<path d="m3.8 9.8c0.3 1.4 1.3 6.1 1.3 6.1l-0.8-3c-0.1-1.5 0.1-3-0.2-4.5l-0.3 1.4z"/>
			<path d="m4.4 5.4c0.8 0.5 3.8 1.8 3.8 1.8l-2-1.2c-1-0.7-3-0.2-3.9-0.7l2.1 0.1z"/>
			<path d="m6 7.4c1.1 0.7 3.6 2.9 3.6 2.9l-1.8-1.2c-1.3-0.6-3-1.5-4.1-2.2l2.3 0.5z"/>
			<path d="m6.3 11.3c0.6 0.6 2.4 3.7 2.4 3.7l-0.8-2.1c-0.7-0.5-1.7-1.2-2.3-1.7l0.7 0.1z"/>
			<path d="m5.3 9.1c0.9 0.6 3.6 3.4 3.6 3.4l-1.6-2.3c-1.1-0.5-2-0.6-3-1.2l1 0.1z"/>
			<path d="m-0.5 3.8c0.3 1.4 1.4 8 1.4 8l-1-4.3c-0.4-1.8 0.2-3.5-0.1-5l-0.3 1.3z"/>
			<path d="m-1.7 2.9c0.3 1.4 1.4 8 1.4 8l-1-4.3c-0.4-1.8 0.2-3.5-0.1-5l-0.3 1.3z"/>
			<path d="m1.5 3c0.9 0.3 5.9 2.2 5.9 2.2l-2.9-1.7c-1.1-0.4-3 0-4-0.4l1-0.1z"/>
			<path d="m1 1.3c1 0.4 5.6 2.1 5.6 2.1l-2.9-1.4c-1.3-0.6-2.6 0-3.7-0.4l1-0.3z"/>
			<path d="m10.4 4.1c5.3 4.5 9.1 10.9 9.1 10.9-2.2-5.3-4.9-8-9.2-12.2l0.1 1.3z"/>
			<path d="m13.2 7.5c0.2 1.1 1.5 5.8 1.5 5.8l-1.4-2.8c-0.3-1.5 0.5-2.8 0.3-4l-0.4 1z"/>
			<path d="m15 10.3c0.2 1.1 1.1 5 1.1 5l-0.3-1.9c0-1.2-0.1-2.9-0.3-4.1l-0.5 1z"/>
			<path d="m17.3 12.7c0.1 0.7 2 3.3 2 3.3l-1.4-1.5c0-0.8-0.1-1.8-0.2-2.5l-0.4 0.7z"/>
			<path d="m19.2 15.1c0.4 0.6 1.8 3.2 1.8 3.2l-0.8-1.8c-0.2-0.7-0.6-1.5-1-2.2v0.8z"/>
			<path d="m16.1 11.2c0.2 1.1 1.1 5 1.1 5l-0.7-2.4c0-1.2 0.3-2.4 0.1-3.6l-0.5 1z"/>
			<path d="m17 7.7c0.9 0.4 4.2 1.7 4.2 1.7l-2.2-1.1c-1.1-0.6-3.4-0.3-4.4-0.8l2.4 0.2z"/>
			<path d="m18.8 9.4c1.2 0.6 3.9 2.6 3.9 2.6l-2-1.1c-1.4-0.5-3.2-1.4-4.5-2l2.6 0.5z"/>
			<path d="m18.8 12.6c0.7 0.5 2.5 3.1 2.5 3.1l-0.8-1.7c-0.8-0.4-1.8-1-2.5-1.5l0.8 0.1z"/>
			<path d="m17.8 10.7c1 0.5 3.8 3 3.8 3l-1.7-2c-1.2-0.4-2.2-0.6-3.3-1.1l1.2 0.1z"/>
			<path d="m11.6 6.1c0.2 1.1 1 6.4 1 6.4l-0.9-3.5c-0.3-1.5 0.5-2.8 0.3-4l-0.4 1.1z"/>
			<path d="m10.3 5.3c0.2 1.1 1 6.4 1 6.4l-0.9-3.5c-0.3-1.5 0.5-2.8 0.3-4l-0.4 1.1z"/>
			<path d="m13.9 5.7c1 0.3 6.5 2.2 6.5 2.2l-3.1-1.6c-1.3-0.4-3.4-0.2-4.5-0.6h1.1z"/>
			<path d="m13.5 4.3c1.1 0.4 6.2 2.1 6.2 2.1l-3.2-1.4c-1.4-0.5-3-0.1-4.1-0.5l1.1-0.2z"/>
			<path d="m22.4 7.2c9.3 2 17.5 6.5 17.5 6.5-5.6-4-10.4-5.4-18.2-7.7l0.7 1.2z"/>
			<path d="m27.8 9.3c0.8 1 4.9 4.8 4.9 4.8l-3.3-2.1c-1.1-1.2-0.7-2.8-1.6-3.9v1.2z"/>
			<path d="m31.5 11.1c0.8 1 3.9 4.2 3.9 4.2l-1.4-1.7c-0.6-1.2-1.6-2.7-2.5-3.7v1.2z"/>
			<path d="m35.7 12.5c0.5 0.6 4.2 2.3 4.2 2.3l-2.6-0.8c-0.4-0.7-1-1.6-1.6-2.3v0.8z"/>
			<path d="m39.4 13.9c0.8 0.4 3.9 2.2 3.9 2.2l-2-1.3c-0.6-0.5-1.6-1.2-2.4-1.6l0.5 0.7z"/>
			<path d="m33.3 11.5c0.8 1 3.9 4.2 3.9 4.2l-2.2-2c-0.6-1.2-0.8-2.3-1.7-3.4v1.2z"/>
			<path d="m32.9 7.9c1.4 0 6.4-0.1 6.4-0.1l-3.4-0.2c-1.8-0.1-4.7 1.1-6.2 1.1l3.2-0.8z"/>
			<path d="m36 8.8c1.9 0.1 6.5 0.8 6.5 0.8l-3.2-0.2c-2.1 0.1-5 0-7-0.1l3.7-0.5z"/>
			<path d="m37.6 11.7c1.1 0.2 4.8 1.9 4.8 1.9l-1.9-1.3c-1.3-0.1-2.9-0.2-4.1-0.4l1.2-0.2z"/>
			<path d="m35.5 10.4c1.6 0.1 6.5 1.2 6.5 1.2l-3.2-1.1c-1.8 0.1-3.2 0.4-4.9 0.3l1.6-0.4z"/>
			<path d="m25 8.6c0.8 1 4.5 5.6 4.5 5.6l-2.9-2.9c-1.1-1.2-0.7-2.8-1.6-3.9v1.2z"/>
			<path d="m22.9 8.3c0.8 1 4.5 5.6 4.5 5.6l-2.9-2.9c-1.1-1.2-0.7-2.8-1.6-3.9v1.2z"/>
			<path d="m27.8 7.2c1.5-0.1 9.7-0.6 9.7-0.6l-4.9-0.2c-1.9 0.1-4.7 1.2-6.2 1.3l1.4-0.5z"/>
			<path d="m26.6 6.1c1.6-0.1 9.3-0.6 9.3-0.6h-5c-2.1 0.1-4 1.1-5.7 1.2l1.4-0.6z"/>
	</g>
</symbol>
<g id="Primo_piano">
	<path fill="#0054A6" clip-rule="evenodd" d="m300 40.3h54.1l-26.8 113.8h-54l26.7-113.8zm-69.3 0h54l-26.2 109c-6.3 26.4-24.6 54.4-62.1 54.4h-81l12.5-37h37.2c17.6 0 37.2-9.7 41.5-27.3l24.1-99.1zm-6.3-40.3h-55.7l-25.9 109.3c-2.5 10.6-6.1 16.7-18.7 16.7h-47.3c-10.7 0-10.5-6.3-8.2-15.5l7.3-30.2c1.8-7.5 4.3-10.9 14.3-10.9h46.6l6.9-29.2h-90.5c-21.4 0-34.4 10.3-39.4 31.6l-12.3 51.2c-5.1 21.4 2.8 31.2 18.2 31.2h132.3c27.8 0 38.5-10.8 43.4-31.4l29-122.8z" fill-rule="evenodd"/>
</g>
</svg>
