<?xml version="1.0" encoding="UTF-8" standalone="no"?>
<!-- Generator: Adobe Illustrator 17.0.2, SVG Export Plug-In . SVG Version: 6.00 Build 0)  -->
<!DOCTYPE svg  PUBLIC '-//W3C//DTD SVG 1.1//EN'  'http://www.w3.org/Graphics/SVG/1.1/DTD/svg11.dtd'>
<svg id="Comp" style="enable-background:new 0 0 340 225" xmlns="http://www.w3.org/2000/svg" xml:space="preserve" height="225px" viewBox="0 0 340 225" width="340px" version="1.1" y="0px" x="0px" xmlns:xlink="http://www.w3.org/1999/xlink">
	<path d="m161.5 200.26c-67.185 6.198-137.21-3.564-147.02-56.07-4.798-25.883 7.009-53.33 22.651-70.39v-9.11c-28.172 24.718-43.443 55.99-34.647 92.93 11.236 47.377 71.319 74.206 163.06 65.297 36.311-3.519 83.798-15.194 116.83-33.34v-25.759c-29.98 17.86-79.56 32.61-120.87 36.44zm176.99-136.18c-15.93-77.805-167-82.737-264.38-23.46v6.547c97.27-50.007 235.24-49.703 247.8 21.969 4.215 23.709-9.141 48.41-33 62.632v18.597c28.7-10.53 58.14-44.58 49.58-86.29z" fill="#0E7DC2"/>
	<path d="m276.94 52.75h-17.615v78.456c0 9.195 4.445 17.19 17.615 18.468v-96.93z" fill="#0E7DC2"/>
	<path d="m67.191 81.396h-17.648l-0.009 51.258c0 9.227 4.459 17.214 17.657 18.468v-69.724z" fill="#0E7DC2"/>
	<rect height="16.698" width="17.593" y="55.136" x="49.543" fill="#0E7DC2"/>
	<path d="m172.69 150.31c-14.258 0-20.292-9.909-20.292-19.672v-68.061h17.462v18.816h13.151v14.105h-13.151v34.059c0 3.98 1.89 6.198 6.04 6.198h7.111v14.553h-10.32" fill="#0E7DC2"/>
	<path d="m204.82 121.31c0 8.937 5.589 15.503 15.475 15.503 7.747 0 11.566-2.149 16.038-6.567l10.791 10.278c-6.918 6.834-14.167 10.989-26.958 10.989-16.711 0-32.723-9.121-32.723-35.71 0-22.732 13.992-35.581 32.335-35.581 18.648 0 29.365 15.043 29.365 34.789v6.299h-44.32m14.19-26.64c-5.977 0-10.569 3.078-12.516 7.231-1.134 2.496-1.549 4.441-1.678 7.507h26.912c-0.33-7.51-3.73-14.74-12.71-14.74z" fill="#0E7DC2"/>
	<path d="m114.62 95.5c5.121 0 7.249 2.531 7.249 6.64v48.272h17.466v-48.373c0-9.802-5.222-20.625-20.56-20.625l-36.079-0.018v69.016h17.473v-54.91h14.45z" fill="#0E7DC2"/>
		<path d="m295.89 66.769c-3.883 0-6.983-3.132-6.983-7.01 0-3.86 3.1-7.009 6.983-7.009 3.864 0 7.037 3.15 7.037 7.009 0 3.878-3.17 7.01-7.04 7.01zm0-12.85c-3.2 0-5.774 2.645-5.774 5.84 0 3.214 2.574 5.813 5.774 5.813s5.856-2.598 5.856-5.813c0-3.195-2.66-5.84-5.86-5.84zm3.11 10.041h-1.31c-0.119 0-0.221-0.074-0.267-0.175l-1.771-3.011c-0.055-0.064-0.203-0.138-0.249-0.138h-0.516-0.295v3.002c0 0.148-0.102 0.323-0.295 0.323h-1.181c-0.175 0-0.295-0.175-0.295-0.323v-7.572c0-0.443 0.147-0.625 0.535-0.68 0.424-0.046 1.531-0.101 2.149-0.101 2.185 0 3.468 0.644 3.468 2.67v0.148c0 1.252-0.618 1.934-1.577 2.238l1.844 3.14c0.027 0.046 0.046 0.157 0.046 0.222 0.02 0.119-0.05 0.257-0.27 0.257zm-1.7-6.006c0-0.846-0.526-1.113-1.651-1.113h-0.812-0.304v2.402c0.176 0 0.969 0.037 1.116 0.037 1.125 0 1.651-0.375 1.651-1.178v-0.148z" fill="#0E7DC2"/>
</svg>
