<?xml version="1.0" encoding="UTF-8" standalone="no"?>
<svg width="255px" height="186px" viewBox="0 0 255 186" version="1.1" xmlns="http://www.w3.org/2000/svg" xmlns:xlink="http://www.w3.org/1999/xlink">
    <!-- Generator: Sketch 40.2 (33826) - http://www.bohemiancoding.com/sketch -->
    <title>Tablet (landscape)</title>
    <desc>Created with Sketch.</desc>
    <defs></defs>
    <g id="Page-1" stroke="none" stroke-width="1" fill="none" fill-rule="evenodd">
        <g id="Home-13" transform="translate(-708.000000, -616.000000)" fill="#FFFFFF">
            <g id="artwork" transform="translate(60.000000, 597.000000)">
                <g id="devices" transform="translate(139.000000, 0.000000)">
                    <g id="Tablet-(landscape)" transform="translate(509.000000, 18.615429)">
                        <g id="svg8">
                            <g id="layer1" transform="translate(0.079726, 0.573084)">
                                <path d="M254.499876,19.2607545 C254.499876,3.8521509 250.523277,0 234.617097,0 L19.8828591,0 C3.97665931,-0.000134825282 0,3.8521509 0,19.2607545 L0,165.642489 C0,181.051131 3.97665931,184.903243 19.8828591,184.903243 L234.617097,184.903243 C250.523277,184.903243 254.499876,181.052402 254.499876,165.661307 L254.499876,165.638771 L254.499876,19.2607545 Z M238.430538,3.8521509 L238.430538,181.051092 L16.0693382,181.051092 L16.0693382,3.8521509 L238.430538,3.8521509 Z M9.94141962,80.895169 L9.94141962,104.008074 L5.96483984,104.008074 L5.96483984,80.895169 L9.94141962,80.895169 Z" id="path4234"></path>
                            </g>
                        </g>
                        <g id="logo-ubuntu_st_no®-white-hex" transform="translate(98.000000, 63.384571)">
                            <g id="Layer_1">
                                <path d="M58.9164311,29.4269853 C58.9164311,45.6781114 45.74161,58.8532786 29.4894457,58.8532786 C13.2369355,58.8532786 0.06228739,45.6781114 0.06228739,29.4269853 C0.06228739,13.1748211 13.2371085,0 29.4894457,0 C45.741783,0 58.9164311,13.1748211 58.9164311,29.4269853 Z M9.47996774,25.4973431 C7.30907918,25.4973431 5.55032551,27.2562698 5.55032551,29.4269853 C5.55032551,31.5966628 7.30907918,33.3554164 9.47996774,33.3554164 C11.6496452,33.3554164 13.4083988,31.5966628 13.4083988,29.4269853 C13.4083988,27.2562698 11.6496452,25.4973431 9.47996774,25.4973431 Z M37.5314399,43.3537537 C35.6522639,44.4391114 35.0079355,46.8406364 36.0934663,48.7187742 C37.1776129,50.5979501 39.5791378,51.2421056 41.4583138,50.1567478 C43.3373167,49.0726012 43.9816452,46.6710762 42.8962874,44.7917273 C41.8121408,42.9137625 39.4092317,42.269607 37.5314399,43.3537537 Z M18.0138592,29.4269853 C18.0138592,25.5444047 19.942346,22.1142727 22.8932111,20.0371613 L20.0208974,15.2263255 C16.5834985,17.5240381 14.0259091,21.0351437 12.963044,25.1473226 C14.2032551,26.1593196 14.9970733,27.6998944 14.9970733,29.4268123 C14.9970733,31.1526921 14.2032551,32.6932669 12.963044,33.7052639 C14.0245249,37.818654 16.5821144,41.3299326 20.0208974,43.6276452 L22.8932111,38.8155982 C19.942346,36.7396979 18.0138592,33.309739 18.0138592,29.4269853 Z M29.4894457,17.9501877 C35.484607,17.9501877 40.4032346,22.546824 40.9195279,28.4089326 L46.5177801,28.3264018 C46.2423314,23.9986393 44.3517361,20.1134633 41.4467214,17.2565484 C39.9528622,17.8209413 38.2273284,17.7346041 36.7358915,16.8748651 C35.2418592,16.0127038 34.3051261,14.5582933 34.0490557,12.9794809 C32.5970674,12.5787654 31.0689501,12.3593754 29.4890997,12.3593754 C26.7731965,12.3593754 24.2053988,12.9973021 21.9255073,14.1257419 L24.6554252,19.0177243 C26.1240235,18.3342933 27.7623548,17.9501877 29.4894457,17.9501877 Z M29.4894457,40.9025718 C27.7623548,40.9025718 26.1240235,40.5182933 24.6555982,39.8350352 L21.9256804,44.7268446 C24.2055718,45.8566686 26.7733695,46.4947683 29.4894457,46.4947683 C31.0692962,46.4947683 32.5974135,46.2752053 34.0492287,45.8732786 C34.3052991,44.2944663 35.2423783,42.8414399 36.7360645,41.9777214 C38.2285396,41.1165982 39.9530352,41.0318182 41.4468944,41.5962111 C44.3519091,38.7392962 46.2425044,34.8541202 46.5179531,30.5263578 L40.9183167,30.443827 C40.4032346,36.3074927 35.4847801,40.9025718 29.4894457,40.9025718 Z M37.5300557,15.4977947 C39.4092317,16.5829795 41.8109296,15.9402082 42.8950762,14.0610323 C43.980434,12.1818563 43.3376628,9.78015836 41.4583138,8.69462757 C39.5791378,7.61048094 37.1776129,8.25463636 36.0919091,10.1338123 C35.0079355,12.0119501 35.6520909,14.4136481 37.5300557,15.4977947 Z" id="Combined-Shape"></path>
                            </g>
                        </g>
                    </g>
                </g>
            </g>
        </g>
    </g>
</svg>