<?xml version="1.0" encoding="UTF-8" standalone="no"?>
<svg width="874px" height="197px" viewBox="0 0 874 197" version="1.1" xmlns="http://www.w3.org/2000/svg" xmlns:xlink="http://www.w3.org/1999/xlink">
    <!-- Generator: Sketch 40.2 (33826) - http://www.bohemiancoding.com/sketch -->
    <title>artwork</title>
    <desc>Created with Sketch.</desc>
    <defs></defs>
    <g id="Page-1" stroke="none" stroke-width="1" fill="none" fill-rule="evenodd">
        <g id="Home-13" transform="translate(-50.000000, -601.000000)">
            <g id="artwork" transform="translate(50.000000, 601.000000)">
                <g id="devices" transform="translate(69.000000, 0.000000)">
                    <g id="Mobile" transform="translate(643.976118, 12.307982)" fill="#FFFFFF">
                        <g id="svg8">
                            <g id="layer1" transform="translate(0.064360, 0.462698)">
                                <path d="M16.0540981,0 C3.21082062,0 0,3.11008919 0,15.5502749 L0,136.84254 C0,149.282742 3.21082062,152.392877 16.0540981,152.392877 L64.216373,152.392877 C77.0596825,152.392877 80.2704689,149.282742 80.2704689,136.84254 L80.2704689,15.5502749 C80.2704689,3.11008919 77.060742,0 64.2320578,0 L64.2132424,0 L16.0540981,0 Z M3.21082062,12.5677914 L77.0596504,12.5677914 L77.0596504,139.825086 L3.21082062,139.825086 L3.21082062,12.5677914 Z M30.5027735,144.617717 L49.7676864,144.617717 L49.7676864,147.72779 L30.5027735,147.72779 L30.5027735,144.617717 Z" id="path4234"></path>
                            </g>
                        </g>
                        <g id="logo-ubuntu_st_no®-white-hex" transform="translate(22.273601, 61.161437)">
                            <g id="Layer_1">
                                <path d="M36.2831653,18.1205545 C36.2831653,28.127676 28.1695677,36.2406829 18.1608155,36.2406829 C8.15185015,36.2406829 0.0383591407,28.127676 0.0383591407,18.1205545 C0.0383591407,8.11279381 8.15195671,0 18.1608155,0 C28.1696743,0 36.2831653,8.11279381 36.2831653,18.1205545 Z M5.83815465,15.7007587 C4.50123205,15.7007587 3.41811909,16.7838709 3.41811909,18.1205545 C3.41811909,19.4565989 4.50123205,20.5396046 5.83815465,20.5396046 C7.17433139,20.5396046 8.25744434,19.4565989 8.25744434,18.1205545 C8.25744434,16.7838709 7.17433139,15.7007587 5.83815465,15.7007587 Z M23.1134068,26.6963825 C21.9561328,27.3647244 21.5593288,28.8435358 22.2278434,30.0000559 C22.8955055,31.1572152 24.3744635,31.5538734 25.5317375,30.8855315 C26.6889049,30.2179355 27.0857089,28.7391241 26.4173008,27.5818582 C25.7496387,26.4254447 24.2698283,26.0287865 23.1134068,26.6963825 Z M11.0936766,18.1205545 C11.0936766,15.7297383 12.2813182,13.617531 14.0985825,12.3384869 L12.3296933,9.37606957 C10.2128015,10.7909555 8.6377326,12.9530247 7.98317649,15.485223 C8.7469496,16.1083907 9.23581554,17.0570462 9.23581554,18.120448 C9.23581554,19.1832106 8.7469496,20.131866 7.98317649,20.7550337 C8.63688018,23.2879778 10.2119491,25.4501536 12.3296933,26.8650395 L14.0985825,23.9018763 C12.2813182,22.6235781 11.0936766,20.5114773 11.0936766,18.1205545 Z M18.1608155,11.0533699 C21.8528828,11.0533699 24.8819762,13.8838875 25.1999309,17.4936578 L28.6475652,17.442837 C28.4779326,14.7778866 27.3136261,12.3854722 25.5245984,10.6262406 C24.6046183,10.9737826 23.5419636,10.9206178 22.6234753,10.3912076 C21.7033887,9.86030575 21.1265098,8.96470854 20.9688111,7.9925072 C20.0746169,7.74575451 19.1335394,7.61065848 18.1606024,7.61065848 C16.4880373,7.61065848 14.9066817,8.00348109 13.5026306,8.69835201 L15.1838265,11.7107379 C16.0882498,11.2898945 17.0972018,11.0533699 18.1608155,11.0533699 Z M18.1608155,25.1869933 C17.0972018,25.1869933 16.0882498,24.9503622 15.1839331,24.5296254 L13.5027372,27.5419047 C14.9067883,28.237628 16.4881438,28.6305571 18.1608155,28.6305571 C19.1337525,28.6305571 20.07483,28.4953546 20.9689177,28.2478561 C21.1266164,27.2756547 21.7037083,26.3809099 22.6235818,25.8490491 C23.5427095,25.3187866 24.6047249,25.2665807 25.524705,25.6141227 C27.3137327,23.8548911 28.4780391,21.4624767 28.6476718,18.7975263 L25.199185,18.7467055 C24.8819762,22.3574346 21.8529893,25.1869933 18.1608155,25.1869933 Z M23.1125543,9.54323493 C24.2698283,10.2114702 25.7488928,9.81566439 26.416555,8.65850507 C27.084963,7.50134575 26.689118,6.02242774 25.5317375,5.35397939 C24.3744635,4.68638338 22.8955055,5.08304152 22.2268844,6.24020084 C21.5593288,7.39672091 21.9560262,8.87563892 23.1125543,9.54323493 Z" id="Combined-Shape"></path>
                            </g>
                        </g>
                    </g>
                    <g id="Tablet-(landscape)" transform="translate(359.107901, 15.029283)" fill="#FFFFFF">
                        <g id="svg8">
                            <g id="layer1" transform="translate(0.064373, 0.462683)">
                                <path d="M205.492421,15.5502904 C205.492421,3.11005809 202.281571,0 189.438345,0 L16.0541408,0 C3.21089881,-0.000108852033 0,3.11005809 0,15.5502904 L0,133.732498 C0,146.172761 3.21089881,149.282788 16.0541408,149.282788 L189.438345,149.282788 C202.281571,149.282788 205.492421,146.173788 205.492421,133.74769 L205.492421,133.729497 L205.492421,15.5502904 Z M192.517455,3.11005809 L192.517455,146.17273 L12.9749659,146.17273 L12.9749659,3.11005809 L192.517455,3.11005809 Z M8.0270624,65.3112199 L8.0270624,83.9715684 L4.81622781,83.9715684 L4.81622781,65.3112199 L8.0270624,65.3112199 Z" id="path4234"></path>
                            </g>
                        </g>
                        <g id="logo-ubuntu_st_no®-white-hex" transform="translate(79.128751, 51.173930)">
                            <g id="Layer_1">
                                <path d="M47.5712611,23.7580604 C47.5712611,36.8785085 36.9334332,47.515562 23.810847,47.515562 C10.6879813,47.515562 0.0502930955,36.8785085 0.0502930955,23.7580604 C0.0502930955,10.6367741 10.688121,0 23.810847,0 C36.9335729,0 47.5712611,10.6367741 47.5712611,23.7580604 Z M7.65446943,20.5854392 C5.90161535,20.5854392 4.48153392,22.0055196 4.48153392,23.7580604 C4.48153392,25.509763 5.90161535,26.9297038 7.65446943,26.9297038 C9.4063456,26.9297038 10.826427,25.509763 10.826427,23.7580604 C10.826427,22.0055196 9.4063456,20.5854392 7.65446943,20.5854392 Z M30.3042444,35.0019238 C28.7869297,35.8781942 28.2666755,37.8170803 29.1431724,39.3334066 C30.0185517,40.8505711 31.9576299,41.370634 33.4749447,40.4943636 C34.9921197,39.619071 35.5123739,37.6801849 34.6360167,36.1628808 C33.7606374,34.6466941 31.8204415,34.1266312 30.3042444,35.0019238 Z M14.5450426,23.7580604 C14.5450426,20.6234347 16.1021727,17.8540962 18.4848081,16.1771273 L16.1655979,12.293069 C13.3901176,14.1481416 11.3250272,16.9828546 10.4668314,20.3028479 C11.4682228,21.1198901 12.1091804,22.3636828 12.1091804,23.7579207 C12.1091804,25.1513205 11.4682228,26.3951132 10.4668314,27.2121553 C11.3239096,30.5331265 13.3889999,33.3679792 16.1655979,35.2230518 L18.4848081,31.3380157 C16.1021727,29.6620246 14.5450426,26.8928258 14.5450426,23.7580604 Z M23.810847,14.4921961 C28.6515574,14.4921961 32.6230355,18.2033192 33.0399094,22.9361291 L37.5601411,22.8694974 C37.3377338,19.3754513 35.8111987,16.2387302 33.4655846,13.9321821 C32.2593885,14.3878483 30.86613,14.3181434 29.6618898,13.6240277 C28.455554,12.9279564 27.6992018,11.753729 27.4924413,10.479065 C26.3200533,10.1555448 25.086196,9.97841889 23.8105676,9.97841889 C21.6176489,9.97841889 19.544316,10.493453 17.703449,11.404506 L19.9076836,15.3540785 C21.0934831,14.8023062 22.4163312,14.4921961 23.810847,14.4921961 Z M23.810847,33.0229468 C22.4163312,33.0229468 21.0934831,32.7126971 19.9078233,32.1610644 L17.7035887,36.1104973 C19.5444557,37.0226678 21.6177886,37.5378416 23.810847,37.5378416 C25.0864755,37.5378416 26.3203327,37.360576 27.492581,37.036078 C27.6993415,35.761414 28.4559731,34.588304 29.6620295,33.8909755 C30.867108,33.1957424 32.2595282,33.1272947 33.4657243,33.5829608 C35.8113384,31.2764127 37.3378735,28.1396916 37.5602808,24.6456456 L33.0389315,24.5790138 C32.6230355,29.313081 28.6516971,33.0229468 23.810847,33.0229468 Z M30.3031268,12.5122414 C31.8204415,13.388372 33.7596595,12.8694267 34.6350387,11.3522622 C35.5113959,9.83509777 34.9923991,7.89607193 33.4749447,7.01966187 C31.9576299,6.14436932 30.0185517,6.66443222 29.1419151,8.18159666 C28.2666755,9.69792297 28.78679,11.6369488 30.3031268,12.5122414 Z" id="Combined-Shape"></path>
                            </g>
                        </g>
                    </g>
                    <g id="Laptop" transform="translate(0.312791, 0.394018)">
                        <g id="svg8">
                            <g id="layer1" transform="translate(0.000000, 0.645624)">
                                <path d="M0,172.782912 C-2.91522265e-05,195.372981 5.83048061,195.372965 34.9828977,195.372965 L244.880284,195.372965 C274.032698,195.372965 279.863181,195.372981 279.863181,172.782912 L173.248636,172.782912 L173.248636,176.010062 L106.614545,176.010062 L106.614545,172.782912 L0,172.782912 Z" id="rect4188" fill="#FFFFFF"></path>
                                <path d="M273.199772,184.077906 L273.199772,16.265935 C273.199772,3.35736528 269.869184,0.130198644 256.557508,0.130198644 L256.538684,0.130198644 L24.9879856,0.130198644 C11.6611256,0.130198644 8.32946308,3.35736528 8.32946308,16.265935 L8.32946308,183.544587" id="path4256" stroke="#FFFFFF" stroke-width="2.00000024"></path>
                                <polygon id="rect4263" stroke="#FFFFFF" stroke-width="2.00000024" points="20.1859058 12.9176999 260.068649 12.9176999 260.068649 154.91237 20.1859058 154.91237"></polygon>
                            </g>
                        </g>
                        <g id="logo-ubuntu_st_no®-white-hex" transform="translate(111.920846, 56.120919)" fill="#FFFFFF">
                            <g id="Layer_1">
                                <path d="M56.4404793,28.1875293 C56.4404793,43.7541627 43.8193275,56.3743956 28.2501574,56.3743956 C12.6806558,56.3743956 0.0596697743,43.7541627 0.0596697743,28.1875293 C0.0596697743,12.6199015 12.6808215,0 28.2501574,0 C43.8194933,0 56.4404793,12.6199015 56.4404793,28.1875293 Z M9.08157391,24.4234024 C7.00191652,24.4234024 5.31707414,26.1082436 5.31707414,28.1875293 C5.31707414,30.2658205 7.00191652,31.950496 9.08157391,31.950496 C11.160071,31.950496 12.8449134,30.2658205 12.8449134,28.1875293 C12.8449134,26.1082436 11.160071,24.4234024 9.08157391,24.4234024 Z M35.9541883,41.5277062 C34.1539843,42.567349 33.5367337,44.8677224 34.5766452,46.6667536 C35.6152308,48.4667792 37.9158321,49.083803 39.7160361,48.0441602 C41.5160742,47.0056775 42.1333249,44.7053041 41.0935791,42.9051128 C40.0549935,41.1062473 37.7530662,40.4892235 35.9541883,41.5277062 Z M17.2568302,28.1875293 C17.2568302,24.4684818 19.1042728,21.182826 21.9311283,19.1932019 L19.179523,14.5849971 C15.8865802,16.7859307 13.4364729,20.1491496 12.4182745,24.0881247 C13.606366,25.0574967 14.3668242,26.5331829 14.3668242,28.1873635 C14.3668242,29.8405498 13.606366,31.316236 12.4182745,32.285608 C13.4351469,36.2257433 15.8852542,39.5891278 19.179523,41.7900614 L21.9311283,37.1806965 C19.1042728,35.1922326 17.2568302,31.9067425 17.2568302,28.1875293 Z M28.2501574,17.194131 C33.9933732,17.194131 38.7052964,21.5971584 39.1998925,27.2123566 L44.5628792,27.133302 C44.2990062,22.9878236 42.4878628,19.2662901 39.7049308,16.5297076 C38.2738508,17.0703285 36.6208323,16.9876277 35.1920727,16.1641007 C33.7608268,15.3382534 32.8634597,13.9451022 32.6181506,12.432789 C31.2271819,12.0489515 29.7632834,11.8388021 28.2498259,11.8388021 C25.648058,11.8388021 23.1881716,12.4498595 21.0040921,13.5307698 L23.6192857,18.2167033 C25.0261664,17.5620582 26.5956472,17.194131 28.2501574,17.194131 Z M28.2501574,39.1797674 C26.5956472,39.1797674 25.0261664,38.8116745 23.6194514,38.1571951 L21.0042578,42.8429629 C23.1883373,43.9251991 25.6482238,44.5364222 28.2501574,44.5364222 C29.7636149,44.5364222 31.2275134,44.3261071 32.6183164,43.9411094 C32.8636255,42.4287962 33.7613241,41.0369709 35.1922384,40.209632 C36.6219925,39.3847791 38.2740165,39.3035699 39.7050966,39.8441908 C42.4880286,37.1076083 44.299172,33.3860748 44.563045,29.2405965 L39.1987323,29.1615418 C38.7052964,34.7782316 33.9935389,39.1797674 28.2501574,39.1797674 Z M35.9528623,14.8450321 C37.7530662,15.8845092 40.0538333,15.2688113 41.0924188,13.4687857 C42.1321647,11.6687601 41.5164057,9.36822093 39.7160361,8.32841238 C37.9158321,7.2899297 35.6152308,7.90695348 34.5751535,9.70697909 C33.5367337,11.5060103 34.1538186,13.8065494 35.9528623,14.8450321 Z" id="Combined-Shape"></path>
                            </g>
                        </g>
                    </g>
                </g>
                <g id="dots-" transform="translate(0.000000, 96.000000)" fill="#FFFFFF" opacity="0.4">
                    <g id="Group-4">
                        <path d="M32.2871137,6.51454241 C31.4160286,6.51454241 30.5778146,6.18000011 29.9696985,5.57463784 C29.3451469,4.98520617 29,4.17274629 29,3.32842524 C29,2.48410418 29.3451469,1.67164431 29.9696985,1.08221263 C31.1859306,-0.112581312 33.3882968,-0.112581312 34.6045288,1.08221263 C35.2290804,1.67164431 35.5742274,2.48410418 35.5742274,3.32842524 C35.5742274,4.17274629 35.2290804,4.98520617 34.6209644,5.57463784 C33.9964128,6.18000011 33.1417632,6.51454241 32.2871137,6.51454241 L32.2871137,6.51454241 Z" id="Shape"></path>
                        <path d="M60.2871137,6.51454241 C59.4160286,6.51454241 58.5778146,6.18000011 57.9696985,5.57463784 C57.3451469,4.98520617 57,4.17274629 57,3.32842524 C57,2.48410418 57.3451469,1.67164431 57.9696985,1.08221263 C59.1859306,-0.112581312 61.3882968,-0.112581312 62.6045288,1.08221263 C63.2290804,1.67164431 63.5742274,2.48410418 63.5742274,3.32842524 C63.5742274,4.17274629 63.2290804,4.98520617 62.6209644,5.57463784 C61.9964128,6.18000011 61.1417632,6.51454241 60.2871137,6.51454241 L60.2871137,6.51454241 Z" id="Shape"></path>
                        <path d="M3.28711369,6.51454241 C2.41602856,6.51454241 1.57781457,6.18000011 0.969698538,5.57463784 C0.345146937,4.98520617 0,4.17274629 0,3.32842524 C0,2.48410418 0.345146937,1.67164431 0.969698538,1.08221263 C2.1859306,-0.112581312 4.38829677,-0.112581312 5.60452884,1.08221263 C6.22908044,1.67164431 6.57422737,2.48410418 6.57422737,3.32842524 C6.57422737,4.17274629 6.22908044,4.98520617 5.6209644,5.57463784 C4.9964128,6.18000011 4.14176325,6.51454241 3.28711369,6.51454241 L3.28711369,6.51454241 Z" id="Shape"></path>
                    </g>
                    <g id="Group-4" transform="translate(810.000000, 0.000000)">
                        <path d="M32.2871137,6.51454241 C31.4160286,6.51454241 30.5778146,6.18000011 29.9696985,5.57463784 C29.3451469,4.98520617 29,4.17274629 29,3.32842524 C29,2.48410418 29.3451469,1.67164431 29.9696985,1.08221263 C31.1859306,-0.112581312 33.3882968,-0.112581312 34.6045288,1.08221263 C35.2290804,1.67164431 35.5742274,2.48410418 35.5742274,3.32842524 C35.5742274,4.17274629 35.2290804,4.98520617 34.6209644,5.57463784 C33.9964128,6.18000011 33.1417632,6.51454241 32.2871137,6.51454241 L32.2871137,6.51454241 Z" id="Shape"></path>
                        <path d="M60.2871137,6.51454241 C59.4160286,6.51454241 58.5778146,6.18000011 57.9696985,5.57463784 C57.3451469,4.98520617 57,4.17274629 57,3.32842524 C57,2.48410418 57.3451469,1.67164431 57.9696985,1.08221263 C59.1859306,-0.112581312 61.3882968,-0.112581312 62.6045288,1.08221263 C63.2290804,1.67164431 63.5742274,2.48410418 63.5742274,3.32842524 C63.5742274,4.17274629 63.2290804,4.98520617 62.6209644,5.57463784 C61.9964128,6.18000011 61.1417632,6.51454241 60.2871137,6.51454241 L60.2871137,6.51454241 Z" id="Shape"></path>
                        <path d="M3.28711369,6.51454241 C2.41602856,6.51454241 1.57781457,6.18000011 0.969698538,5.57463784 C0.345146937,4.98520617 0,4.17274629 0,3.32842524 C0,2.48410418 0.345146937,1.67164431 0.969698538,1.08221263 C2.1859306,-0.112581312 4.38829677,-0.112581312 5.60452884,1.08221263 C6.22908044,1.67164431 6.57422737,2.48410418 6.57422737,3.32842524 C6.57422737,4.17274629 6.22908044,4.98520617 5.6209644,5.57463784 C4.9964128,6.18000011 4.14176325,6.51454241 3.28711369,6.51454241 L3.28711369,6.51454241 Z" id="Shape"></path>
                    </g>
                    <g id="Group-4" transform="translate(372.000000, 0.000000)">
                        <path d="M32.2871137,6.51454241 C31.4160286,6.51454241 30.5778146,6.18000011 29.9696985,5.57463784 C29.3451469,4.98520617 29,4.17274629 29,3.32842524 C29,2.48410418 29.3451469,1.67164431 29.9696985,1.08221263 C31.1859306,-0.112581312 33.3882968,-0.112581312 34.6045288,1.08221263 C35.2290804,1.67164431 35.5742274,2.48410418 35.5742274,3.32842524 C35.5742274,4.17274629 35.2290804,4.98520617 34.6209644,5.57463784 C33.9964128,6.18000011 33.1417632,6.51454241 32.2871137,6.51454241 L32.2871137,6.51454241 Z" id="Shape"></path>
                        <path d="M3.28711369,6.51454241 C2.41602856,6.51454241 1.57781457,6.18000011 0.969698538,5.57463784 C0.345146937,4.98520617 0,4.17274629 0,3.32842524 C0,2.48410418 0.345146937,1.67164431 0.969698538,1.08221263 C2.1859306,-0.112581312 4.38829677,-0.112581312 5.60452884,1.08221263 C6.22908044,1.67164431 6.57422737,2.48410418 6.57422737,3.32842524 C6.57422737,4.17274629 6.22908044,4.98520617 5.6209644,5.57463784 C4.9964128,6.18000011 4.14176325,6.51454241 3.28711369,6.51454241 L3.28711369,6.51454241 Z" id="Shape"></path>
                    </g>
                    <g id="Group-4" transform="translate(659.000000, 0.000000)">
                        <path d="M32.2871137,6.51454241 C31.4160286,6.51454241 30.5778146,6.18000011 29.9696985,5.57463784 C29.3451469,4.98520617 29,4.17274629 29,3.32842524 C29,2.48410418 29.3451469,1.67164431 29.9696985,1.08221263 C31.1859306,-0.112581312 33.3882968,-0.112581312 34.6045288,1.08221263 C35.2290804,1.67164431 35.5742274,2.48410418 35.5742274,3.32842524 C35.5742274,4.17274629 35.2290804,4.98520617 34.6209644,5.57463784 C33.9964128,6.18000011 33.1417632,6.51454241 32.2871137,6.51454241 L32.2871137,6.51454241 Z" id="Shape"></path>
                        <path d="M3.28711369,6.51454241 C2.41602856,6.51454241 1.57781457,6.18000011 0.969698538,5.57463784 C0.345146937,4.98520617 0,4.17274629 0,3.32842524 C0,2.48410418 0.345146937,1.67164431 0.969698538,1.08221263 C2.1859306,-0.112581312 4.38829677,-0.112581312 5.60452884,1.08221263 C6.22908044,1.67164431 6.57422737,2.48410418 6.57422737,3.32842524 C6.57422737,4.17274629 6.22908044,4.98520617 5.6209644,5.57463784 C4.9964128,6.18000011 4.14176325,6.51454241 3.28711369,6.51454241 L3.28711369,6.51454241 Z" id="Shape"></path>
                    </g>
                </g>
            </g>
        </g>
    </g>
</svg>