<?xml version="1.0" encoding="utf-8"?>
<!-- Generator: Adobe Illustrator 18.1.1, SVG Export Plug-In . SVG Version: 6.00 Build 0)  -->
<!DOCTYPE svg PUBLIC "-//W3C//DTD SVG 1.1//EN" "http://www.w3.org/Graphics/SVG/1.1/DTD/svg11.dtd">
<svg version="1.1"
	 id="svg3140" inkscape:version="0.48+devel r12585" sodipodi:docname="external-link-orange.svg" xmlns:rdf="http://www.w3.org/1999/02/22-rdf-syntax-ns#" xmlns:sodipodi="http://sodipodi.sourceforge.net/DTD/sodipodi-0.dtd" xmlns:cc="http://creativecommons.org/ns#" xmlns:svg="http://www.w3.org/2000/svg" xmlns:inkscape="http://www.inkscape.org/namespaces/inkscape" xmlns:dc="http://purl.org/dc/elements/1.1/"
	 xmlns="http://www.w3.org/2000/svg" xmlns:xlink="http://www.w3.org/1999/xlink" x="0px" y="0px" width="90px" height="90px"
	 viewBox="-134 136 90 90" enable-background="new -134 136 90 90" xml:space="preserve">
<sodipodi:namedview  inkscape:snap-center="true" inkscape:snap-object-midpoints="true" inkscape:object-paths="true" inkscape:snap-midpoints="true" inkscape:snap-smooth-nodes="true" inkscape:object-nodes="true" inkscape:snap-bbox-midpoints="true" inkscape:bbox-nodes="true" inkscape:bbox-paths="true" inkscape:snap-bbox="true" inkscape:snap-global="true" fit-margin-bottom="0" fit-margin-right="0" inkscape:window-maximized="1" inkscape:window-y="24" inkscape:current-layer="g4978" inkscape:pageshadow="2" inkscape:document-units="px" inkscape:pageopacity="0.0" inkscape:window-height="1029" inkscape:window-x="0" inkscape:window-width="1920" inkscape:snap-intersection-paths="true" inkscape:snap-bbox-edge-midpoints="true" fit-margin-top="0" showguides="false" fit-margin-left="0" inkscape:zoom="2.6077032" inkscape:cx="40.342015" bordercolor="#666666" inkscape:cy="41.108902" showgrid="true" pagecolor="#ffffff" id="base" borderopacity="1.0">
	
		<inkscape:grid  type="xygrid" snapvisiblegridlinesonly="true" originx="0px" enabled="true" visible="true" empspacing="6" originy="-1.7382813e-05px" id="grid3178">
		</inkscape:grid>
</sodipodi:namedview>
<g id="layer1" transform="translate(0,-962.36218)" inkscape:groupmode="layer" inkscape:label="Layer 1">
	<rect id="rect4198" x="-134" y="1098.4" fill="none" width="90" height="90"/>
	<g id="g4978" transform="translate(-60,548.00002)">
		<path id="path3759" fill="#FFFFFF" d="M-41,563.4c-24,0-27,0.7-27,18v36c0,18,3,18,30,18h12c27,0,30,0,30-18v-9h-9v6
			c0,12,0,12-24,12h-6c-24,0-24,0-24-12v-30c0-10.9,0.2-11.9,18-12V563.4z"/>
		<rect id="rect3045" x="-74" y="550.4" fill="none" width="90" height="90"/>
		
			<path id="path4984-3" inkscape:transform-center-x="5.2240132" inkscape:transform-center-y="5.2240217" inkscape:randomized="0" inkscape:rounded="0.06" inkscape:flatsided="true" sodipodi:type="star" sodipodi:sides="3" sodipodi:cx="111" sodipodi:arg2="2.0943951" sodipodi:arg1="1.0471976" sodipodi:r2="2.9154758" sodipodi:r1="5.8309517" sodipodi:cy="174.09448" fill="#FFFFFF" d="
			M-32.1,568.1c0.6-2.5,40-12.4,41.9-10.5c1.9,1.9-8,41.3-10.5,41.9C-3.2,600.1-32.8,570.6-32.1,568.1L-32.1,568.1z"/>
		<path id="path3789" sodipodi:nodetypes="ccccc" inkscape:connector-curvature="0" fill="#FFFFFF" d="M-17.6,575l-24.3,24.3
			l9.9,9.9l24.3-24.3L-17.6,575z"/>
	</g>
</g>
</svg>
